<svg xmlns="http://www.w3.org/2000/svg" xmlns:xlink="http://www.w3.org/1999/xlink" viewBox="0 0 293.47 89.93"><defs><style>.cls-1,.cls-8{fill:none;}.cls-2{clip-path:url(#clip-path);}.cls-3{fill:#df9046;}.cls-4,.cls-7{fill:#2c5a86;}.cls-5{clip-path:url(#clip-path-2);}.cls-6{fill:#fff;}.cls-7,.cls-8{font-size:36px;}.cls-12,.cls-7,.cls-8,.cls-9{font-family:ArialRoundedMTBold, Arial Rounded MT Bold;}.cls-8{stroke:#2c5a86;stroke-miterlimit:10;stroke-width:1.03px;}.cls-12,.cls-9{font-size:10.28px;fill:#28689d;}.cls-10,.cls-12{letter-spacing:0.07em;}.cls-11{letter-spacing:0.07em;}.cls-13{letter-spacing:0em;}</style><clipPath id="clip-path" transform="translate(-35.52 -103.75)"><rect class="cls-1" width="375" height="375"/></clipPath><clipPath id="clip-path-2" transform="translate(-35.52 -103.75)"><rect class="cls-1" x="131.33" y="152.55" width="95.81" height="38.58"/></clipPath></defs><g id="Layer_2" data-name="Layer 2"><g id="Layer_1-2" data-name="Layer 1"><g class="cls-2"><path class="cls-3" d="M36,178.55c0-1.22,0-2.44.09-3.67s.15-2.44.27-3.66.27-2.43.45-3.64.39-2.42.63-3.62.5-2.39.8-3.58.63-2.37,1-3.54.74-2.33,1.15-3.49.86-2.29,1.32-3.42,1-2.25,1.49-3.36,1.08-2.2,1.65-3.28,1.18-2.14,1.81-3.19,1.29-2.09,2-3.11,1.38-2,2.11-3,1.48-2,2.26-2.89,1.58-1.88,2.4-2.78,1.66-1.8,2.53-2.66,1.75-1.71,2.66-2.53,1.83-1.63,2.78-2.4,1.91-1.53,2.89-2.26,2-1.44,3-2.12,2-1.33,3.1-2,2.11-1.23,3.19-1.81,2.18-1.13,3.28-1.65,2.23-1,3.36-1.49,2.27-.91,3.43-1.32,2.31-.8,3.48-1.15,2.35-.68,3.54-1,2.38-.57,3.58-.81,2.41-.44,3.62-.62,2.43-.33,3.64-.45,2.44-.21,3.67-.27,2.44-.09,3.67-.09,2.44,0,3.67.09,2.44.15,3.66.27,2.43.27,3.64.45,2.42.39,3.62.62,2.4.51,3.58.81,2.37.62,3.54,1,2.34.74,3.49,1.15,2.29.85,3.42,1.32,2.25,1,3.36,1.49,2.2,1.07,3.28,1.65,2.15,1.18,3.19,1.81,2.09,1.28,3.11,2,2,1.39,3,2.12,1.95,1.48,2.89,2.26,1.88,1.57,2.78,2.4,1.8,1.66,2.66,2.53,1.71,1.75,2.53,2.66,1.63,1.83,2.4,2.78,1.53,1.91,2.26,2.89,1.44,2,2.12,3,1.33,2.06,2,3.11,1.23,2.11,1.81,3.19,1.13,2.17,1.65,3.28,1,2.23,1.49,3.36.91,2.27,1.32,3.42.8,2.32,1.15,3.49.68,2.35,1,3.54.57,2.38.81,3.58.44,2.41.62,3.62.33,2.42.45,3.64.21,2.44.27,3.66.09,2.45.09,3.67H158.68a47.81,47.81,0,0,0-.92-9.34,45.16,45.16,0,0,0-1.14-4.55,46.68,46.68,0,0,0-1.58-4.43q-.9-2.17-2-4.24a44.31,44.31,0,0,0-2.42-4q-1.31-2-2.79-3.78t-3.16-3.48q-1.66-1.66-3.48-3.15a45,45,0,0,0-3.78-2.8q-2-1.31-4-2.42c-1.39-.74-2.8-1.41-4.25-2a46.68,46.68,0,0,0-4.43-1.58,44.5,44.5,0,0,0-4.55-1.14,45.73,45.73,0,0,0-4.65-.69c-1.56-.15-3.13-.23-4.69-.23s-3.14.08-4.7.23a47.94,47.94,0,0,0-13.62,3.41q-2.17.9-4.25,2c-1.38.74-2.73,1.55-4,2.42a46.7,46.7,0,0,0-3.78,2.8Q78.61,143,77,144.7t-3.15,3.48A45,45,0,0,0,71,152a46.71,46.71,0,0,0-2.42,4q-1.11,2.07-2,4.24T65,164.66c-.45,1.5-.83,3-1.14,4.55a45.73,45.73,0,0,0-.69,4.65c-.15,1.56-.23,3.13-.23,4.69Z" transform="translate(-35.52 -103.75)"/><path class="cls-4" d="M117.29,174.8a7,7,0,0,1-.85,1.19,7.78,7.78,0,0,1-1.06,1,7,7,0,0,1-1.25.77,6.67,6.67,0,0,1-1.37.52,7.75,7.75,0,0,1-1.44.25,7.23,7.23,0,0,1-1.47,0,7.06,7.06,0,0,1-1.43-.33,7,7,0,0,1-1.34-.6,7.59,7.59,0,0,1-1.19-.85,7.31,7.31,0,0,1-1-1.07,7.59,7.59,0,0,1-1.29-2.61,8,8,0,0,1-.25-1.45,7.11,7.11,0,0,1,0-1.46,6.91,6.91,0,0,1,.33-1.43,6.7,6.7,0,0,1,.6-1.34L139,119a1.49,1.49,0,0,1,.39-.44,1.41,1.41,0,0,1,.52-.26,1.63,1.63,0,0,1,.58,0,1.55,1.55,0,0,1,.56.19,1.46,1.46,0,0,1,.44.38,1.5,1.5,0,0,1,.26.52,1.68,1.68,0,0,1,0,.59,1.5,1.5,0,0,1-.19.55Z" transform="translate(-35.52 -103.75)"/></g><g class="cls-5"><path class="cls-6" d="M223.31,152.55H221.2v2.55h5.94v-1C227.14,153.25,225.42,152.55,223.31,152.55Z" transform="translate(-35.52 -103.75)"/><rect class="cls-6" x="185.68" y="51.35" width="5.94" height="33.79"/><rect class="cls-6" x="101.75" y="51.35" width="83.93" height="33.79"/><rect class="cls-6" x="101.75" y="48.81" width="83.93" height="2.55"/><path class="cls-6" d="M135.16,152.55c-2.11,0-3.83.7-3.83,1.55v1h5.94v-2.55Z" transform="translate(-35.52 -103.75)"/><rect class="cls-6" x="95.81" y="51.35" width="5.94" height="33.79"/><rect class="cls-6" x="101.75" y="85.14" width="83.93" height="2.24"/><path class="cls-6" d="M131.33,188.89v.7c0,.85,1.72,1.54,3.83,1.54h2.11v-2.24Z" transform="translate(-35.52 -103.75)"/><path class="cls-6" d="M223.31,191.13c2.11,0,3.83-.69,3.83-1.54v-.7H221.2v2.24Z" transform="translate(-35.52 -103.75)"/></g><text class="cls-7" transform="translate(89.14 72.75) scale(1.1 1)">J</text><text class="cls-8" transform="translate(89.14 72.75) scale(1.1 1)">J</text><text class="cls-7" transform="translate(111.83 72.75) scale(1.1 1)">a</text><text class="cls-8" transform="translate(111.83 72.75) scale(1.1 1)">a</text><text class="cls-7" transform="translate(135.35 72.75) scale(1.1 1)">v</text><text class="cls-8" transform="translate(135.35 72.75) scale(1.1 1)">v</text><text class="cls-7" transform="translate(156.81 72.75) scale(1.1 1)">a</text><text class="cls-8" transform="translate(156.81 72.75) scale(1.1 1)">a</text><text class="cls-7" transform="translate(180.34 72.75) scale(1.1 1)">s</text><text class="cls-8" transform="translate(180.34 72.75) scale(1.1 1)">s</text><text class="cls-7" transform="translate(201.8 72.75) scale(1.1 1)">c</text><text class="cls-8" transform="translate(201.8 72.75) scale(1.1 1)">c</text><text class="cls-7" transform="translate(225.32 72.75) scale(1.1 1)">r</text><text class="cls-8" transform="translate(225.32 72.75) scale(1.1 1)">r</text><text class="cls-7" transform="translate(242.67 72.75) scale(1.1 1)">i</text><text class="cls-8" transform="translate(242.67 72.75) scale(1.1 1)">i</text><text class="cls-7" transform="translate(253.4 72.75) scale(1.1 1)">p</text><text class="cls-8" transform="translate(253.4 72.75) scale(1.1 1)">p</text><text class="cls-7" transform="translate(278.15 72.75) scale(1.1 1)">t</text><text class="cls-8" transform="translate(278.15 72.75) scale(1.1 1)">t</text><text class="cls-9" transform="translate(0 87.38) scale(1 1.18)">G</text><text class="cls-9" transform="translate(8.9 87.38) scale(1 1.18)">E</text><text class="cls-9" transform="translate(16.51 87.38) scale(1 1.18)">N</text><text class="cls-9" transform="translate(25.07 87.38) scale(1 1.18)"><tspan class="cls-10">E</tspan><tspan x="7.61" y="0">R</tspan></text><text class="cls-9" transform="translate(40.83 87.38) scale(1 1.18)">A</text><text class="cls-9" transform="translate(48.98 87.38) scale(1 1.18)">T</text><text class="cls-9" transform="translate(56.16 87.38) scale(1 1.18)">E </text><text class="cls-9" transform="translate(67.1 87.38) scale(1 1.18)"><tspan class="cls-10">O</tspan><tspan x="8.9" y="0">N</tspan></text><text class="cls-9" transform="translate(84.56 87.38) scale(1 1.18)">E </text><text class="cls-9" transform="translate(95.5 87.38) scale(1 1.18)">T</text><text class="cls-9" transform="translate(102.68 87.38) scale(1 1.18)">O </text><text class="cls-9" transform="translate(114.9 87.38) scale(1 1.18)"><tspan class="cls-10">O</tspan><tspan x="8.9" y="0">N</tspan></text><text class="cls-9" transform="translate(132.36 87.38) scale(1 1.18)">E</text><text class="cls-9" transform="translate(139.98 87.38) scale(1 1.18)">-</text><text class="cls-9" transform="translate(144.15 87.38) scale(1 1.18)">H</text><text class="cls-9" transform="translate(152.72 87.38) scale(1 1.18)">U</text><text class="cls-9" transform="translate(161.28 87.38) scale(1 1.18)"><tspan class="cls-11">N</tspan><tspan x="8.55" y="0">D</tspan></text><text class="cls-12" transform="translate(178.22 87.38) scale(1 1.18)">R<tspan class="cls-13" x="8.15" y="0">E</tspan></text><text class="cls-9" transform="translate(193.98 87.38) scale(1 1.18)">D </text><text class="cls-9" transform="translate(205.67 87.38) scale(1 1.18)">W</text><text class="cls-9" transform="translate(216.06 87.38) scale(1 1.18)">I</text><text class="cls-9" transform="translate(220.03 87.38) scale(1 1.18)">T</text><text class="cls-9" transform="translate(227.21 87.38) scale(1 1.18)">H </text><text class="cls-9" transform="translate(239.1 87.38) scale(1 1.18)">J</text><text class="cls-9" transform="translate(245.75 87.38) scale(1 1.18)">S</text></g></g></svg>