<svg xmlns="http://www.w3.org/2000/svg" xmlns:xlink="http://www.w3.org/1999/xlink" viewBox="0 0 249.83 127.94"><defs><style>.cls-1,.cls-11,.cls-9{fill:none;}.cls-2{fill:#ff993b;}.cls-3,.cls-6{isolation:isolate;}.cls-3{opacity:0.6;}.cls-4{clip-path:url(#clip-path);}.cls-5{fill:#f9943b;}.cls-6{opacity:0.4;}.cls-7{clip-path:url(#clip-path-2);}.cls-8{fill:#1d5888;}.cls-9{stroke:#1d5888;stroke-width:1.14px;}.cls-11,.cls-9{stroke-miterlimit:10;}.cls-10{fill:#0b66a0;}.cls-11{stroke:#0b66a0;stroke-width:0.36px;}</style><clipPath id="clip-path" transform="translate(0 -0.23)"><rect class="cls-1" x="81.26" width="128.4" height="128.4"/></clipPath><clipPath id="clip-path-2" transform="translate(0 -0.23)"><rect class="cls-1" x="107.42" width="128.4" height="128.4"/></clipPath></defs><g id="Layer_2" data-name="Layer 2"><g id="Layer_1-2" data-name="Layer 1"><g id="Org_Shape" data-name="Org Shape"><polygon class="cls-2" points="119.38 127.94 55.34 63.91 119.25 0 119.38 127.94"/><g class="cls-3"><g class="cls-4"><polygon class="cls-5" points="145.53 127.94 81.5 63.91 145.4 0 145.53 127.94"/></g></g><g class="cls-6"><g class="cls-7"><polygon class="cls-5" points="171.68 127.94 107.64 63.91 171.55 0 171.68 127.94"/></g></g></g><g id="Title"><path class="cls-8" d="M19.48,53.47V68.4a28,28,0,0,1-.17,3.3,10.69,10.69,0,0,1-.74,2.76,7.43,7.43,0,0,1-3.21,3.66,10.54,10.54,0,0,1-5.44,1.31,11.28,11.28,0,0,1-4.83-.91,7.08,7.08,0,0,1-3.12-3,10.61,10.61,0,0,1-1-2.51,10.24,10.24,0,0,1-.39-2.7,2.71,2.71,0,0,1,.76-2.08,2.69,2.69,0,0,1,1.94-.72A2.2,2.2,0,0,1,5,68.22a4.55,4.55,0,0,1,.89,2.06,19,19,0,0,0,.66,2.39,3.65,3.65,0,0,0,1.11,1.54,3.45,3.45,0,0,0,2.22.64q3.82,0,3.83-5.62V53.47a3.87,3.87,0,0,1,.76-2.62A2.63,2.63,0,0,1,16.56,50a2.69,2.69,0,0,1,2.13.88A3.77,3.77,0,0,1,19.48,53.47Z" transform="translate(0 -0.23)"/><path class="cls-9" d="M19.48,53.47V68.4a28,28,0,0,1-.17,3.3,10.69,10.69,0,0,1-.74,2.76,7.43,7.43,0,0,1-3.21,3.66,10.54,10.54,0,0,1-5.44,1.31,11.28,11.28,0,0,1-4.83-.91,7.08,7.08,0,0,1-3.12-3,10.61,10.61,0,0,1-1-2.51,10.24,10.24,0,0,1-.39-2.7,2.71,2.71,0,0,1,.76-2.08,2.69,2.69,0,0,1,1.94-.72A2.2,2.2,0,0,1,5,68.22a4.55,4.55,0,0,1,.89,2.06,19,19,0,0,0,.66,2.39,3.65,3.65,0,0,0,1.11,1.54,3.45,3.45,0,0,0,2.22.64q3.82,0,3.83-5.62V53.47a3.87,3.87,0,0,1,.76-2.62A2.63,2.63,0,0,1,16.56,50a2.69,2.69,0,0,1,2.13.88A3.77,3.77,0,0,1,19.48,53.47Z" transform="translate(0 -0.23)"/><path class="cls-8" d="M47.38,70.4A8.42,8.42,0,0,1,46.05,75a8.85,8.85,0,0,1-3.9,3.23,14.56,14.56,0,0,1-6.08,1.16,13.73,13.73,0,0,1-7-1.59A9.16,9.16,0,0,1,26,74.78a7,7,0,0,1-1.21-3.72,2.51,2.51,0,0,1,2.58-2.55,2.26,2.26,0,0,1,1.55.58,4.54,4.54,0,0,1,1.07,1.73,12,12,0,0,0,1.18,2.28,4.65,4.65,0,0,0,1.78,1.5,6.49,6.49,0,0,0,3,.6A6.78,6.78,0,0,0,40.08,74a3.58,3.58,0,0,0,1.6-3,3.12,3.12,0,0,0-.86-2.3,5.69,5.69,0,0,0-2.24-1.36q-1.36-.47-3.66-1a27,27,0,0,1-5.14-1.68,8.19,8.19,0,0,1-3.28-2.62,6.83,6.83,0,0,1-1.22-4.13,7.13,7.13,0,0,1,1.28-4.18A8.16,8.16,0,0,1,30.28,51,15.23,15.23,0,0,1,36,50a14.27,14.27,0,0,1,4.54.65,9.68,9.68,0,0,1,3.17,1.73,7.18,7.18,0,0,1,1.85,2.27,5.19,5.19,0,0,1,.58,2.31,2.73,2.73,0,0,1-.72,1.85,2.32,2.32,0,0,1-1.82.83,2.06,2.06,0,0,1-1.51-.5A7,7,0,0,1,41,57.49,7.31,7.31,0,0,0,39.1,55a5.42,5.42,0,0,0-3.5-.91,6.06,6.06,0,0,0-3.6,1,2.84,2.84,0,0,0-1.37,2.36,2.39,2.39,0,0,0,.46,1.48A3.91,3.91,0,0,0,32.37,60a8.77,8.77,0,0,0,1.66.7c.55.17,1.47.41,2.76.74a43,43,0,0,1,4.36,1.24,13.71,13.71,0,0,1,3.32,1.65,6.75,6.75,0,0,1,2.14,2.46A7.91,7.91,0,0,1,47.38,70.4Z" transform="translate(0 -0.23)"/><path class="cls-9" d="M47.38,70.4A8.42,8.42,0,0,1,46.05,75a8.85,8.85,0,0,1-3.9,3.23,14.56,14.56,0,0,1-6.08,1.16,13.73,13.73,0,0,1-7-1.59A9.16,9.16,0,0,1,26,74.78a7,7,0,0,1-1.21-3.72,2.51,2.51,0,0,1,2.58-2.55,2.26,2.26,0,0,1,1.55.58,4.54,4.54,0,0,1,1.07,1.73,12,12,0,0,0,1.18,2.28,4.65,4.65,0,0,0,1.78,1.5,6.49,6.49,0,0,0,3,.6A6.78,6.78,0,0,0,40.08,74a3.58,3.58,0,0,0,1.6-3,3.12,3.12,0,0,0-.86-2.3,5.69,5.69,0,0,0-2.24-1.36q-1.36-.47-3.66-1a27,27,0,0,1-5.14-1.68,8.19,8.19,0,0,1-3.28-2.62,6.83,6.83,0,0,1-1.22-4.13,7.13,7.13,0,0,1,1.28-4.18A8.16,8.16,0,0,1,30.28,51,15.23,15.23,0,0,1,36,50a14.27,14.27,0,0,1,4.54.65,9.68,9.68,0,0,1,3.17,1.73,7.18,7.18,0,0,1,1.85,2.27,5.19,5.19,0,0,1,.58,2.31,2.73,2.73,0,0,1-.72,1.85,2.32,2.32,0,0,1-1.82.83,2.06,2.06,0,0,1-1.51-.5A7,7,0,0,1,41,57.49,7.31,7.31,0,0,0,39.1,55a5.42,5.42,0,0,0-3.5-.91,6.06,6.06,0,0,0-3.6,1,2.84,2.84,0,0,0-1.37,2.36,2.39,2.39,0,0,0,.46,1.48A3.91,3.91,0,0,0,32.37,60a8.77,8.77,0,0,0,1.66.7c.55.17,1.47.41,2.76.74a43,43,0,0,1,4.36,1.24,13.71,13.71,0,0,1,3.32,1.65,6.75,6.75,0,0,1,2.14,2.46A7.91,7.91,0,0,1,47.38,70.4Z" transform="translate(0 -0.23)"/><path class="cls-8" d="M70.78,66.76h-2v9.16a3.81,3.81,0,0,1-.8,2.66,2.7,2.7,0,0,1-2.08.85,2.61,2.61,0,0,1-2.13-.89A3.94,3.94,0,0,1,63,75.92V54a3.74,3.74,0,0,1,.83-2.7,3.76,3.76,0,0,1,2.71-.83h9.38a28.74,28.74,0,0,1,3.33.16,8.44,8.44,0,0,1,2.48.67,7.15,7.15,0,0,1,2.37,1.62,7,7,0,0,1,1.57,2.43,8.08,8.08,0,0,1,.53,2.95,7.15,7.15,0,0,1-1.79,5.09,10.33,10.33,0,0,1-5.46,2.7,10.58,10.58,0,0,1,2.94,2.41,25.75,25.75,0,0,1,2.5,3.39,25.43,25.43,0,0,1,1.71,3.25,6.31,6.31,0,0,1,.61,2,2,2,0,0,1-.36,1.12,2.51,2.51,0,0,1-1,.87,3.05,3.05,0,0,1-1.44.32A2.82,2.82,0,0,1,82.29,79a4.5,4.5,0,0,1-1.14-1.16c-.32-.47-.75-1.15-1.29-2.06l-2.31-3.85a21.6,21.6,0,0,0-2.23-3.22,5.46,5.46,0,0,0-2-1.52A6.91,6.91,0,0,0,70.78,66.76Zm3.31-12H68.76v7.83h5.17a14.48,14.48,0,0,0,3.5-.36A4.11,4.11,0,0,0,79.6,61a3.57,3.57,0,0,0,.74-2.38,3.59,3.59,0,0,0-2.27-3.44A11.83,11.83,0,0,0,74.09,54.79Z" transform="translate(0 -0.23)"/><path class="cls-9" d="M70.78,66.76h-2v9.16a3.81,3.81,0,0,1-.8,2.66,2.7,2.7,0,0,1-2.08.85,2.61,2.61,0,0,1-2.13-.89A3.94,3.94,0,0,1,63,75.92V54a3.74,3.74,0,0,1,.83-2.7,3.76,3.76,0,0,1,2.71-.83h9.38a28.74,28.74,0,0,1,3.33.16,8.44,8.44,0,0,1,2.48.67,7.15,7.15,0,0,1,2.37,1.62,7,7,0,0,1,1.57,2.43,8.08,8.08,0,0,1,.53,2.95,7.15,7.15,0,0,1-1.79,5.09,10.33,10.33,0,0,1-5.46,2.7,10.58,10.58,0,0,1,2.94,2.41,25.75,25.75,0,0,1,2.5,3.39,25.43,25.43,0,0,1,1.71,3.25,6.31,6.31,0,0,1,.61,2,2,2,0,0,1-.36,1.12,2.51,2.51,0,0,1-1,.87,3.05,3.05,0,0,1-1.44.32A2.82,2.82,0,0,1,82.29,79a4.5,4.5,0,0,1-1.14-1.16c-.32-.47-.75-1.15-1.29-2.06l-2.31-3.85a21.6,21.6,0,0,0-2.23-3.22,5.46,5.46,0,0,0-2-1.52A6.91,6.91,0,0,0,70.78,66.76Zm3.31-12H68.76v7.83h5.17a14.48,14.48,0,0,0,3.5-.36A4.11,4.11,0,0,0,79.6,61a3.57,3.57,0,0,0,.74-2.38,3.59,3.59,0,0,0-2.27-3.44A11.83,11.83,0,0,0,74.09,54.79Z" transform="translate(0 -0.23)"/><path class="cls-8" d="M110.42,54.91h-13v7h12a2.81,2.81,0,0,1,2,.6,2,2,0,0,1,.65,1.56,2.09,2.09,0,0,1-.64,1.59,2.83,2.83,0,0,1-2,.61h-12v8.1h13.45a3,3,0,0,1,2,.63,2.16,2.16,0,0,1,.69,1.68,2.13,2.13,0,0,1-.69,1.65,3,3,0,0,1-2,.63H95.18a3,3,0,0,1-3.53-3.54V54A4.92,4.92,0,0,1,92,52a2.34,2.34,0,0,1,1.16-1.14,4.89,4.89,0,0,1,2-.36h15.24a3,3,0,0,1,2,.61,2.27,2.27,0,0,1,0,3.22A3,3,0,0,1,110.42,54.91Z" transform="translate(0 -0.23)"/><path class="cls-9" d="M110.42,54.91h-13v7h12a2.81,2.81,0,0,1,2,.6,2,2,0,0,1,.65,1.56,2.09,2.09,0,0,1-.64,1.59,2.83,2.83,0,0,1-2,.61h-12v8.1h13.45a3,3,0,0,1,2,.63,2.16,2.16,0,0,1,.69,1.68,2.13,2.13,0,0,1-.69,1.65,3,3,0,0,1-2,.63H95.18a3,3,0,0,1-3.53-3.54V54A4.92,4.92,0,0,1,92,52a2.34,2.34,0,0,1,1.16-1.14,4.89,4.89,0,0,1,2-.36h15.24a3,3,0,0,1,2,.61,2.27,2.27,0,0,1,0,3.22A3,3,0,0,1,110.42,54.91Z" transform="translate(0 -0.23)"/><path class="cls-8" d="M122.41,53.76l6.45,19.11,6.48-19.25c.33-1,.59-1.71.75-2.1a2.74,2.74,0,0,1,.84-1.07,2.43,2.43,0,0,1,1.59-.48,2.61,2.61,0,0,1,1.37.37,2.66,2.66,0,0,1,1,1,2.33,2.33,0,0,1,.36,1.24,3.9,3.9,0,0,1-.11.92c-.08.33-.18.65-.29,1s-.24.65-.35,1l-6.9,18.62c-.25.71-.5,1.39-.74,2a8.34,8.34,0,0,1-.86,1.69A3.73,3.73,0,0,1,130.7,79a3.88,3.88,0,0,1-2,.46,4,4,0,0,1-2-.45,3.81,3.81,0,0,1-1.31-1.21,9,9,0,0,1-.86-1.7c-.25-.63-.49-1.31-.74-2l-6.78-18.46q-.18-.51-.36-1a8,8,0,0,1-.31-1.05,4.25,4.25,0,0,1-.13-1,2.52,2.52,0,0,1,.8-1.8,2.66,2.66,0,0,1,2-.82,2.35,2.35,0,0,1,2.09.9A12.28,12.28,0,0,1,122.41,53.76Z" transform="translate(0 -0.23)"/><path class="cls-9" d="M122.41,53.76l6.45,19.11,6.48-19.25c.33-1,.59-1.71.75-2.1a2.74,2.74,0,0,1,.84-1.07,2.43,2.43,0,0,1,1.59-.48,2.61,2.61,0,0,1,1.37.37,2.66,2.66,0,0,1,1,1,2.33,2.33,0,0,1,.36,1.24,3.9,3.9,0,0,1-.11.92c-.08.33-.18.65-.29,1s-.24.65-.35,1l-6.9,18.62c-.25.71-.5,1.39-.74,2a8.34,8.34,0,0,1-.86,1.69A3.73,3.73,0,0,1,130.7,79a3.88,3.88,0,0,1-2,.46,4,4,0,0,1-2-.45,3.81,3.81,0,0,1-1.31-1.21,9,9,0,0,1-.86-1.7c-.25-.63-.49-1.31-.74-2l-6.78-18.46q-.18-.51-.36-1a8,8,0,0,1-.31-1.05,4.25,4.25,0,0,1-.13-1,2.52,2.52,0,0,1,.8-1.8,2.66,2.66,0,0,1,2-.82,2.35,2.35,0,0,1,2.09.9A12.28,12.28,0,0,1,122.41,53.76Z" transform="translate(0 -0.23)"/><path class="cls-8" d="M164.35,54.91h-13v7h12a2.86,2.86,0,0,1,2,.6,2,2,0,0,1,.65,1.56,2.13,2.13,0,0,1-.64,1.59,2.84,2.84,0,0,1-2,.61h-12v8.1H164.8a2.94,2.94,0,0,1,2,.63,2.16,2.16,0,0,1,.69,1.68,2.13,2.13,0,0,1-.69,1.65,2.94,2.94,0,0,1-2,.63H149.12a3,3,0,0,1-3.54-3.54V54a4.75,4.75,0,0,1,.37-2,2.26,2.26,0,0,1,1.16-1.14,4.82,4.82,0,0,1,2-.36h15.23a2.94,2.94,0,0,1,2.05.61,2.27,2.27,0,0,1,0,3.22A2.94,2.94,0,0,1,164.35,54.91Z" transform="translate(0 -0.23)"/><path class="cls-9" d="M164.35,54.91h-13v7h12a2.86,2.86,0,0,1,2,.6,2,2,0,0,1,.65,1.56,2.13,2.13,0,0,1-.64,1.59,2.84,2.84,0,0,1-2,.61h-12v8.1H164.8a2.94,2.94,0,0,1,2,.63,2.16,2.16,0,0,1,.69,1.68,2.13,2.13,0,0,1-.69,1.65,2.94,2.94,0,0,1-2,.63H149.12a3,3,0,0,1-3.54-3.54V54a4.75,4.75,0,0,1,.37-2,2.26,2.26,0,0,1,1.16-1.14,4.82,4.82,0,0,1,2-.36h15.23a2.94,2.94,0,0,1,2.05.61,2.27,2.27,0,0,1,0,3.22A2.94,2.94,0,0,1,164.35,54.91Z" transform="translate(0 -0.23)"/><path class="cls-8" d="M179.88,66.76h-2v9.16a3.76,3.76,0,0,1-.8,2.66,2.69,2.69,0,0,1-2.07.85,2.63,2.63,0,0,1-2.14-.89,3.94,3.94,0,0,1-.76-2.62V54a3.74,3.74,0,0,1,.83-2.7,3.76,3.76,0,0,1,2.71-.83H185a28.74,28.74,0,0,1,3.33.16,8.44,8.44,0,0,1,2.48.67,7.29,7.29,0,0,1,2.38,1.62,7.14,7.14,0,0,1,1.56,2.43,8.09,8.09,0,0,1,.54,2.95,7.11,7.11,0,0,1-1.8,5.09,10.34,10.34,0,0,1-5.45,2.7A10.69,10.69,0,0,1,191,68.49a24.88,24.88,0,0,1,2.5,3.39,25.43,25.43,0,0,1,1.71,3.25,6.31,6.31,0,0,1,.61,2,2,2,0,0,1-.36,1.12,2.51,2.51,0,0,1-1,.87,3,3,0,0,1-1.44.32,2.82,2.82,0,0,1-1.63-.45,4.5,4.5,0,0,1-1.14-1.16c-.32-.47-.75-1.15-1.29-2.06l-2.31-3.85a20.88,20.88,0,0,0-2.23-3.22,5.46,5.46,0,0,0-2-1.52A6.87,6.87,0,0,0,179.88,66.76Zm3.31-12h-5.33v7.83H183a14.48,14.48,0,0,0,3.5-.36A4.08,4.08,0,0,0,188.7,61a3.52,3.52,0,0,0,.74-2.38,3.59,3.59,0,0,0-2.27-3.44A11.83,11.83,0,0,0,183.19,54.79Z" transform="translate(0 -0.23)"/><path class="cls-9" d="M179.88,66.76h-2v9.16a3.76,3.76,0,0,1-.8,2.66,2.69,2.69,0,0,1-2.07.85,2.63,2.63,0,0,1-2.14-.89,3.94,3.94,0,0,1-.76-2.62V54a3.74,3.74,0,0,1,.83-2.7,3.76,3.76,0,0,1,2.71-.83H185a28.74,28.74,0,0,1,3.33.16,8.44,8.44,0,0,1,2.48.67,7.29,7.29,0,0,1,2.38,1.62,7.14,7.14,0,0,1,1.56,2.43,8.09,8.09,0,0,1,.54,2.95,7.11,7.11,0,0,1-1.8,5.09,10.34,10.34,0,0,1-5.45,2.7A10.69,10.69,0,0,1,191,68.49a24.88,24.88,0,0,1,2.5,3.39,25.43,25.43,0,0,1,1.71,3.25,6.31,6.31,0,0,1,.61,2,2,2,0,0,1-.36,1.12,2.51,2.51,0,0,1-1,.87,3,3,0,0,1-1.44.32,2.82,2.82,0,0,1-1.63-.45,4.5,4.5,0,0,1-1.14-1.16c-.32-.47-.75-1.15-1.29-2.06l-2.31-3.85a20.88,20.88,0,0,0-2.23-3.22,5.46,5.46,0,0,0-2-1.52A6.87,6.87,0,0,0,179.88,66.76Zm3.31-12h-5.33v7.83H183a14.48,14.48,0,0,0,3.5-.36A4.08,4.08,0,0,0,188.7,61a3.52,3.52,0,0,0,.74-2.38,3.59,3.59,0,0,0-2.27-3.44A11.83,11.83,0,0,0,183.19,54.79Z" transform="translate(0 -0.23)"/><path class="cls-8" d="M222.4,70.4A8.42,8.42,0,0,1,221.07,75a8.85,8.85,0,0,1-3.9,3.23,14.56,14.56,0,0,1-6.08,1.16,13.71,13.71,0,0,1-7-1.59A9.16,9.16,0,0,1,201,74.78a7,7,0,0,1-1.21-3.72,2.51,2.51,0,0,1,2.58-2.55,2.21,2.21,0,0,1,1.54.58A4.43,4.43,0,0,1,205,70.82a12,12,0,0,0,1.18,2.28,4.65,4.65,0,0,0,1.78,1.5,6.49,6.49,0,0,0,3,.6A6.78,6.78,0,0,0,215.1,74a3.58,3.58,0,0,0,1.6-3,3.16,3.16,0,0,0-.86-2.3,5.69,5.69,0,0,0-2.24-1.36q-1.36-.47-3.66-1a27,27,0,0,1-5.14-1.68,8.29,8.29,0,0,1-3.29-2.62,6.82,6.82,0,0,1-1.21-4.13,7.13,7.13,0,0,1,1.28-4.18A8.13,8.13,0,0,1,205.29,51,15.32,15.32,0,0,1,211,50a14.27,14.27,0,0,1,4.54.65,9.68,9.68,0,0,1,3.17,1.73,7.18,7.18,0,0,1,1.85,2.27,5.19,5.19,0,0,1,.58,2.31,2.69,2.69,0,0,1-.73,1.85,2.28,2.28,0,0,1-1.81.83,2.06,2.06,0,0,1-1.51-.5A6.72,6.72,0,0,1,216,57.49,7.44,7.44,0,0,0,214.12,55a5.42,5.42,0,0,0-3.5-.91,6.12,6.12,0,0,0-3.61,1,2.87,2.87,0,0,0-1.37,2.36,2.4,2.4,0,0,0,.47,1.48A3.91,3.91,0,0,0,207.39,60a8.77,8.77,0,0,0,1.66.7c.55.17,1.47.41,2.75.74a42.51,42.51,0,0,1,4.37,1.24,13.71,13.71,0,0,1,3.32,1.65,6.75,6.75,0,0,1,2.14,2.46A7.91,7.91,0,0,1,222.4,70.4Z" transform="translate(0 -0.23)"/><path class="cls-9" d="M222.4,70.4A8.42,8.42,0,0,1,221.07,75a8.85,8.85,0,0,1-3.9,3.23,14.56,14.56,0,0,1-6.08,1.16,13.71,13.71,0,0,1-7-1.59A9.16,9.16,0,0,1,201,74.78a7,7,0,0,1-1.21-3.72,2.51,2.51,0,0,1,2.58-2.55,2.21,2.21,0,0,1,1.54.58A4.43,4.43,0,0,1,205,70.82a12,12,0,0,0,1.18,2.28,4.65,4.65,0,0,0,1.78,1.5,6.49,6.49,0,0,0,3,.6A6.78,6.78,0,0,0,215.1,74a3.58,3.58,0,0,0,1.6-3,3.16,3.16,0,0,0-.86-2.3,5.69,5.69,0,0,0-2.24-1.36q-1.36-.47-3.66-1a27,27,0,0,1-5.14-1.68,8.29,8.29,0,0,1-3.29-2.62,6.82,6.82,0,0,1-1.21-4.13,7.13,7.13,0,0,1,1.28-4.18A8.13,8.13,0,0,1,205.29,51,15.32,15.32,0,0,1,211,50a14.27,14.27,0,0,1,4.54.65,9.68,9.68,0,0,1,3.17,1.73,7.18,7.18,0,0,1,1.85,2.27,5.19,5.19,0,0,1,.58,2.31,2.69,2.69,0,0,1-.73,1.85,2.28,2.28,0,0,1-1.81.83,2.06,2.06,0,0,1-1.51-.5A6.72,6.72,0,0,1,216,57.49,7.44,7.44,0,0,0,214.12,55a5.42,5.42,0,0,0-3.5-.91,6.12,6.12,0,0,0-3.61,1,2.87,2.87,0,0,0-1.37,2.36,2.4,2.4,0,0,0,.47,1.48A3.91,3.91,0,0,0,207.39,60a8.77,8.77,0,0,0,1.66.7c.55.17,1.47.41,2.75.74a42.51,42.51,0,0,1,4.37,1.24,13.71,13.71,0,0,1,3.32,1.65,6.75,6.75,0,0,1,2.14,2.46A7.91,7.91,0,0,1,222.4,70.4Z" transform="translate(0 -0.23)"/><path class="cls-8" d="M246.07,54.91h-13v7h12a2.81,2.81,0,0,1,2,.6,2,2,0,0,1,.65,1.56,2.09,2.09,0,0,1-.64,1.59,2.83,2.83,0,0,1-2,.61h-12v8.1h13.45a3,3,0,0,1,2,.63,2.16,2.16,0,0,1,.69,1.68,2.13,2.13,0,0,1-.69,1.65,3,3,0,0,1-2,.63H230.83a3,3,0,0,1-3.53-3.54V54a4.92,4.92,0,0,1,.36-2,2.34,2.34,0,0,1,1.16-1.14,4.89,4.89,0,0,1,2-.36h15.24a3,3,0,0,1,2.05.61,2.27,2.27,0,0,1,0,3.22A3,3,0,0,1,246.07,54.91Z" transform="translate(0 -0.23)"/><path class="cls-9" d="M246.07,54.91h-13v7h12a2.81,2.81,0,0,1,2,.6,2,2,0,0,1,.65,1.56,2.09,2.09,0,0,1-.64,1.59,2.83,2.83,0,0,1-2,.61h-12v8.1h13.45a3,3,0,0,1,2,.63,2.16,2.16,0,0,1,.69,1.68,2.13,2.13,0,0,1-.69,1.65,3,3,0,0,1-2,.63H230.83a3,3,0,0,1-3.53-3.54V54a4.92,4.92,0,0,1,.36-2,2.34,2.34,0,0,1,1.16-1.14,4.89,4.89,0,0,1,2-.36h15.24a3,3,0,0,1,2.05.61,2.27,2.27,0,0,1,0,3.22A3,3,0,0,1,246.07,54.91Z" transform="translate(0 -0.23)"/></g><g id="Tag_Line" data-name="Tag Line"><path class="cls-10" d="M57.21,90.84l-.43-1.14H53.09l-.43,1.16a4.26,4.26,0,0,1-.43.92.69.69,0,0,1-.59.24.87.87,0,0,1-.61-.26.77.77,0,0,1-.27-.57,1.37,1.37,0,0,1,.06-.39c0-.13.11-.31.21-.55l2.32-5.88c.06-.17.14-.38.24-.61a3,3,0,0,1,.29-.59,1.18,1.18,0,0,1,.42-.38,1.22,1.22,0,0,1,.63-.15,1.25,1.25,0,0,1,1.06.52,2.87,2.87,0,0,1,.26.49c.07.18.17.41.28.7l2.37,5.86a2.93,2.93,0,0,1,.27,1,.76.76,0,0,1-.26.57.83.83,0,0,1-.63.27.81.81,0,0,1-.37-.08.67.67,0,0,1-.26-.21,2.06,2.06,0,0,1-.23-.41Zm-3.63-2.52h2.71l-1.37-3.74Z" transform="translate(0 -0.23)"/><path class="cls-11" d="M57.21,90.84l-.43-1.14H53.09l-.43,1.16a4.26,4.26,0,0,1-.43.92.69.69,0,0,1-.59.24.87.87,0,0,1-.61-.26.77.77,0,0,1-.27-.57,1.37,1.37,0,0,1,.06-.39c0-.13.11-.31.21-.55l2.32-5.88c.06-.17.14-.38.24-.61a3,3,0,0,1,.29-.59,1.18,1.18,0,0,1,.42-.38,1.22,1.22,0,0,1,.63-.15,1.25,1.25,0,0,1,1.06.52,2.87,2.87,0,0,1,.26.49c.07.18.17.41.28.7l2.37,5.86a2.93,2.93,0,0,1,.27,1,.76.76,0,0,1-.26.57.83.83,0,0,1-.63.27.81.81,0,0,1-.37-.08.67.67,0,0,1-.26-.21,2.06,2.06,0,0,1-.23-.41Zm-3.63-2.52h2.71l-1.37-3.74Z" transform="translate(0 -0.23)"/><path class="cls-10" d="M74.19,89a2.47,2.47,0,0,1-.21.94,3.47,3.47,0,0,1-.68,1,3.27,3.27,0,0,1-1.16.79,4.1,4.1,0,0,1-1.66.31,5.91,5.91,0,0,1-1.31-.14,3.67,3.67,0,0,1-1.06-.42,3.49,3.49,0,0,1-.88-.76,4.28,4.28,0,0,1-.62-1,5.09,5.09,0,0,1-.38-1.12,6.62,6.62,0,0,1-.12-1.28,5.72,5.72,0,0,1,.31-2,4.22,4.22,0,0,1,.92-1.48A4,4,0,0,1,68.73,83a4.59,4.59,0,0,1,1.7-.32,4.28,4.28,0,0,1,2,.44,3.52,3.52,0,0,1,1.32,1.09,2.14,2.14,0,0,1,.45,1.22.77.77,0,0,1-.22.55.81.81,0,0,1-1.06.08,2.45,2.45,0,0,1-.4-.58,2.87,2.87,0,0,0-.84-1,2.09,2.09,0,0,0-1.2-.33,2.18,2.18,0,0,0-1.8.86A3.87,3.87,0,0,0,68,87.4a4.69,4.69,0,0,0,.29,1.76,2.2,2.2,0,0,0,.85,1,2.3,2.3,0,0,0,1.27.35,2.19,2.19,0,0,0,1.34-.4A2.33,2.33,0,0,0,72.54,89a1.85,1.85,0,0,1,.3-.58.65.65,0,0,1,.55-.23.77.77,0,0,1,.56.23A.75.75,0,0,1,74.19,89Z" transform="translate(0 -0.23)"/><path class="cls-11" d="M74.19,89a2.47,2.47,0,0,1-.21.94,3.47,3.47,0,0,1-.68,1,3.27,3.27,0,0,1-1.16.79,4.1,4.1,0,0,1-1.66.31,5.91,5.91,0,0,1-1.31-.14,3.67,3.67,0,0,1-1.06-.42,3.49,3.49,0,0,1-.88-.76,4.28,4.28,0,0,1-.62-1,5.09,5.09,0,0,1-.38-1.12,6.62,6.62,0,0,1-.12-1.28,5.72,5.72,0,0,1,.31-2,4.22,4.22,0,0,1,.92-1.48A4,4,0,0,1,68.73,83a4.59,4.59,0,0,1,1.7-.32,4.28,4.28,0,0,1,2,.44,3.52,3.52,0,0,1,1.32,1.09,2.14,2.14,0,0,1,.45,1.22.77.77,0,0,1-.22.55.81.81,0,0,1-1.06.08,2.45,2.45,0,0,1-.4-.58,2.87,2.87,0,0,0-.84-1,2.09,2.09,0,0,0-1.2-.33,2.18,2.18,0,0,0-1.8.86A3.87,3.87,0,0,0,68,87.4a4.69,4.69,0,0,0,.29,1.76,2.2,2.2,0,0,0,.85,1,2.3,2.3,0,0,0,1.27.35,2.19,2.19,0,0,0,1.34-.4A2.33,2.33,0,0,0,72.54,89a1.85,1.85,0,0,1,.3-.58.65.65,0,0,1,.55-.23.77.77,0,0,1,.56.23A.75.75,0,0,1,74.19,89Z" transform="translate(0 -0.23)"/><path class="cls-10" d="M81.21,82.64a4.84,4.84,0,0,1,2.42.57,3.73,3.73,0,0,1,1.54,1.63,5.63,5.63,0,0,1,.52,2.48,6.07,6.07,0,0,1-.29,1.91,4.14,4.14,0,0,1-.85,1.49,3.73,3.73,0,0,1-1.4,1,5.4,5.4,0,0,1-3.8,0,3.84,3.84,0,0,1-1.41-1,4.21,4.21,0,0,1-.85-1.51,6.1,6.1,0,0,1-.29-1.9,5.84,5.84,0,0,1,.3-1.91A4.16,4.16,0,0,1,78,83.9,3.62,3.62,0,0,1,79.36,83,4.88,4.88,0,0,1,81.21,82.64Zm2.61,4.66a4.13,4.13,0,0,0-.32-1.72,2.37,2.37,0,0,0-.92-1.11,2.49,2.49,0,0,0-1.37-.37,2.44,2.44,0,0,0-1,.21,2.29,2.29,0,0,0-.81.6,2.92,2.92,0,0,0-.53,1,4.56,4.56,0,0,0-.19,1.38,4.65,4.65,0,0,0,.19,1.4,2.86,2.86,0,0,0,.55,1,2.29,2.29,0,0,0,.82.61,2.37,2.37,0,0,0,1,.21,2.5,2.5,0,0,0,1.29-.35,2.42,2.42,0,0,0,.94-1.09A4.13,4.13,0,0,0,83.82,87.3Z" transform="translate(0 -0.23)"/><path class="cls-11" d="M81.21,82.64a4.84,4.84,0,0,1,2.42.57,3.73,3.73,0,0,1,1.54,1.63,5.63,5.63,0,0,1,.52,2.48,6.07,6.07,0,0,1-.29,1.91,4.14,4.14,0,0,1-.85,1.49,3.73,3.73,0,0,1-1.4,1,5.4,5.4,0,0,1-3.8,0,3.84,3.84,0,0,1-1.41-1,4.21,4.21,0,0,1-.85-1.51,6.1,6.1,0,0,1-.29-1.9,5.84,5.84,0,0,1,.3-1.91A4.16,4.16,0,0,1,78,83.9,3.62,3.62,0,0,1,79.36,83,4.88,4.88,0,0,1,81.21,82.64Zm2.61,4.66a4.13,4.13,0,0,0-.32-1.72,2.37,2.37,0,0,0-.92-1.11,2.49,2.49,0,0,0-1.37-.37,2.44,2.44,0,0,0-1,.21,2.29,2.29,0,0,0-.81.6,2.92,2.92,0,0,0-.53,1,4.56,4.56,0,0,0-.19,1.38,4.65,4.65,0,0,0,.19,1.4,2.86,2.86,0,0,0,.55,1,2.29,2.29,0,0,0,.82.61,2.37,2.37,0,0,0,1,.21,2.5,2.5,0,0,0,1.29-.35,2.42,2.42,0,0,0,.94-1.09A4.13,4.13,0,0,0,83.82,87.3Z" transform="translate(0 -0.23)"/><path class="cls-10" d="M91.7,90.5l-1.45-5.78V91a1.19,1.19,0,0,1-.23.78.81.81,0,0,1-.62.26.76.76,0,0,1-.6-.26,1.1,1.1,0,0,1-.24-.78V83.8a.9.9,0,0,1,.31-.8,1.49,1.49,0,0,1,.84-.21h.56a2.16,2.16,0,0,1,.75.1.61.61,0,0,1,.34.33,4.78,4.78,0,0,1,.26.79l1.31,5,1.32-5a4.78,4.78,0,0,1,.26-.79.58.58,0,0,1,.34-.33,2.13,2.13,0,0,1,.74-.1h.57A1.49,1.49,0,0,1,97,83a.92.92,0,0,1,.31.8V91a1.14,1.14,0,0,1-.24.78.85.85,0,0,1-1.22,0,1.19,1.19,0,0,1-.23-.78V84.72L94.16,90.5c-.09.37-.17.65-.23.82a1.1,1.1,0,0,1-.33.48,1,1,0,0,1-.67.22,1,1,0,0,1-.54-.14,1,1,0,0,1-.35-.36,2.09,2.09,0,0,1-.19-.48Q91.78,90.79,91.7,90.5Z" transform="translate(0 -0.23)"/><path class="cls-11" d="M91.7,90.5l-1.45-5.78V91a1.19,1.19,0,0,1-.23.78.81.81,0,0,1-.62.26.76.76,0,0,1-.6-.26,1.1,1.1,0,0,1-.24-.78V83.8a.9.9,0,0,1,.31-.8,1.49,1.49,0,0,1,.84-.21h.56a2.16,2.16,0,0,1,.75.1.61.61,0,0,1,.34.33,4.78,4.78,0,0,1,.26.79l1.31,5,1.32-5a4.78,4.78,0,0,1,.26-.79.58.58,0,0,1,.34-.33,2.13,2.13,0,0,1,.74-.1h.57A1.49,1.49,0,0,1,97,83a.92.92,0,0,1,.31.8V91a1.14,1.14,0,0,1-.24.78.85.85,0,0,1-1.22,0,1.19,1.19,0,0,1-.23-.78V84.72L94.16,90.5c-.09.37-.17.65-.23.82a1.1,1.1,0,0,1-.33.48,1,1,0,0,1-.67.22,1,1,0,0,1-.54-.14,1,1,0,0,1-.35-.36,2.09,2.09,0,0,1-.19-.48Q91.78,90.79,91.7,90.5Z" transform="translate(0 -0.23)"/><path class="cls-10" d="M104.1,88.33h-1.68V90.9a1.21,1.21,0,0,1-.26.83.92.92,0,0,1-1.33,0,1.21,1.21,0,0,1-.25-.83v-7a1.15,1.15,0,0,1,.28-.87,1.27,1.27,0,0,1,.88-.26h2.36a6.07,6.07,0,0,1,1.61.17,2.34,2.34,0,0,1,1,.51,2.29,2.29,0,0,1,.61.88,3.05,3.05,0,0,1,.21,1.17,2.59,2.59,0,0,1-.85,2.1A3.92,3.92,0,0,1,104.1,88.33Zm-.45-4.16h-1.23V87h1.23a3.7,3.7,0,0,0,1.09-.14,1.23,1.23,0,0,0,.66-.45,1.32,1.32,0,0,0,.23-.81,1.37,1.37,0,0,0-.35-1A2.36,2.36,0,0,0,103.65,84.17Z" transform="translate(0 -0.23)"/><path class="cls-11" d="M104.1,88.33h-1.68V90.9a1.21,1.21,0,0,1-.26.83.92.92,0,0,1-1.33,0,1.21,1.21,0,0,1-.25-.83v-7a1.15,1.15,0,0,1,.28-.87,1.27,1.27,0,0,1,.88-.26h2.36a6.07,6.07,0,0,1,1.61.17,2.34,2.34,0,0,1,1,.51,2.29,2.29,0,0,1,.61.88,3.05,3.05,0,0,1,.21,1.17,2.59,2.59,0,0,1-.85,2.1A3.92,3.92,0,0,1,104.1,88.33Zm-.45-4.16h-1.23V87h1.23a3.7,3.7,0,0,0,1.09-.14,1.23,1.23,0,0,0,.66-.45,1.32,1.32,0,0,0,.23-.81,1.37,1.37,0,0,0-.35-1A2.36,2.36,0,0,0,103.65,84.17Z" transform="translate(0 -0.23)"/><path class="cls-10" d="M112.21,83.75v6.6h3.73a1,1,0,0,1,.68.22.7.7,0,0,1,.24.54.69.69,0,0,1-.24.55,1,1,0,0,1-.68.2H111.5a1.21,1.21,0,0,1-.86-.26,1.18,1.18,0,0,1-.26-.86v-7a1.18,1.18,0,0,1,.25-.83.83.83,0,0,1,.66-.28.86.86,0,0,1,.67.28A1.18,1.18,0,0,1,112.21,83.75Z" transform="translate(0 -0.23)"/><path class="cls-11" d="M112.21,83.75v6.6h3.73a1,1,0,0,1,.68.22.7.7,0,0,1,.24.54.69.69,0,0,1-.24.55,1,1,0,0,1-.68.2H111.5a1.21,1.21,0,0,1-.86-.26,1.18,1.18,0,0,1-.26-.86v-7a1.18,1.18,0,0,1,.25-.83.83.83,0,0,1,.66-.28.86.86,0,0,1,.67.28A1.18,1.18,0,0,1,112.21,83.75Z" transform="translate(0 -0.23)"/><path class="cls-10" d="M125.43,84.21h-4.14v2.23h3.81a.9.9,0,0,1,.63.19.63.63,0,0,1,.21.5.66.66,0,0,1-.21.5.88.88,0,0,1-.63.19h-3.81V90.4h4.28a.94.94,0,0,1,.65.2.7.7,0,0,1,.22.54.66.66,0,0,1-.22.52.94.94,0,0,1-.65.2h-5a1.19,1.19,0,0,1-.86-.26,1.18,1.18,0,0,1-.27-.86V83.92a1.54,1.54,0,0,1,.12-.65.76.76,0,0,1,.37-.36,1.49,1.49,0,0,1,.64-.12h4.85a.94.94,0,0,1,.65.2.66.66,0,0,1,.21.51.69.69,0,0,1-.21.52A.94.94,0,0,1,125.43,84.21Z" transform="translate(0 -0.23)"/><path class="cls-11" d="M125.43,84.21h-4.14v2.23h3.81a.9.9,0,0,1,.63.19.63.63,0,0,1,.21.5.66.66,0,0,1-.21.5.88.88,0,0,1-.63.19h-3.81V90.4h4.28a.94.94,0,0,1,.65.2.7.7,0,0,1,.22.54.66.66,0,0,1-.22.52.94.94,0,0,1-.65.2h-5a1.19,1.19,0,0,1-.86-.26,1.18,1.18,0,0,1-.27-.86V83.92a1.54,1.54,0,0,1,.12-.65.76.76,0,0,1,.37-.36,1.49,1.49,0,0,1,.64-.12h4.85a.94.94,0,0,1,.65.2.66.66,0,0,1,.21.51.69.69,0,0,1-.21.52A.94.94,0,0,1,125.43,84.21Z" transform="translate(0 -0.23)"/><path class="cls-10" d="M135.18,84.31h-2V90.9a1.19,1.19,0,0,1-.25.84.87.87,0,0,1-.65.28.88.88,0,0,1-.67-.28,1.22,1.22,0,0,1-.26-.84V84.31h-2a1,1,0,0,1-.7-.21.71.71,0,0,1-.23-.54.7.7,0,0,1,.24-.56,1,1,0,0,1,.69-.21h5.84a1,1,0,0,1,.71.22.72.72,0,0,1,.23.55.68.68,0,0,1-.24.54A1,1,0,0,1,135.18,84.31Z" transform="translate(0 -0.23)"/><path class="cls-11" d="M135.18,84.31h-2V90.9a1.19,1.19,0,0,1-.25.84.87.87,0,0,1-.65.28.88.88,0,0,1-.67-.28,1.22,1.22,0,0,1-.26-.84V84.31h-2a1,1,0,0,1-.7-.21.71.71,0,0,1-.23-.54.7.7,0,0,1,.24-.56,1,1,0,0,1,.69-.21h5.84a1,1,0,0,1,.71.22.72.72,0,0,1,.23.55.68.68,0,0,1-.24.54A1,1,0,0,1,135.18,84.31Z" transform="translate(0 -0.23)"/><path class="cls-10" d="M144.57,84.21h-4.14v2.23h3.81a.9.9,0,0,1,.63.19.63.63,0,0,1,.21.5.66.66,0,0,1-.21.5.86.86,0,0,1-.63.19h-3.81V90.4h4.28a1,1,0,0,1,.66.2.73.73,0,0,1,.21.54.69.69,0,0,1-.21.52,1,1,0,0,1-.66.2h-5a1.19,1.19,0,0,1-.86-.26,1.18,1.18,0,0,1-.26-.86V83.92a1.55,1.55,0,0,1,.11-.65.76.76,0,0,1,.37-.36,1.49,1.49,0,0,1,.64-.12h4.85a.94.94,0,0,1,.65.2.64.64,0,0,1,.22.51.66.66,0,0,1-.22.52A.94.94,0,0,1,144.57,84.21Z" transform="translate(0 -0.23)"/><path class="cls-11" d="M144.57,84.21h-4.14v2.23h3.81a.9.9,0,0,1,.63.19.63.63,0,0,1,.21.5.66.66,0,0,1-.21.5.86.86,0,0,1-.63.19h-3.81V90.4h4.28a1,1,0,0,1,.66.2.73.73,0,0,1,.21.54.69.69,0,0,1-.21.52,1,1,0,0,1-.66.2h-5a1.19,1.19,0,0,1-.86-.26,1.18,1.18,0,0,1-.26-.86V83.92a1.55,1.55,0,0,1,.11-.65.76.76,0,0,1,.37-.36,1.49,1.49,0,0,1,.64-.12h4.85a.94.94,0,0,1,.65.2.64.64,0,0,1,.22.51.66.66,0,0,1-.22.52A.94.94,0,0,1,144.57,84.21Z" transform="translate(0 -0.23)"/><path class="cls-10" d="M158.88,84.31h-2V90.9a1.19,1.19,0,0,1-.26.84A.85.85,0,0,1,156,92a.9.9,0,0,1-.67-.28,1.22,1.22,0,0,1-.25-.84V84.31h-2a1,1,0,0,1-.7-.21.71.71,0,0,1-.23-.54.7.7,0,0,1,.24-.56,1,1,0,0,1,.69-.21h5.84a1,1,0,0,1,.71.22.76.76,0,0,1,0,1.09A1.06,1.06,0,0,1,158.88,84.31Z" transform="translate(0 -0.23)"/><path class="cls-11" d="M158.88,84.31h-2V90.9a1.19,1.19,0,0,1-.26.84A.85.85,0,0,1,156,92a.9.9,0,0,1-.67-.28,1.22,1.22,0,0,1-.25-.84V84.31h-2a1,1,0,0,1-.7-.21.71.71,0,0,1-.23-.54.7.7,0,0,1,.24-.56,1,1,0,0,1,.69-.21h5.84a1,1,0,0,1,.71.22.76.76,0,0,1,0,1.09A1.06,1.06,0,0,1,158.88,84.31Z" transform="translate(0 -0.23)"/><path class="cls-10" d="M162.31,88.11V83.75a1.18,1.18,0,0,1,.25-.83.84.84,0,0,1,.66-.28.87.87,0,0,1,.68.28,1.23,1.23,0,0,1,.25.83v4.46a3.86,3.86,0,0,0,.17,1.27,1.47,1.47,0,0,0,.6.8,2.28,2.28,0,0,0,1.21.28,1.8,1.8,0,0,0,1.52-.57,2.81,2.81,0,0,0,.45-1.74v-4.5a1.18,1.18,0,0,1,.25-.83.81.81,0,0,1,.66-.28.86.86,0,0,1,.67.28,1.18,1.18,0,0,1,.26.83v4.36a6.38,6.38,0,0,1-.21,1.78,2.81,2.81,0,0,1-.78,1.25,3.17,3.17,0,0,1-1.15.67,5.08,5.08,0,0,1-1.54.21,6.35,6.35,0,0,1-1.8-.23,2.86,2.86,0,0,1-1.23-.7,2.79,2.79,0,0,1-.7-1.21A6.11,6.11,0,0,1,162.31,88.11Z" transform="translate(0 -0.23)"/><path class="cls-11" d="M162.31,88.11V83.75a1.18,1.18,0,0,1,.25-.83.84.84,0,0,1,.66-.28.87.87,0,0,1,.68.28,1.23,1.23,0,0,1,.25.83v4.46a3.86,3.86,0,0,0,.17,1.27,1.47,1.47,0,0,0,.6.8,2.28,2.28,0,0,0,1.21.28,1.8,1.8,0,0,0,1.52-.57,2.81,2.81,0,0,0,.45-1.74v-4.5a1.18,1.18,0,0,1,.25-.83.81.81,0,0,1,.66-.28.86.86,0,0,1,.67.28,1.18,1.18,0,0,1,.26.83v4.36a6.38,6.38,0,0,1-.21,1.78,2.81,2.81,0,0,1-.78,1.25,3.17,3.17,0,0,1-1.15.67,5.08,5.08,0,0,1-1.54.21,6.35,6.35,0,0,1-1.8-.23,2.86,2.86,0,0,1-1.23-.7,2.79,2.79,0,0,1-.7-1.21A6.11,6.11,0,0,1,162.31,88.11Z" transform="translate(0 -0.23)"/><path class="cls-10" d="M175.78,88h-.64V90.9a1.23,1.23,0,0,1-.26.85.87.87,0,0,1-.66.27.85.85,0,0,1-.68-.29,1.26,1.26,0,0,1-.24-.83v-7a1.21,1.21,0,0,1,.26-.86,1.18,1.18,0,0,1,.86-.27h3a8,8,0,0,1,1.06.06,2.42,2.42,0,0,1,.79.21,2.31,2.31,0,0,1,.76.51,2.45,2.45,0,0,1,.49.78,2.49,2.49,0,0,1,.17.94,2.29,2.29,0,0,1-.57,1.62,3.32,3.32,0,0,1-1.73.86,3.4,3.4,0,0,1,.93.77,7.64,7.64,0,0,1,.8,1.07,8.78,8.78,0,0,1,.54,1,2,2,0,0,1,.19.63.63.63,0,0,1-.11.36.93.93,0,0,1-.31.28,1.11,1.11,0,0,1-.46.1.86.86,0,0,1-.52-.15,1.41,1.41,0,0,1-.36-.37c-.1-.14-.24-.36-.41-.65l-.74-1.23a6,6,0,0,0-.71-1,1.8,1.8,0,0,0-.63-.49A2.33,2.33,0,0,0,175.78,88Zm1.05-3.81h-1.69v2.5h1.64a4.38,4.38,0,0,0,1.11-.12,1.2,1.2,0,0,0,.69-.39,1.09,1.09,0,0,0,.24-.75,1.15,1.15,0,0,0-.19-.67,1.19,1.19,0,0,0-.53-.43A3.86,3.86,0,0,0,176.83,84.17Z" transform="translate(0 -0.23)"/><path class="cls-11" d="M175.78,88h-.64V90.9a1.23,1.23,0,0,1-.26.85.87.87,0,0,1-.66.27.85.85,0,0,1-.68-.29,1.26,1.26,0,0,1-.24-.83v-7a1.21,1.21,0,0,1,.26-.86,1.18,1.18,0,0,1,.86-.27h3a8,8,0,0,1,1.06.06,2.42,2.42,0,0,1,.79.21,2.31,2.31,0,0,1,.76.51,2.45,2.45,0,0,1,.49.78,2.49,2.49,0,0,1,.17.94,2.29,2.29,0,0,1-.57,1.62,3.32,3.32,0,0,1-1.73.86,3.4,3.4,0,0,1,.93.77,7.64,7.64,0,0,1,.8,1.07,8.78,8.78,0,0,1,.54,1,2,2,0,0,1,.19.63.63.63,0,0,1-.11.36.93.93,0,0,1-.31.28,1.11,1.11,0,0,1-.46.1.86.86,0,0,1-.52-.15,1.41,1.41,0,0,1-.36-.37c-.1-.14-.24-.36-.41-.65l-.74-1.23a6,6,0,0,0-.71-1,1.8,1.8,0,0,0-.63-.49A2.33,2.33,0,0,0,175.78,88Zm1.05-3.81h-1.69v2.5h1.64a4.38,4.38,0,0,0,1.11-.12,1.2,1.2,0,0,0,.69-.39,1.09,1.09,0,0,0,.24-.75,1.15,1.15,0,0,0-.19-.67,1.19,1.19,0,0,0-.53-.43A3.86,3.86,0,0,0,176.83,84.17Z" transform="translate(0 -0.23)"/><path class="cls-10" d="M186.2,83.74l3.53,5.34V83.69a1.2,1.2,0,0,1,.23-.79.77.77,0,0,1,.61-.26.79.79,0,0,1,.62.26,1.2,1.2,0,0,1,.23.79v7.13q0,1.2-1,1.2A1.57,1.57,0,0,1,190,92a1.33,1.33,0,0,1-.37-.23,2.27,2.27,0,0,1-.32-.36l-.3-.43-3.44-5.28V91a1.14,1.14,0,0,1-.24.78.86.86,0,0,1-1.25,0,1.19,1.19,0,0,1-.23-.78V84a1.89,1.89,0,0,1,.1-.7,1,1,0,0,1,.39-.45,1,1,0,0,1,.59-.18,1.08,1.08,0,0,1,.42.08,1,1,0,0,1,.31.22,2.13,2.13,0,0,1,.27.35Z" transform="translate(0 -0.23)"/><path class="cls-11" d="M186.2,83.74l3.53,5.34V83.69a1.2,1.2,0,0,1,.23-.79.77.77,0,0,1,.61-.26.79.79,0,0,1,.62.26,1.2,1.2,0,0,1,.23.79v7.13q0,1.2-1,1.2A1.57,1.57,0,0,1,190,92a1.33,1.33,0,0,1-.37-.23,2.27,2.27,0,0,1-.32-.36l-.3-.43-3.44-5.28V91a1.14,1.14,0,0,1-.24.78.86.86,0,0,1-1.25,0,1.19,1.19,0,0,1-.23-.78V84a1.89,1.89,0,0,1,.1-.7,1,1,0,0,1,.39-.45,1,1,0,0,1,.59-.18,1.08,1.08,0,0,1,.42.08,1,1,0,0,1,.31.22,2.13,2.13,0,0,1,.27.35Z" transform="translate(0 -0.23)"/><path class="cls-10" d="M205.17,90.84l-.43-1.14h-3.69l-.43,1.16a4.26,4.26,0,0,1-.43.92.69.69,0,0,1-.59.24.87.87,0,0,1-.61-.26.77.77,0,0,1-.27-.57,1.37,1.37,0,0,1,.06-.39c.05-.13.11-.31.21-.55l2.32-5.88c.06-.17.14-.38.24-.61a3,3,0,0,1,.29-.59,1.18,1.18,0,0,1,.42-.38,1.22,1.22,0,0,1,.63-.15,1.25,1.25,0,0,1,1.06.52,2.87,2.87,0,0,1,.26.49c.07.18.17.41.28.7l2.37,5.86a2.93,2.93,0,0,1,.27,1,.76.76,0,0,1-.26.57.85.85,0,0,1-.63.27.81.81,0,0,1-.37-.08.67.67,0,0,1-.26-.21,2.06,2.06,0,0,1-.23-.41Zm-3.63-2.52h2.71l-1.37-3.74Z" transform="translate(0 -0.23)"/><path class="cls-11" d="M205.17,90.84l-.43-1.14h-3.69l-.43,1.16a4.26,4.26,0,0,1-.43.92.69.69,0,0,1-.59.24.87.87,0,0,1-.61-.26.77.77,0,0,1-.27-.57,1.37,1.37,0,0,1,.06-.39c.05-.13.11-.31.21-.55l2.32-5.88c.06-.17.14-.38.24-.61a3,3,0,0,1,.29-.59,1.18,1.18,0,0,1,.42-.38,1.22,1.22,0,0,1,.63-.15,1.25,1.25,0,0,1,1.06.52,2.87,2.87,0,0,1,.26.49c.07.18.17.41.28.7l2.37,5.86a2.93,2.93,0,0,1,.27,1,.76.76,0,0,1-.26.57.85.85,0,0,1-.63.27.81.81,0,0,1-.37-.08.67.67,0,0,1-.26-.21,2.06,2.06,0,0,1-.23-.41Zm-3.63-2.52h2.71l-1.37-3.74Z" transform="translate(0 -0.23)"/><path class="cls-10" d="M213.74,91.86H211a1.13,1.13,0,0,1-.85-.27,1.2,1.2,0,0,1-.26-.85V83.92a1.19,1.19,0,0,1,.26-.86,1.16,1.16,0,0,1,.85-.27h2.94a6.15,6.15,0,0,1,1.13.09,2.32,2.32,0,0,1,.85.3,2.06,2.06,0,0,1,.57.49,2.13,2.13,0,0,1,.51,1.4,2.09,2.09,0,0,1-1.36,2,2.21,2.21,0,0,1,1.78,2.22,2.5,2.5,0,0,1-.38,1.37,2.45,2.45,0,0,1-1.06.9,4,4,0,0,1-.95.24A9.29,9.29,0,0,1,213.74,91.86Zm-2.05-7.69v2.35h1.68a3.27,3.27,0,0,0,1.06-.13,1,1,0,0,0,.57-.5,1,1,0,0,0,.16-.58.89.89,0,0,0-.49-.91,3.73,3.73,0,0,0-1.49-.23Zm1.91,3.67h-1.91v2.64h2c1.24,0,1.86-.44,1.86-1.34a1.08,1.08,0,0,0-.48-1A2.66,2.66,0,0,0,213.6,87.84Z" transform="translate(0 -0.23)"/><path class="cls-11" d="M213.74,91.86H211a1.13,1.13,0,0,1-.85-.27,1.2,1.2,0,0,1-.26-.85V83.92a1.19,1.19,0,0,1,.26-.86,1.16,1.16,0,0,1,.85-.27h2.94a6.15,6.15,0,0,1,1.13.09,2.32,2.32,0,0,1,.85.3,2.06,2.06,0,0,1,.57.49,2.13,2.13,0,0,1,.51,1.4,2.09,2.09,0,0,1-1.36,2,2.21,2.21,0,0,1,1.78,2.22,2.5,2.5,0,0,1-.38,1.37,2.45,2.45,0,0,1-1.06.9,4,4,0,0,1-.95.24A9.29,9.29,0,0,1,213.74,91.86Zm-2.05-7.69v2.35h1.68a3.27,3.27,0,0,0,1.06-.13,1,1,0,0,0,.57-.5,1,1,0,0,0,.16-.58.89.89,0,0,0-.49-.91,3.73,3.73,0,0,0-1.49-.23Zm1.91,3.67h-1.91v2.64h2c1.24,0,1.86-.44,1.86-1.34a1.08,1.08,0,0,0-.48-1A2.66,2.66,0,0,0,213.6,87.84Z" transform="translate(0 -0.23)"/><path class="cls-10" d="M224.35,82.64a4.84,4.84,0,0,1,2.42.57,3.77,3.77,0,0,1,1.53,1.63,5.49,5.49,0,0,1,.52,2.48,6.38,6.38,0,0,1-.28,1.91,4.16,4.16,0,0,1-.86,1.49,3.65,3.65,0,0,1-1.4,1,4.88,4.88,0,0,1-1.9.34,5,5,0,0,1-1.9-.35,3.8,3.8,0,0,1-1.4-1,4.06,4.06,0,0,1-.85-1.51,6.3,6.3,0,0,1,0-3.81,4.16,4.16,0,0,1,.87-1.49,3.66,3.66,0,0,1,1.38-.93A5,5,0,0,1,224.35,82.64ZM227,87.3a4.29,4.29,0,0,0-.32-1.72,2.43,2.43,0,0,0-.92-1.11,2.54,2.54,0,0,0-1.37-.37,2.45,2.45,0,0,0-1,.21,2.25,2.25,0,0,0-.8.6,2.76,2.76,0,0,0-.53,1,4.55,4.55,0,0,0-.2,1.38,4.64,4.64,0,0,0,.2,1.4,2.86,2.86,0,0,0,.55,1,2.17,2.17,0,0,0,.81.61,2.44,2.44,0,0,0,1,.21,2.56,2.56,0,0,0,1.3-.35,2.48,2.48,0,0,0,.94-1.09A4.28,4.28,0,0,0,227,87.3Z" transform="translate(0 -0.23)"/><path class="cls-11" d="M224.35,82.64a4.84,4.84,0,0,1,2.42.57,3.77,3.77,0,0,1,1.53,1.63,5.49,5.49,0,0,1,.52,2.48,6.38,6.38,0,0,1-.28,1.91,4.16,4.16,0,0,1-.86,1.49,3.65,3.65,0,0,1-1.4,1,4.88,4.88,0,0,1-1.9.34,5,5,0,0,1-1.9-.35,3.8,3.8,0,0,1-1.4-1,4.06,4.06,0,0,1-.85-1.51,6.3,6.3,0,0,1,0-3.81,4.16,4.16,0,0,1,.87-1.49,3.66,3.66,0,0,1,1.38-.93A5,5,0,0,1,224.35,82.64ZM227,87.3a4.29,4.29,0,0,0-.32-1.72,2.43,2.43,0,0,0-.92-1.11,2.54,2.54,0,0,0-1.37-.37,2.45,2.45,0,0,0-1,.21,2.25,2.25,0,0,0-.8.6,2.76,2.76,0,0,0-.53,1,4.55,4.55,0,0,0-.2,1.38,4.64,4.64,0,0,0,.2,1.4,2.86,2.86,0,0,0,.55,1,2.17,2.17,0,0,0,.81.61,2.44,2.44,0,0,0,1,.21,2.56,2.56,0,0,0,1.3-.35,2.48,2.48,0,0,0,.94-1.09A4.28,4.28,0,0,0,227,87.3Z" transform="translate(0 -0.23)"/><path class="cls-10" d="M231.79,88.11V83.75a1.18,1.18,0,0,1,.25-.83.83.83,0,0,1,.66-.28.87.87,0,0,1,.68.28,1.23,1.23,0,0,1,.25.83v4.46a3.86,3.86,0,0,0,.17,1.27,1.47,1.47,0,0,0,.6.8,2.28,2.28,0,0,0,1.21.28,1.8,1.8,0,0,0,1.52-.57,2.81,2.81,0,0,0,.45-1.74v-4.5a1.18,1.18,0,0,1,.25-.83.81.81,0,0,1,.66-.28.86.86,0,0,1,.67.28,1.18,1.18,0,0,1,.25.83v4.36a6.83,6.83,0,0,1-.2,1.78,2.75,2.75,0,0,1-.79,1.25,3.09,3.09,0,0,1-1.15.67,5,5,0,0,1-1.53.21,6.3,6.3,0,0,1-1.8-.23,2.86,2.86,0,0,1-1.23-.7,2.79,2.79,0,0,1-.7-1.21A6.11,6.11,0,0,1,231.79,88.11Z" transform="translate(0 -0.23)"/><path class="cls-11" d="M231.79,88.11V83.75a1.18,1.18,0,0,1,.25-.83.83.83,0,0,1,.66-.28.87.87,0,0,1,.68.28,1.23,1.23,0,0,1,.25.83v4.46a3.86,3.86,0,0,0,.17,1.27,1.47,1.47,0,0,0,.6.8,2.28,2.28,0,0,0,1.21.28,1.8,1.8,0,0,0,1.52-.57,2.81,2.81,0,0,0,.45-1.74v-4.5a1.18,1.18,0,0,1,.25-.83.81.81,0,0,1,.66-.28.86.86,0,0,1,.67.28,1.18,1.18,0,0,1,.25.83v4.36a6.83,6.83,0,0,1-.2,1.78,2.75,2.75,0,0,1-.79,1.25,3.09,3.09,0,0,1-1.15.67,5,5,0,0,1-1.53.21,6.3,6.3,0,0,1-1.8-.23,2.86,2.86,0,0,1-1.23-.7,2.79,2.79,0,0,1-.7-1.21A6.11,6.11,0,0,1,231.79,88.11Z" transform="translate(0 -0.23)"/><path class="cls-10" d="M248.68,84.31h-2V90.9a1.19,1.19,0,0,1-.25.84.92.92,0,0,1-1.32,0,1.22,1.22,0,0,1-.26-.84V84.31h-2a1,1,0,0,1-.7-.21.71.71,0,0,1-.23-.54.7.7,0,0,1,.24-.56,1,1,0,0,1,.69-.21h5.84a1,1,0,0,1,.71.22.72.72,0,0,1,.23.55.68.68,0,0,1-.24.54A1,1,0,0,1,248.68,84.31Z" transform="translate(0 -0.23)"/><path class="cls-11" d="M248.68,84.31h-2V90.9a1.19,1.19,0,0,1-.25.84.92.92,0,0,1-1.32,0,1.22,1.22,0,0,1-.26-.84V84.31h-2a1,1,0,0,1-.7-.21.71.71,0,0,1-.23-.54.7.7,0,0,1,.24-.56,1,1,0,0,1,.69-.21h5.84a1,1,0,0,1,.71.22.72.72,0,0,1,.23.55.68.68,0,0,1-.24.54A1,1,0,0,1,248.68,84.31Z" transform="translate(0 -0.23)"/></g></g></g></svg>