<svg xmlns="http://www.w3.org/2000/svg" xmlns:xlink="http://www.w3.org/1999/xlink" viewBox="0 0 249.83 127.94"><defs><style>.cls-1{fill:none;}.cls-2{fill:#ff993b;}.cls-3{clip-path:url(#clip-path);}.cls-4,.cls-7,.cls-8{fill:#f9943b;}.cls-4{opacity:0.6;}.cls-5{fill:#fb963b;}.cls-6{clip-path:url(#clip-path-2);}.cls-7{opacity:0.4;}.cls-8{opacity:0.76;}.cls-9{fill:#fa953b;}.cls-10{fill:#1d5888;}.cls-11{fill:#0b66a0;}</style><clipPath id="clip-path" transform="translate(0 -0.23)"><polyline class="cls-1" points="81.26 0 209.66 0 209.66 128.4 81.26 128.4 81.26 0"/></clipPath><clipPath id="clip-path-2" transform="translate(0 -0.23)"><polyline class="cls-1" points="107.42 0 235.82 0 235.82 128.4 107.42 128.4 107.42 0"/></clipPath></defs><g id="Layer_2" data-name="Layer 2"><g id="Layer_1-2" data-name="Layer 1"><polyline class="cls-2" points="119.25 0 55.34 63.91 119.38 127.94 119.35 101.77 81.5 63.91 119.28 26.12 119.25 0"/><g class="cls-3"><path class="cls-4" d="M119.33,75.82l0,26.18,26.18,26.17,0-26.17L119.33,75.82M145.4.23,119.28,26.36l0,26.12,26.13-26.12,0-26.13" transform="translate(0 -0.23)"/><polyline class="cls-5" points="119.28 26.12 81.5 63.91 119.35 101.77 119.33 75.59 107.64 63.91 119.3 52.25 119.28 26.12"/></g><g class="cls-6"><polyline class="cls-7" points="171.55 0 145.43 26.12 145.5 101.77 171.68 127.94 171.55 0"/><polyline class="cls-8" points="145.43 26.12 119.3 52.25 119.33 75.59 145.5 101.77 145.43 26.12"/><polyline class="cls-9" points="119.3 52.25 107.64 63.91 119.33 75.59 119.3 52.25"/></g><path class="cls-10" d="M19.48,53.47V68.4a28,28,0,0,1-.17,3.3,10.69,10.69,0,0,1-.74,2.76,7.43,7.43,0,0,1-3.21,3.66,10.54,10.54,0,0,1-5.44,1.31,11.28,11.28,0,0,1-4.83-.91,7.08,7.08,0,0,1-3.12-3,10.61,10.61,0,0,1-1-2.51,10.24,10.24,0,0,1-.39-2.7,2.71,2.71,0,0,1,.76-2.08,2.69,2.69,0,0,1,1.94-.72A2.2,2.2,0,0,1,5,68.22a4.55,4.55,0,0,1,.89,2.06,19,19,0,0,0,.66,2.39,3.65,3.65,0,0,0,1.11,1.54,3.45,3.45,0,0,0,2.22.64q3.82,0,3.83-5.62V53.47a3.87,3.87,0,0,1,.76-2.62A2.63,2.63,0,0,1,16.56,50a2.69,2.69,0,0,1,2.13.88A3.77,3.77,0,0,1,19.48,53.47Z" transform="translate(0 -0.23)"/><path class="cls-10" d="M19.48,53.47h-.57V68.4a26.69,26.69,0,0,1-.16,3.23A9.79,9.79,0,0,1,18,74.24h0a6.9,6.9,0,0,1-3,3.39,9.94,9.94,0,0,1-5.15,1.24A10.77,10.77,0,0,1,5.33,78a6.49,6.49,0,0,1-2.87-2.73h0a10.84,10.84,0,0,1-1.32-4.92,2.14,2.14,0,0,1,.58-1.67,2.12,2.12,0,0,1,1.55-.56,1.57,1.57,0,0,1,1.3.47,3.91,3.91,0,0,1,.77,1.8A19.59,19.59,0,0,0,6,72.87,4.15,4.15,0,0,0,7.3,74.64a3.91,3.91,0,0,0,2.58.78,3.82,3.82,0,0,0,3.34-1.66,8.06,8.06,0,0,0,1.06-4.53V53.47a3.31,3.31,0,0,1,.62-2.25,2.08,2.08,0,0,1,1.66-.68,2.15,2.15,0,0,1,1.71.69,3.27,3.27,0,0,1,.64,2.24h1.14a4.32,4.32,0,0,0-.94-3,3.28,3.28,0,0,0-2.55-1.07,3.2,3.2,0,0,0-2.51,1.07,4.43,4.43,0,0,0-.91,3V69.23a7,7,0,0,1-.86,3.89,2.65,2.65,0,0,1-2.4,1.16A2.89,2.89,0,0,1,8,73.77a3,3,0,0,1-.93-1.3,17.92,17.92,0,0,1-.64-2.31,5.25,5.25,0,0,0-1-2.32A2.81,2.81,0,0,0,3.27,67a3.28,3.28,0,0,0-2.33.88A3.27,3.27,0,0,0,0,70.36a10.84,10.84,0,0,0,.41,2.85,11.46,11.46,0,0,0,1.06,2.64h0A7.56,7.56,0,0,0,4.84,79a11.81,11.81,0,0,0,5.08,1,11.13,11.13,0,0,0,5.73-1.39,8.08,8.08,0,0,0,3.44-3.93h0a11.08,11.08,0,0,0,.79-2.91,29.37,29.37,0,0,0,.17-3.37V53.47Z" transform="translate(0 -0.23)"/><path class="cls-10" d="M47.38,70.4A8.42,8.42,0,0,1,46.05,75a8.85,8.85,0,0,1-3.9,3.23,14.56,14.56,0,0,1-6.08,1.16,13.73,13.73,0,0,1-7-1.59A9.16,9.16,0,0,1,26,74.78a7,7,0,0,1-1.21-3.72,2.53,2.53,0,0,1,2.58-2.55,2.24,2.24,0,0,1,1.55.58A4.67,4.67,0,0,1,30,70.82a11.48,11.48,0,0,0,1.17,2.28,4.65,4.65,0,0,0,1.78,1.5,6.49,6.49,0,0,0,3,.6A6.78,6.78,0,0,0,40.08,74a3.58,3.58,0,0,0,1.6-3,3.12,3.12,0,0,0-.86-2.3,5.69,5.69,0,0,0-2.24-1.36q-1.36-.47-3.66-1a27,27,0,0,1-5.14-1.68,8.19,8.19,0,0,1-3.28-2.62,6.83,6.83,0,0,1-1.22-4.13,7.13,7.13,0,0,1,1.28-4.18A8.16,8.16,0,0,1,30.28,51,15.23,15.23,0,0,1,36,50a14.27,14.27,0,0,1,4.54.65,9.68,9.68,0,0,1,3.17,1.73,7.18,7.18,0,0,1,1.85,2.27,5.19,5.19,0,0,1,.58,2.31,2.73,2.73,0,0,1-.72,1.85,2.32,2.32,0,0,1-1.82.83,2.06,2.06,0,0,1-1.51-.5A7,7,0,0,1,41,57.49,7.31,7.31,0,0,0,39.1,55a5.42,5.42,0,0,0-3.5-.91,6.06,6.06,0,0,0-3.6,1,2.84,2.84,0,0,0-1.37,2.36,2.39,2.39,0,0,0,.46,1.48A3.91,3.91,0,0,0,32.37,60a8.77,8.77,0,0,0,1.66.7c.55.17,1.47.41,2.76.74a43,43,0,0,1,4.36,1.24,13.71,13.71,0,0,1,3.32,1.65,6.75,6.75,0,0,1,2.14,2.46A7.91,7.91,0,0,1,47.38,70.4Z" transform="translate(0 -0.23)"/><path class="cls-10" d="M47.38,70.4h-.57a7.75,7.75,0,0,1-1.24,4.33,8.21,8.21,0,0,1-3.66,3,14,14,0,0,1-5.84,1.12,13.13,13.13,0,0,1-6.68-1.52h0a8.7,8.7,0,0,1-3-2.88,6.31,6.31,0,0,1-1.12-3.41,1.86,1.86,0,0,1,.56-1.4,1.92,1.92,0,0,1,1.45-.58,1.6,1.6,0,0,1,1.16.43A4.19,4.19,0,0,1,29.42,71h0a12,12,0,0,0,1.23,2.38,5.33,5.33,0,0,0,2,1.69,7.27,7.27,0,0,0,3.27.66,7.41,7.41,0,0,0,4.51-1.31A4.18,4.18,0,0,0,42.25,71a3.74,3.74,0,0,0-1-2.7,6.16,6.16,0,0,0-2.46-1.49c-1-.32-2.18-.66-3.72-1h0a26,26,0,0,1-5-1.64A7.71,7.71,0,0,1,27,61.73a6.26,6.26,0,0,1-1.1-3.79A6.46,6.46,0,0,1,27,54.09a7.45,7.45,0,0,1,3.46-2.61,14.64,14.64,0,0,1,5.5-.94,13.52,13.52,0,0,1,4.35.62,9.16,9.16,0,0,1,3,1.62A6.75,6.75,0,0,1,45,54.87a4.6,4.6,0,0,1,.53,2.06A2.18,2.18,0,0,1,45,58.41a1.75,1.75,0,0,1-1.39.63,1.55,1.55,0,0,1-1.11-.33h0a6.07,6.07,0,0,1-1-1.49l-.51.27.52-.25a7.94,7.94,0,0,0-2-2.7,6,6,0,0,0-3.86-1,6.66,6.66,0,0,0-3.94,1.09,4,4,0,0,0-1.18,1.26,3,3,0,0,0-.42,1.56,2.89,2.89,0,0,0,.58,1.82,4.43,4.43,0,0,0,1.46,1.23,9.55,9.55,0,0,0,1.76.74h0c.58.18,1.5.42,2.79.75h0A41.06,41.06,0,0,1,41,63.18a12.74,12.74,0,0,1,3.18,1.58,6.27,6.27,0,0,1,2,2.25,7.32,7.32,0,0,1,.7,3.39H48a8.48,8.48,0,0,0-.83-3.91,7.43,7.43,0,0,0-2.32-2.66,13.63,13.63,0,0,0-3.46-1.72,42.28,42.28,0,0,0-4.42-1.27l-.13.56.13-.55c-1.27-.33-2.19-.57-2.73-.73h0a8.21,8.21,0,0,1-1.54-.66,3.3,3.3,0,0,1-1.1-.91,1.83,1.83,0,0,1-.36-1.14,1.91,1.91,0,0,1,.27-1,3.06,3.06,0,0,1,.87-.91,5.53,5.53,0,0,1,3.27-.87,5,5,0,0,1,3.14.77,6.91,6.91,0,0,1,1.71,2.33h0a7,7,0,0,0,1.23,1.76h0a2.63,2.63,0,0,0,1.9.66,2.89,2.89,0,0,0,2.24-1,3.25,3.25,0,0,0,.87-2.23,5.84,5.84,0,0,0-.64-2.57,7.82,7.82,0,0,0-2-2.44,10.11,10.11,0,0,0-3.36-1.84A14.64,14.64,0,0,0,36,49.4a15.7,15.7,0,0,0-5.93,1,8.56,8.56,0,0,0-4,3,7.67,7.67,0,0,0-1.39,4.51A7.3,7.3,0,0,0,26,62.4a8.88,8.88,0,0,0,3.5,2.81,28.11,28.11,0,0,0,5.25,1.72h0a36,36,0,0,1,3.61,1,5,5,0,0,1,2,1.21A2.6,2.6,0,0,1,41.12,71a3,3,0,0,1-1.38,2.53,6.27,6.27,0,0,1-3.83,1.08,6,6,0,0,1-2.75-.53,4.16,4.16,0,0,1-1.57-1.32,11.15,11.15,0,0,1-1.12-2.17h0a5.09,5.09,0,0,0-1.22-1.94,2.77,2.77,0,0,0-1.93-.74,3.07,3.07,0,0,0-2.26.92,3,3,0,0,0-.89,2.2,7.52,7.52,0,0,0,1.3,4,9.92,9.92,0,0,0,3.35,3.25h0A14.25,14.25,0,0,0,36.07,80a15.36,15.36,0,0,0,6.32-1.21,9.47,9.47,0,0,0,4.13-3.44A8.93,8.93,0,0,0,48,70.4Z" transform="translate(0 -0.23)"/><path class="cls-10" d="M70.78,66.76h-2v9.16a3.81,3.81,0,0,1-.8,2.66,2.7,2.7,0,0,1-2.08.85,2.61,2.61,0,0,1-2.13-.89A3.94,3.94,0,0,1,63,75.92V54a3.74,3.74,0,0,1,.83-2.7,3.76,3.76,0,0,1,2.71-.83h9.38a28.74,28.74,0,0,1,3.33.16,8.44,8.44,0,0,1,2.48.67,7.3,7.3,0,0,1,3.94,4.05,8.08,8.08,0,0,1,.53,2.95,7.15,7.15,0,0,1-1.79,5.09,10.33,10.33,0,0,1-5.46,2.7,10.58,10.58,0,0,1,2.94,2.41,25.75,25.75,0,0,1,2.5,3.39,25.43,25.43,0,0,1,1.71,3.25,6.31,6.31,0,0,1,.61,2,2,2,0,0,1-.36,1.12,2.51,2.51,0,0,1-1,.87,3.05,3.05,0,0,1-1.44.32A2.82,2.82,0,0,1,82.29,79a4.5,4.5,0,0,1-1.14-1.16c-.32-.47-.75-1.15-1.29-2.06l-2.31-3.85a21.6,21.6,0,0,0-2.23-3.22,5.46,5.46,0,0,0-2-1.52A6.91,6.91,0,0,0,70.78,66.76Zm3.31-12H68.76v7.83h5.17a14.48,14.48,0,0,0,3.5-.36A4.11,4.11,0,0,0,79.6,61a3.57,3.57,0,0,0,.74-2.38,3.59,3.59,0,0,0-2.27-3.44A11.83,11.83,0,0,0,74.09,54.79Z" transform="translate(0 -0.23)"/><path class="cls-10" d="M70.78,66.76v-.57H68.19v9.73a3.25,3.25,0,0,1-.64,2.27,2.16,2.16,0,0,1-1.67.68,2.08,2.08,0,0,1-1.7-.7,3.38,3.38,0,0,1-.62-2.25V54a2.48,2.48,0,0,1,3-3h9.38a25.38,25.38,0,0,1,3.26.16,7.66,7.66,0,0,1,2.32.62h0a6.57,6.57,0,0,1,3.63,3.73,7.57,7.57,0,0,1,.5,2.74A6.54,6.54,0,0,1,84,63a9.77,9.77,0,0,1-5.16,2.54l-1.51.33,1.37.72a10,10,0,0,1,2.77,2.29,23.72,23.72,0,0,1,2.44,3.31,24.27,24.27,0,0,1,1.67,3.17A11,11,0,0,1,86,76.52a2.26,2.26,0,0,1,.13.6,1.5,1.5,0,0,1-.27.81,2,2,0,0,1-.76.68,2.64,2.64,0,0,1-1.18.26,2.29,2.29,0,0,1-1.31-.36,3.81,3.81,0,0,1-1-1c-.31-.45-.73-1.13-1.27-2L78,71.62l-.48.29.49-.29a22.4,22.4,0,0,0-2.29-3.31,6.22,6.22,0,0,0-2.21-1.67,7.36,7.36,0,0,0-2.76-.45v1.14a6.26,6.26,0,0,1,2.34.37,5,5,0,0,1,1.77,1.36,20.33,20.33,0,0,1,2.16,3.14h0l2.31,3.85c.55.92,1,1.61,1.31,2.09A5,5,0,0,0,82,79.45a3.41,3.41,0,0,0,2,.55,3.69,3.69,0,0,0,1.7-.38,3.18,3.18,0,0,0,1.2-1.07,2.68,2.68,0,0,0,.45-1.43,3.34,3.34,0,0,0-.18-.94,12.83,12.83,0,0,0-.48-1.27,25.28,25.28,0,0,0-1.75-3.32,24.77,24.77,0,0,0-2.55-3.47,11,11,0,0,0-3.1-2.54l-.27.5.13.56a10.94,10.94,0,0,0,5.74-2.87,7.67,7.67,0,0,0,2-5.48,8.75,8.75,0,0,0-.57-3.15,7.52,7.52,0,0,0-1.69-2.63,7.71,7.71,0,0,0-2.56-1.74l-.22.52.24-.52a8.9,8.9,0,0,0-2.66-.71,27.71,27.71,0,0,0-3.39-.17H66.53A3.57,3.57,0,0,0,62.42,54V75.92a4.54,4.54,0,0,0,.89,3A3.24,3.24,0,0,0,65.88,80a3.3,3.3,0,0,0,2.5-1,4.36,4.36,0,0,0,1-3V67.33h1.45Zm3.31-12v-.57h-5.9v9h5.74a14.79,14.79,0,0,0,3.64-.38A4.63,4.63,0,0,0,80,61.41a4.08,4.08,0,0,0,.88-2.75,4.18,4.18,0,0,0-2.62-4h0a6.68,6.68,0,0,0-1.66-.36c-.69-.07-1.54-.11-2.54-.11v1.14a23.18,23.18,0,0,1,2.42.1,5.62,5.62,0,0,1,1.34.28h0a3.12,3.12,0,0,1,1.42,1.14,3.24,3.24,0,0,1,.51,1.78,3,3,0,0,1-.61,2,3.58,3.58,0,0,1-1.88,1,13.69,13.69,0,0,1-3.36.34h-4.6V55.36h4.76Z" transform="translate(0 -0.23)"/><path class="cls-10" d="M110.42,54.91h-13v7h12a2.81,2.81,0,0,1,2,.6,2,2,0,0,1,.65,1.56,2.09,2.09,0,0,1-.64,1.59,2.83,2.83,0,0,1-2,.61h-12v8.1h13.45a3,3,0,0,1,2,.63,2.16,2.16,0,0,1,.69,1.68,2.13,2.13,0,0,1-.69,1.65,3,3,0,0,1-2,.63H95.18a3,3,0,0,1-3.53-3.54V54A4.92,4.92,0,0,1,92,52a2.34,2.34,0,0,1,1.16-1.14,4.89,4.89,0,0,1,2-.36h15.24a3,3,0,0,1,2,.61,2.27,2.27,0,0,1,0,3.22A3,3,0,0,1,110.42,54.91Z" transform="translate(0 -0.23)"/><path class="cls-10" d="M110.42,54.91v-.57H96.85v8.13h12.54a2.31,2.31,0,0,1,1.59.45,1.41,1.41,0,0,1,.46,1.14,1.48,1.48,0,0,1-.46,1.17,2.22,2.22,0,0,1-1.59.46H96.85v9.24h14a2.38,2.38,0,0,1,1.66.48h0a1.61,1.61,0,0,1,.51,1.26,1.57,1.57,0,0,1-.51,1.23,2.38,2.38,0,0,1-1.66.48H95.18a3.14,3.14,0,0,1-2.3-.67,3.17,3.17,0,0,1-.67-2.3V54a4.24,4.24,0,0,1,.32-1.79h0a1.74,1.74,0,0,1,.88-.87,4.21,4.21,0,0,1,1.77-.3h15.24a2.41,2.41,0,0,1,1.67.46,1.53,1.53,0,0,1,.48,1.18,1.56,1.56,0,0,1-.48,1.21,2.47,2.47,0,0,1-1.67.46v1.14a3.47,3.47,0,0,0,2.43-.77,2.83,2.83,0,0,0,0-4.06,3.51,3.51,0,0,0-2.43-.76H95.18a5.35,5.35,0,0,0-2.25.41,2.87,2.87,0,0,0-1.43,1.42h0A5.41,5.41,0,0,0,91.08,54V75.41a3.57,3.57,0,0,0,4.1,4.11h15.69a3.5,3.5,0,0,0,2.43-.78,2.73,2.73,0,0,0,.88-2.07,2.79,2.79,0,0,0-.88-2.1h0a3.5,3.5,0,0,0-2.43-.78H98v-7h11.4a3.31,3.31,0,0,0,2.37-.77,2.64,2.64,0,0,0,.82-2,2.58,2.58,0,0,0-.83-2,3.41,3.41,0,0,0-2.36-.74H98V55.48h12.43Z" transform="translate(0 -0.23)"/><path class="cls-10" d="M122.41,53.76l6.45,19.11,6.48-19.25c.33-1,.59-1.71.75-2.1a2.74,2.74,0,0,1,.84-1.07,2.43,2.43,0,0,1,1.59-.48,2.61,2.61,0,0,1,1.37.37,2.66,2.66,0,0,1,1,1,2.33,2.33,0,0,1,.36,1.24,3.9,3.9,0,0,1-.11.92c-.08.33-.18.65-.29,1s-.24.65-.35,1l-6.9,18.62c-.25.71-.5,1.39-.74,2a8.34,8.34,0,0,1-.86,1.69A3.73,3.73,0,0,1,130.7,79a3.88,3.88,0,0,1-2,.46,4,4,0,0,1-2-.45,3.81,3.81,0,0,1-1.31-1.21,9,9,0,0,1-.86-1.7c-.25-.63-.49-1.31-.74-2l-6.78-18.46q-.18-.51-.36-1a8,8,0,0,1-.31-1.05,4.25,4.25,0,0,1-.13-1,2.52,2.52,0,0,1,.8-1.8,2.66,2.66,0,0,1,2-.82,2.35,2.35,0,0,1,2.09.9A12.28,12.28,0,0,1,122.41,53.76Z" transform="translate(0 -0.23)"/><path class="cls-10" d="M122.41,53.76l-.54.18,7,20.71,7-20.84h0c.33-1,.58-1.7.74-2.06a2.25,2.25,0,0,1,.67-.85,1.88,1.88,0,0,1,1.23-.35,2.15,2.15,0,0,1,1.87,1.07,1.93,1.93,0,0,1,.29,1,3.55,3.55,0,0,1-.11.79,6.69,6.69,0,0,1-.27.9h0c-.12.32-.23.65-.35,1l.54.19-.54-.2-6.9,18.63h0c-.24.7-.49,1.37-.73,2a8.31,8.31,0,0,1-.8,1.58,3.28,3.28,0,0,1-1.1,1,3.35,3.35,0,0,1-1.69.39,3.3,3.3,0,0,1-1.69-.39,3.12,3.12,0,0,1-1.11-1,7.89,7.89,0,0,1-.81-1.59c-.24-.63-.49-1.3-.73-2h0L117.6,55.39l-.53.2.53-.19c-.11-.34-.24-.68-.36-1a7.44,7.44,0,0,1-.29-1,3.85,3.85,0,0,1-.11-.83,2,2,0,0,1,.63-1.41,2.15,2.15,0,0,1,1.6-.64,2.61,2.61,0,0,1,1,.18,1.32,1.32,0,0,1,.59.47,11.89,11.89,0,0,1,1.18,2.75h0l.54-.18.54-.17a12.55,12.55,0,0,0-1.32-3,2.51,2.51,0,0,0-1.07-.89,3.92,3.92,0,0,0-1.49-.27,3.3,3.3,0,0,0-2.41,1,3.14,3.14,0,0,0-1,2.2,5,5,0,0,0,.14,1.08,7.46,7.46,0,0,0,.34,1.13c.12.32.24.64.35,1h0l6.79,18.47.53-.2-.54.19q.38,1.08.75,2a9.3,9.3,0,0,0,.92,1.81,4.32,4.32,0,0,0,1.5,1.38,4.43,4.43,0,0,0,2.25.53,4.28,4.28,0,0,0,3.74-1.91,9.47,9.47,0,0,0,.91-1.8c.25-.65.5-1.34.74-2.05l-.53-.19.53.2L141,55.62h0l.35-1h0a9.54,9.54,0,0,0,.31-1,4.43,4.43,0,0,0,.13-1,2.94,2.94,0,0,0-.44-1.53,3.32,3.32,0,0,0-2.85-1.63,3,3,0,0,0-2,.61,3.32,3.32,0,0,0-1,1.28c-.18.43-.43,1.14-.77,2.15h0l-5.94,17.65L123,53.58l-.54.18.54-.17Z" transform="translate(0 -0.23)"/><path class="cls-10" d="M164.35,54.91h-13v7h12a2.86,2.86,0,0,1,2,.6,2,2,0,0,1,.65,1.56,2.13,2.13,0,0,1-.64,1.59,2.84,2.84,0,0,1-2,.61h-12v8.1H164.8a2.94,2.94,0,0,1,2,.63,2.16,2.16,0,0,1,.69,1.68,2.13,2.13,0,0,1-.69,1.65,2.94,2.94,0,0,1-2,.63H149.12a3,3,0,0,1-3.54-3.54V54a4.75,4.75,0,0,1,.37-2,2.26,2.26,0,0,1,1.16-1.14,4.82,4.82,0,0,1,2-.36h15.23a2.94,2.94,0,0,1,2.05.61,2.27,2.27,0,0,1,0,3.22A2.94,2.94,0,0,1,164.35,54.91Z" transform="translate(0 -0.23)"/><path class="cls-10" d="M164.35,54.91v-.57H150.78v8.13h12.54a2.3,2.3,0,0,1,1.59.45,1.42,1.42,0,0,1,.47,1.14,1.48,1.48,0,0,1-.47,1.17,2.21,2.21,0,0,1-1.59.46H150.78v9.24h14a2.41,2.41,0,0,1,1.67.48,1.6,1.6,0,0,1,.5,1.26,1.54,1.54,0,0,1-.5,1.23,2.41,2.41,0,0,1-1.67.48H149.12a2.48,2.48,0,0,1-3-3V54a4.43,4.43,0,0,1,.31-1.79,1.74,1.74,0,0,1,.88-.87,4.23,4.23,0,0,1,1.78-.3h15.23a2.38,2.38,0,0,1,1.67.46,1.5,1.5,0,0,1,.49,1.18,1.57,1.57,0,0,1-.49,1.21,2.43,2.43,0,0,1-1.67.46v1.14a3.49,3.49,0,0,0,2.44-.77,2.85,2.85,0,0,0,0-4.06,3.54,3.54,0,0,0-2.44-.76H149.12a5.35,5.35,0,0,0-2.25.41,2.89,2.89,0,0,0-1.44,1.42A5.41,5.41,0,0,0,145,54V75.41a4.29,4.29,0,0,0,1,3.1,4.23,4.23,0,0,0,3.12,1H164.8a3.49,3.49,0,0,0,2.43-.78,2.69,2.69,0,0,0,.88-2.07,2.72,2.72,0,0,0-.88-2.1,3.49,3.49,0,0,0-2.43-.78H151.92v-7h11.4a3.34,3.34,0,0,0,2.38-.77,2.72,2.72,0,0,0,.82-2,2.58,2.58,0,0,0-.84-2,3.4,3.4,0,0,0-2.36-.74h-11.4V55.48h12.43Z" transform="translate(0 -0.23)"/><path class="cls-10" d="M179.88,66.76h-2v9.16a3.76,3.76,0,0,1-.8,2.66,2.69,2.69,0,0,1-2.07.85,2.63,2.63,0,0,1-2.14-.89,3.94,3.94,0,0,1-.76-2.62V54a3.74,3.74,0,0,1,.83-2.7,3.76,3.76,0,0,1,2.71-.83H185a28.74,28.74,0,0,1,3.33.16,8.44,8.44,0,0,1,2.48.67,7.21,7.21,0,0,1,3.94,4.05,8.09,8.09,0,0,1,.54,2.95,7.11,7.11,0,0,1-1.8,5.09,10.34,10.34,0,0,1-5.45,2.7A10.69,10.69,0,0,1,191,68.49a24.88,24.88,0,0,1,2.5,3.39,25.43,25.43,0,0,1,1.71,3.25,6.31,6.31,0,0,1,.61,2,2,2,0,0,1-.36,1.12,2.51,2.51,0,0,1-1,.87,3,3,0,0,1-1.44.32,2.82,2.82,0,0,1-1.63-.45,4.5,4.5,0,0,1-1.14-1.16c-.32-.47-.75-1.15-1.29-2.06l-2.31-3.85a20.88,20.88,0,0,0-2.23-3.22,5.46,5.46,0,0,0-2-1.52A6.87,6.87,0,0,0,179.88,66.76Zm3.31-12h-5.33v7.83H183a14.48,14.48,0,0,0,3.5-.36A4.08,4.08,0,0,0,188.7,61a3.52,3.52,0,0,0,.74-2.38,3.59,3.59,0,0,0-2.27-3.44A11.83,11.83,0,0,0,183.19,54.79Z" transform="translate(0 -0.23)"/><path class="cls-10" d="M179.88,66.76v-.57h-2.59v9.73a3.25,3.25,0,0,1-.64,2.27,2.15,2.15,0,0,1-1.66.68,2.08,2.08,0,0,1-1.71-.7,3.44,3.44,0,0,1-.62-2.25V54a2.48,2.48,0,0,1,3-3H185a25.38,25.38,0,0,1,3.26.16,7.66,7.66,0,0,1,2.32.62h0a6.57,6.57,0,0,1,3.63,3.73h0a7.57,7.57,0,0,1,.5,2.74,6.54,6.54,0,0,1-1.65,4.7,9.77,9.77,0,0,1-5.15,2.54l-1.52.33,1.37.72a10,10,0,0,1,2.77,2.29A23.72,23.72,0,0,1,193,72.18a24.27,24.27,0,0,1,1.67,3.17,11,11,0,0,1,.44,1.17,2.26,2.26,0,0,1,.13.6,1.5,1.5,0,0,1-.27.81h0a2,2,0,0,1-.76.68,2.64,2.64,0,0,1-1.18.26,2.29,2.29,0,0,1-1.31-.36,3.81,3.81,0,0,1-1-1c-.31-.45-.73-1.13-1.27-2l-2.32-3.85h0a22.4,22.4,0,0,0-2.29-3.31,6.22,6.22,0,0,0-2.21-1.67,7.36,7.36,0,0,0-2.76-.45v1.14a6.22,6.22,0,0,1,2.34.37A5.08,5.08,0,0,1,184,69.06a21.84,21.84,0,0,1,2.16,3.14h0l2.31,3.85c.55.92,1,1.61,1.31,2.09a4.87,4.87,0,0,0,1.29,1.31,3.35,3.35,0,0,0,2,.55,3.69,3.69,0,0,0,1.7-.38,3.18,3.18,0,0,0,1.2-1.07h0a2.68,2.68,0,0,0,.45-1.43,3.34,3.34,0,0,0-.18-.94,12.83,12.83,0,0,0-.48-1.27A24.13,24.13,0,0,0,194,71.59a24.77,24.77,0,0,0-2.55-3.47,11,11,0,0,0-3.1-2.54l-.26.5.12.56a10.94,10.94,0,0,0,5.74-2.87,7.67,7.67,0,0,0,2-5.48,8.75,8.75,0,0,0-.57-3.15h0a7.52,7.52,0,0,0-1.69-2.63A7.71,7.71,0,0,0,191,50.77l-.22.52.24-.52a8.9,8.9,0,0,0-2.66-.71,27.6,27.6,0,0,0-3.39-.17h-9.38a3.57,3.57,0,0,0-4.11,4.1V75.92a4.54,4.54,0,0,0,.89,3A3.25,3.25,0,0,0,175,80a3.3,3.3,0,0,0,2.49-1,4.36,4.36,0,0,0,1-3V67.33h1.45Zm3.31-12v-.57h-5.9v9H183a14.79,14.79,0,0,0,3.64-.38,4.59,4.59,0,0,0,2.46-1.4,4.08,4.08,0,0,0,.88-2.75,4.14,4.14,0,0,0-2.62-4h0a6.57,6.57,0,0,0-1.66-.36c-.69-.07-1.54-.11-2.54-.11v1.14a23.18,23.18,0,0,1,2.42.1,5.62,5.62,0,0,1,1.34.28h0a3.12,3.12,0,0,1,1.42,1.14,3.16,3.16,0,0,1,.51,1.78,3,3,0,0,1-.61,2,3.54,3.54,0,0,1-1.88,1,13.63,13.63,0,0,1-3.36.34h-4.6V55.36h4.76Z" transform="translate(0 -0.23)"/><path class="cls-10" d="M222.4,70.4A8.42,8.42,0,0,1,221.07,75a8.85,8.85,0,0,1-3.9,3.23,14.56,14.56,0,0,1-6.08,1.16,13.71,13.71,0,0,1-7-1.59A9.16,9.16,0,0,1,201,74.78a7,7,0,0,1-1.21-3.72,2.51,2.51,0,0,1,2.58-2.55,2.21,2.21,0,0,1,1.54.58A4.43,4.43,0,0,1,205,70.82a12,12,0,0,0,1.18,2.28,4.65,4.65,0,0,0,1.78,1.5,6.49,6.49,0,0,0,3,.6A6.78,6.78,0,0,0,215.1,74a3.58,3.58,0,0,0,1.6-3,3.16,3.16,0,0,0-.86-2.3,5.69,5.69,0,0,0-2.24-1.36q-1.36-.47-3.66-1a27,27,0,0,1-5.14-1.68,8.29,8.29,0,0,1-3.29-2.62,6.82,6.82,0,0,1-1.21-4.13,7.13,7.13,0,0,1,1.28-4.18A8.13,8.13,0,0,1,205.29,51,15.32,15.32,0,0,1,211,50a14.27,14.27,0,0,1,4.54.65,9.68,9.68,0,0,1,3.17,1.73,7.18,7.18,0,0,1,1.85,2.27,5.19,5.19,0,0,1,.58,2.31,2.69,2.69,0,0,1-.73,1.85,2.28,2.28,0,0,1-1.81.83,2.06,2.06,0,0,1-1.51-.5A6.72,6.72,0,0,1,216,57.49,7.31,7.31,0,0,0,214.12,55a5.42,5.42,0,0,0-3.5-.91,6.12,6.12,0,0,0-3.61,1,2.87,2.87,0,0,0-1.37,2.36,2.4,2.4,0,0,0,.47,1.48A3.91,3.91,0,0,0,207.39,60a8.77,8.77,0,0,0,1.66.7c.55.17,1.47.41,2.75.74a42.51,42.51,0,0,1,4.37,1.24,13.71,13.71,0,0,1,3.32,1.65,6.75,6.75,0,0,1,2.14,2.46A7.91,7.91,0,0,1,222.4,70.4Z" transform="translate(0 -0.23)"/><path class="cls-10" d="M222.4,70.4h-.57a7.75,7.75,0,0,1-1.24,4.33,8.27,8.27,0,0,1-3.66,3,14,14,0,0,1-5.84,1.12,13.13,13.13,0,0,1-6.68-1.52h0a8.62,8.62,0,0,1-3-2.88,6.33,6.33,0,0,1-1.13-3.41,2,2,0,0,1,2-2,1.6,1.6,0,0,1,1.16.43,4.05,4.05,0,0,1,.93,1.52h0a12,12,0,0,0,1.23,2.38,5.33,5.33,0,0,0,2,1.69,7.27,7.27,0,0,0,3.27.66,7.41,7.41,0,0,0,4.51-1.31A4.18,4.18,0,0,0,217.27,71a3.7,3.7,0,0,0-1-2.7,6.06,6.06,0,0,0-2.45-1.49c-.95-.32-2.18-.66-3.72-1h0a26,26,0,0,1-5-1.64A7.71,7.71,0,0,1,202,61.73a6.26,6.26,0,0,1-1.1-3.79,6.46,6.46,0,0,1,1.18-3.85,7.45,7.45,0,0,1,3.46-2.61,14.61,14.61,0,0,1,5.5-.94,13.52,13.52,0,0,1,4.35.62,9,9,0,0,1,3,1.62,6.65,6.65,0,0,1,1.71,2.09,4.74,4.74,0,0,1,.53,2.06,2.23,2.23,0,0,1-.59,1.48,1.75,1.75,0,0,1-1.39.63,1.58,1.58,0,0,1-1.12-.33,6.1,6.1,0,0,1-1-1.49l-.51.27.52-.25a7.94,7.94,0,0,0-2-2.7,6,6,0,0,0-3.86-1,6.66,6.66,0,0,0-3.94,1.09,4.17,4.17,0,0,0-1.19,1.26,3,3,0,0,0-.41,1.56,2.89,2.89,0,0,0,.58,1.82,4.43,4.43,0,0,0,1.46,1.23,9.55,9.55,0,0,0,1.76.74c.58.18,1.5.42,2.79.75h0a41.06,41.06,0,0,1,4.3,1.23,12.74,12.74,0,0,1,3.18,1.58,6.15,6.15,0,0,1,2,2.25,7.32,7.32,0,0,1,.71,3.39H223a8.36,8.36,0,0,0-.84-3.91,7.31,7.31,0,0,0-2.31-2.66,13.8,13.8,0,0,0-3.46-1.72,41.8,41.8,0,0,0-4.43-1.27l-.13.56.14-.55c-1.27-.33-2.19-.57-2.73-.73a8.21,8.21,0,0,1-1.54-.66,3.3,3.3,0,0,1-1.1-.91,1.77,1.77,0,0,1-.36-1.14,1.91,1.91,0,0,1,.27-1,3.14,3.14,0,0,1,.86-.91,5.58,5.58,0,0,1,3.28-.87,4.94,4.94,0,0,1,3.13.77,6.8,6.8,0,0,1,1.72,2.33h0a7,7,0,0,0,1.23,1.76,2.63,2.63,0,0,0,1.9.66,2.89,2.89,0,0,0,2.24-1,3.25,3.25,0,0,0,.87-2.23,5.84,5.84,0,0,0-.64-2.57,7.82,7.82,0,0,0-2-2.44,10.11,10.11,0,0,0-3.36-1.84A14.68,14.68,0,0,0,211,49.4a15.7,15.7,0,0,0-5.93,1,8.56,8.56,0,0,0-4,3,7.67,7.67,0,0,0-1.39,4.51,7.36,7.36,0,0,0,1.32,4.46,8.91,8.91,0,0,0,3.51,2.81,27.86,27.86,0,0,0,5.25,1.72h0a36,36,0,0,1,3.61,1,5.17,5.17,0,0,1,2,1.21,2.55,2.55,0,0,1,.7,1.91,3,3,0,0,1-1.37,2.53,6.27,6.27,0,0,1-3.83,1.08,6,6,0,0,1-2.75-.53,4.16,4.16,0,0,1-1.57-1.32,11.15,11.15,0,0,1-1.12-2.17h0a5.09,5.09,0,0,0-1.22-1.94,2.77,2.77,0,0,0-1.93-.74,3.09,3.09,0,0,0-3.15,3.12,7.52,7.52,0,0,0,1.3,4,9.83,9.83,0,0,0,3.35,3.25h0A14.22,14.22,0,0,0,211.09,80a15.28,15.28,0,0,0,6.31-1.21,9.5,9.5,0,0,0,4.14-3.44A8.93,8.93,0,0,0,223,70.4Z" transform="translate(0 -0.23)"/><path class="cls-10" d="M246.07,54.91h-13v7h12a2.81,2.81,0,0,1,2,.6,2,2,0,0,1,.65,1.56,2.09,2.09,0,0,1-.64,1.59,2.83,2.83,0,0,1-2,.61h-12v8.1h13.45a3,3,0,0,1,2,.63,2.16,2.16,0,0,1,.69,1.68,2.13,2.13,0,0,1-.69,1.65,3,3,0,0,1-2,.63H230.83a3,3,0,0,1-3.53-3.54V54a4.92,4.92,0,0,1,.36-2,2.34,2.34,0,0,1,1.16-1.14,4.89,4.89,0,0,1,2-.36h15.24a3,3,0,0,1,2.05.61,2.27,2.27,0,0,1,0,3.22A3,3,0,0,1,246.07,54.91Z" transform="translate(0 -0.23)"/><path class="cls-10" d="M246.07,54.91v-.57H232.5v8.13H245a2.31,2.31,0,0,1,1.59.45,1.41,1.41,0,0,1,.46,1.14,1.48,1.48,0,0,1-.46,1.17,2.24,2.24,0,0,1-1.59.46H232.5v9.24h14a2.38,2.38,0,0,1,1.66.48,1.61,1.61,0,0,1,.51,1.26,1.57,1.57,0,0,1-.51,1.23,2.38,2.38,0,0,1-1.66.48H230.83a3.14,3.14,0,0,1-2.3-.67,3.17,3.17,0,0,1-.67-2.3V54a4.24,4.24,0,0,1,.32-1.79,1.74,1.74,0,0,1,.88-.87,4.21,4.21,0,0,1,1.77-.3h15.24a2.41,2.41,0,0,1,1.67.46,1.53,1.53,0,0,1,.48,1.18,1.56,1.56,0,0,1-.48,1.21,2.47,2.47,0,0,1-1.67.46v1.14a3.47,3.47,0,0,0,2.43-.77,2.83,2.83,0,0,0,0-4.06,3.51,3.51,0,0,0-2.43-.76H230.83a5.27,5.27,0,0,0-2.24.41,2.85,2.85,0,0,0-1.44,1.42,5.41,5.41,0,0,0-.42,2.27V75.41a3.57,3.57,0,0,0,4.1,4.11h15.69a3.5,3.5,0,0,0,2.43-.78,2.73,2.73,0,0,0,.88-2.07,2.79,2.79,0,0,0-.88-2.1,3.5,3.5,0,0,0-2.43-.78H233.64v-7H245a3.33,3.33,0,0,0,2.37-.77,2.64,2.64,0,0,0,.82-2,2.55,2.55,0,0,0-.84-2,3.37,3.37,0,0,0-2.35-.74h-11.4V55.48h12.43Z" transform="translate(0 -0.23)"/><path class="cls-11" d="M57.21,90.84l-.43-1.14H53.09l-.43,1.16a4.26,4.26,0,0,1-.43.92.69.69,0,0,1-.59.24.87.87,0,0,1-.61-.26.77.77,0,0,1-.27-.57,1.37,1.37,0,0,1,.06-.39c0-.13.11-.31.21-.55l2.32-5.88c.06-.17.14-.38.24-.61a3,3,0,0,1,.29-.59,1.18,1.18,0,0,1,.42-.38,1.22,1.22,0,0,1,.63-.15,1.25,1.25,0,0,1,1.06.52,2.87,2.87,0,0,1,.26.49c.07.18.17.41.28.7l2.37,5.86a2.93,2.93,0,0,1,.27,1,.76.76,0,0,1-.26.57.83.83,0,0,1-.63.27.81.81,0,0,1-.37-.08.67.67,0,0,1-.26-.21,2.06,2.06,0,0,1-.23-.41Zm-3.63-2.52h2.71l-1.37-3.74Z" transform="translate(0 -0.23)"/><path class="cls-11" d="M57.21,90.84l.17-.07-.47-1.25H53l-.48,1.28a3.75,3.75,0,0,1-.41.87.52.52,0,0,1-.44.17.73.73,0,0,1-.49-.21.65.65,0,0,1-.21-.44,1,1,0,0,1,.06-.33,5,5,0,0,1,.2-.54h0l2.32-5.89c.06-.17.14-.37.24-.61a2.56,2.56,0,0,1,.27-.55,1,1,0,0,1,.36-.33,1.14,1.14,0,0,1,.54-.12,1.15,1.15,0,0,1,.55.12,1.12,1.12,0,0,1,.36.32,2.55,2.55,0,0,1,.25.46c.07.17.16.41.27.7h0l2.37,5.85h0a2.72,2.72,0,0,1,.26.91.64.64,0,0,1-.21.45.71.71,0,0,1-.5.21.7.7,0,0,1-.29-.06l-.2-.16a1.49,1.49,0,0,1-.2-.37l-.21-.48-.17.07.17-.07-.17.07-.16.07c.06.14.12.3.21.48a1.67,1.67,0,0,0,.25.45.82.82,0,0,0,.32.26.93.93,0,0,0,.45.1,1,1,0,0,0,.76-.32,1,1,0,0,0,.32-.7,3.19,3.19,0,0,0-.3-1l-.16.07.16-.07L56.7,84.29l-.17.06.17-.06c-.12-.29-.21-.53-.28-.71a3.25,3.25,0,0,0-.28-.52,1.52,1.52,0,0,0-.48-.43,1.63,1.63,0,0,0-1.45,0,1.33,1.33,0,0,0-.48.43,3.36,3.36,0,0,0-.31.63c-.09.24-.17.44-.24.61l-2.32,5.89h0l-.21.56a1.68,1.68,0,0,0-.07.44,1,1,0,0,0,.32.7,1.07,1.07,0,0,0,.74.31.88.88,0,0,0,.73-.31,3.83,3.83,0,0,0,.46-1l.39-1h3.44l.39,1h0Zm-3.63-2.52v.18h3L54.92,84l-1.6,4.46h.26v-.18l.17.06,1.17-3.27,1.11,3H53.58v.18l.17.06Z" transform="translate(0 -0.23)"/><path class="cls-11" d="M74.19,89a2.47,2.47,0,0,1-.21.94,3.47,3.47,0,0,1-.68,1,3.27,3.27,0,0,1-1.16.79,4.1,4.1,0,0,1-1.66.31,5.91,5.91,0,0,1-1.31-.14,3.67,3.67,0,0,1-1.06-.42,3.49,3.49,0,0,1-.88-.76,4.28,4.28,0,0,1-.62-1,5.09,5.09,0,0,1-.38-1.12,6.62,6.62,0,0,1-.12-1.28,5.72,5.72,0,0,1,.31-2,4.22,4.22,0,0,1,.92-1.48A4,4,0,0,1,68.73,83a4.59,4.59,0,0,1,1.7-.32,4.28,4.28,0,0,1,2,.44,3.52,3.52,0,0,1,1.32,1.09,2.14,2.14,0,0,1,.45,1.22.77.77,0,0,1-.22.55.81.81,0,0,1-1.06.08,2.45,2.45,0,0,1-.4-.58,2.87,2.87,0,0,0-.84-1,2.09,2.09,0,0,0-1.2-.33,2.18,2.18,0,0,0-1.8.86A3.87,3.87,0,0,0,68,87.4a4.69,4.69,0,0,0,.29,1.76,2.2,2.2,0,0,0,.85,1,2.3,2.3,0,0,0,1.27.35,2.19,2.19,0,0,0,1.34-.4A2.33,2.33,0,0,0,72.54,89a1.85,1.85,0,0,1,.3-.58.65.65,0,0,1,.55-.23.77.77,0,0,1,.56.23A.75.75,0,0,1,74.19,89Z" transform="translate(0 -0.23)"/><path class="cls-11" d="M74.19,89H74a2.35,2.35,0,0,1-.2.87,3,3,0,0,1-.64.93,3.28,3.28,0,0,1-1.11.75,4,4,0,0,1-1.58.29,5.49,5.49,0,0,1-1.27-.14,3.33,3.33,0,0,1-1-.4,3.5,3.5,0,0,1-.84-.72h0a4,4,0,0,1-.58-.91,4.52,4.52,0,0,1-.37-1.09,6.14,6.14,0,0,1-.12-1.24,5.61,5.61,0,0,1,.3-1.9A4.2,4.2,0,0,1,67.47,84a3.89,3.89,0,0,1,1.33-.89,4.22,4.22,0,0,1,1.63-.31,4.07,4.07,0,0,1,1.88.42,3.43,3.43,0,0,1,1.25,1A2,2,0,0,1,74,85.39a.6.6,0,0,1-.17.43.51.51,0,0,1-.41.18.62.62,0,0,1-.4-.11,2.44,2.44,0,0,1-.36-.53,2.93,2.93,0,0,0-.9-1.07,2.23,2.23,0,0,0-1.3-.37,2.33,2.33,0,0,0-1.94.93,4,4,0,0,0-.71,2.55,4.7,4.7,0,0,0,.31,1.83A2.36,2.36,0,0,0,69,90.36a2.49,2.49,0,0,0,1.37.38,2.36,2.36,0,0,0,1.44-.43,2.47,2.47,0,0,0,.89-1.24h0a1.63,1.63,0,0,1,.26-.53.45.45,0,0,1,.41-.16.6.6,0,0,1,.44.18A.57.57,0,0,1,74,89h.36a1,1,0,0,0-.29-.7,1,1,0,0,0-.69-.28.84.84,0,0,0-.7.3,2.32,2.32,0,0,0-.32.63l.17.06L72.37,89A2.17,2.17,0,0,1,71.61,90a2.08,2.08,0,0,1-1.23.36,2.15,2.15,0,0,1-1.18-.32,2.06,2.06,0,0,1-.77-1,4.48,4.48,0,0,1-.28-1.69,3.74,3.74,0,0,1,.63-2.33,2,2,0,0,1,1.66-.79,1.88,1.88,0,0,1,1.1.3,2.73,2.73,0,0,1,.78,1,2.63,2.63,0,0,0,.43.62,1,1,0,0,0,1.33-.08,1,1,0,0,0,.27-.68,2.32,2.32,0,0,0-.5-1.33,3.59,3.59,0,0,0-1.38-1.14,4.38,4.38,0,0,0-2-.46,4.76,4.76,0,0,0-1.77.33,4.37,4.37,0,0,0-1.45,1,4.32,4.32,0,0,0-1,1.55,5.82,5.82,0,0,0-.33,2,6.12,6.12,0,0,0,.14,1.31,4.9,4.9,0,0,0,1,2.17h0a4,4,0,0,0,.92.79,4.11,4.11,0,0,0,1.12.45,6.29,6.29,0,0,0,1.35.14,4.45,4.45,0,0,0,1.73-.32,3.75,3.75,0,0,0,1.23-.83,3.66,3.66,0,0,0,.7-1,2.62,2.62,0,0,0,.23-1Z" transform="translate(0 -0.23)"/><path class="cls-11" d="M81.21,82.64a4.84,4.84,0,0,1,2.42.57,3.73,3.73,0,0,1,1.54,1.63,5.63,5.63,0,0,1,.52,2.48,6.07,6.07,0,0,1-.29,1.91,4.14,4.14,0,0,1-.85,1.49,3.73,3.73,0,0,1-1.4,1,5.4,5.4,0,0,1-3.8,0,3.84,3.84,0,0,1-1.41-1,4.21,4.21,0,0,1-.85-1.51,6.1,6.1,0,0,1-.29-1.9,5.84,5.84,0,0,1,.3-1.91A4.16,4.16,0,0,1,78,83.9,3.62,3.62,0,0,1,79.36,83,4.88,4.88,0,0,1,81.21,82.64Zm2.61,4.66a4.13,4.13,0,0,0-.32-1.72,2.37,2.37,0,0,0-.92-1.11,2.49,2.49,0,0,0-1.37-.37,2.44,2.44,0,0,0-1,.21,2.29,2.29,0,0,0-.81.6,2.92,2.92,0,0,0-.53,1,4.56,4.56,0,0,0-.19,1.38,4.65,4.65,0,0,0,.19,1.4,2.86,2.86,0,0,0,.55,1,2.29,2.29,0,0,0,.82.61,2.37,2.37,0,0,0,1,.21,2.5,2.5,0,0,0,1.29-.35,2.42,2.42,0,0,0,.94-1.09A4.13,4.13,0,0,0,83.82,87.3Z" transform="translate(0 -0.23)"/><path class="cls-11" d="M81.21,82.64v.18a4.74,4.74,0,0,1,2.34.55A3.51,3.51,0,0,1,85,84.92a5.25,5.25,0,0,1,.5,2.4,5.94,5.94,0,0,1-.27,1.85,4,4,0,0,1-.82,1.43,3.47,3.47,0,0,1-1.33.91,4.71,4.71,0,0,1-1.83.33,5,5,0,0,1-1.84-.33,3.55,3.55,0,0,1-1.33-.93,3.94,3.94,0,0,1-.82-1.43A6.08,6.08,0,0,1,77,87.3a5.7,5.7,0,0,1,.29-1.85A4,4,0,0,1,78.1,84a3.69,3.69,0,0,1,1.32-.9,5,5,0,0,1,1.79-.31v-.36a5.09,5.09,0,0,0-1.92.34,3.84,3.84,0,0,0-1.45,1,4.35,4.35,0,0,0-.91,1.55,6.48,6.48,0,0,0,0,3.93,4.26,4.26,0,0,0,.89,1.57,4,4,0,0,0,1.47,1,5.12,5.12,0,0,0,2,.36,5.32,5.32,0,0,0,2-.35,4,4,0,0,0,1.46-1,4.16,4.16,0,0,0,.89-1.56,6.11,6.11,0,0,0,.3-2,5.74,5.74,0,0,0-.54-2.56,3.91,3.91,0,0,0-1.61-1.71,5.09,5.09,0,0,0-2.51-.59Zm2.61,4.66H84a4.5,4.5,0,0,0-.33-1.79,2.6,2.6,0,0,0-1-1.19,2.7,2.7,0,0,0-1.47-.4,2.66,2.66,0,0,0-1.09.22,2.61,2.61,0,0,0-.87.65,3.07,3.07,0,0,0-.56,1.08,4.62,4.62,0,0,0-.21,1.43,4.81,4.81,0,0,0,.21,1.46,3.12,3.12,0,0,0,.58,1.1,2.51,2.51,0,0,0,2,.88,2.69,2.69,0,0,0,1.39-.38,2.65,2.65,0,0,0,1-1.17A4.34,4.34,0,0,0,84,87.3h-.36A4,4,0,0,1,83.31,89a2.21,2.21,0,0,1-2.07,1.34,2.35,2.35,0,0,1-.94-.19,2.14,2.14,0,0,1-.75-.57,2.71,2.71,0,0,1-.52-1,4.69,4.69,0,0,1-.18-1.35A4.48,4.48,0,0,1,79,86a2.66,2.66,0,0,1,.5-1,2,2,0,0,1,.74-.56,2.43,2.43,0,0,1,.94-.19,2.36,2.36,0,0,1,1.28.35,2.28,2.28,0,0,1,.85,1,4.12,4.12,0,0,1,.3,1.65Z" transform="translate(0 -0.23)"/><path class="cls-11" d="M91.7,90.5l-1.45-5.78V91a1.19,1.19,0,0,1-.23.78.81.81,0,0,1-.62.26.76.76,0,0,1-.6-.26,1.1,1.1,0,0,1-.24-.78V83.8a.9.9,0,0,1,.31-.8,1.49,1.49,0,0,1,.84-.21h.56a2.16,2.16,0,0,1,.75.1.61.61,0,0,1,.34.33,4.78,4.78,0,0,1,.26.79l1.31,5,1.32-5a4.78,4.78,0,0,1,.26-.79.58.58,0,0,1,.34-.33,2.13,2.13,0,0,1,.74-.1h.57A1.49,1.49,0,0,1,97,83a.92.92,0,0,1,.31.8V91a1.14,1.14,0,0,1-.24.78.85.85,0,0,1-1.22,0,1.19,1.19,0,0,1-.23-.78V84.72L94.16,90.5c-.09.37-.17.65-.23.82a1.1,1.1,0,0,1-.33.48,1,1,0,0,1-.67.22,1,1,0,0,1-.54-.14,1,1,0,0,1-.35-.36,2.09,2.09,0,0,1-.19-.48Q91.78,90.79,91.7,90.5Z" transform="translate(0 -0.23)"/><path class="cls-11" d="M91.7,90.5l.18,0-1.81-7.19V91a.94.94,0,0,1-.19.66.63.63,0,0,1-.48.2.66.66,0,0,1-.47-.2,1,1,0,0,1-.19-.66V83.8c0-.37.1-.56.23-.65a1.35,1.35,0,0,1,.74-.17h.56a1.72,1.72,0,0,1,.68.08.4.4,0,0,1,.25.24,5.61,5.61,0,0,1,.24.75l1.49,5.63,1.5-5.63a4.43,4.43,0,0,1,.24-.75.4.4,0,0,1,.25-.24,1.69,1.69,0,0,1,.67-.08h.57a1.35,1.35,0,0,1,.74.17c.13.09.22.28.23.65V91a1,1,0,0,1-.19.66h0a.65.65,0,0,1-.49.2.62.62,0,0,1-.46-.2A.94.94,0,0,1,95.8,91V83.26L94,90.45a8,8,0,0,1-.23.81,1,1,0,0,1-.28.41.88.88,0,0,1-.55.17.72.72,0,0,1-.44-.12.74.74,0,0,1-.29-.29A2.41,2.41,0,0,1,92,91c0-.18-.09-.36-.14-.55h0l-.18,0-.17,0c0,.19.1.37.14.55a2.71,2.71,0,0,0,.22.52,1.26,1.26,0,0,0,1.83.33,1.37,1.37,0,0,0,.38-.56c.07-.19.14-.46.24-.84l1.1-4.36V91a1.3,1.3,0,0,0,.28.9,1,1,0,0,0,.73.32,1,1,0,0,0,.76-.32h0a1.3,1.3,0,0,0,.28-.9V83.8a1.07,1.07,0,0,0-.39-1,1.7,1.7,0,0,0-.94-.24h-.57a2.46,2.46,0,0,0-.81.11.81.81,0,0,0-.44.43,4.85,4.85,0,0,0-.26.81l-1.15,4.31L91.79,84a4.85,4.85,0,0,0-.26-.81.84.84,0,0,0-.44-.43,2.49,2.49,0,0,0-.82-.11h-.56a1.7,1.7,0,0,0-.94.24,1.07,1.07,0,0,0-.39,1V91a1.3,1.3,0,0,0,.28.9,1,1,0,0,0,1.49,0,1.3,1.3,0,0,0,.28-.9v-4.8l1.1,4.36h0Z" transform="translate(0 -0.23)"/><path class="cls-11" d="M104.1,88.33h-1.68V90.9a1.21,1.21,0,0,1-.26.83.92.92,0,0,1-1.33,0,1.21,1.21,0,0,1-.25-.83v-7a1.15,1.15,0,0,1,.28-.87,1.27,1.27,0,0,1,.88-.26h2.36a6.07,6.07,0,0,1,1.61.17,2.34,2.34,0,0,1,1,.51,2.29,2.29,0,0,1,.61.88,3.05,3.05,0,0,1,.21,1.17,2.59,2.59,0,0,1-.85,2.1A3.92,3.92,0,0,1,104.1,88.33Zm-.45-4.16h-1.23V87h1.23a3.7,3.7,0,0,0,1.09-.14,1.23,1.23,0,0,0,.66-.45,1.32,1.32,0,0,0,.23-.81,1.37,1.37,0,0,0-.35-1A2.36,2.36,0,0,0,103.65,84.17Z" transform="translate(0 -0.23)"/><path class="cls-11" d="M104.1,88.33v-.18h-1.87V90.9a1,1,0,0,1-.21.71.7.7,0,0,1-.52.23.68.68,0,0,1-.53-.23,1,1,0,0,1-.21-.7v-7a1,1,0,0,1,.22-.73,1.08,1.08,0,0,1,.76-.21h2.36a6.12,6.12,0,0,1,1.56.15h0a2.31,2.31,0,0,1,.89.47,2.14,2.14,0,0,1,.56.82,2.7,2.7,0,0,1,.2,1.1,2.4,2.4,0,0,1-.79,2,3.68,3.68,0,0,1-2.42.67v.36a4,4,0,0,0,2.66-.76,2.73,2.73,0,0,0,.91-2.23,3.26,3.26,0,0,0-.22-1.24,2.54,2.54,0,0,0-.66-1,2.67,2.67,0,0,0-1-.55h0a6.6,6.6,0,0,0-1.66-.17h-2.36a1.44,1.44,0,0,0-1,.31,1.32,1.32,0,0,0-.33,1v7a1.39,1.39,0,0,0,.3,1,1.06,1.06,0,0,0,.8.34,1,1,0,0,0,.79-.35,1.38,1.38,0,0,0,.31-.95V88.51h1.5Zm-.45-4.16V84h-1.42v3.14h1.42a3.75,3.75,0,0,0,1.14-.15,1.47,1.47,0,0,0,.76-.51h0a1.51,1.51,0,0,0,.26-.92,1.57,1.57,0,0,0-.4-1.1h0a2.55,2.55,0,0,0-1.76-.46v.37a2.21,2.21,0,0,1,1.5.34l.13-.12-.13.12a1.38,1.38,0,0,1,.11,1.56h0a1.14,1.14,0,0,1-.58.38,3.63,3.63,0,0,1-1,.12H102.6v-2.4h1.05Z" transform="translate(0 -0.23)"/><path class="cls-11" d="M112.22,83.75v6.6h3.72a1,1,0,0,1,.68.22.7.7,0,0,1,.24.54.69.69,0,0,1-.24.55,1,1,0,0,1-.68.2H111.5a1.21,1.21,0,0,1-.86-.26,1.23,1.23,0,0,1-.26-.86v-7a1.18,1.18,0,0,1,.25-.83.83.83,0,0,1,.66-.28.86.86,0,0,1,.67.28A1.18,1.18,0,0,1,112.22,83.75Z" transform="translate(0 -0.23)"/><path class="cls-11" d="M112.22,83.75H112v6.78h3.91a.81.81,0,0,1,.56.17.54.54,0,0,1,.18.41.5.5,0,0,1-.18.41.81.81,0,0,1-.56.16H111.5a1,1,0,0,1-.73-.21,1,1,0,0,1-.21-.73v-7a1.07,1.07,0,0,1,.2-.71.67.67,0,0,1,.53-.22.69.69,0,0,1,.54.22,1,1,0,0,1,.2.71h.37a1.39,1.39,0,0,0-.31-1,1.06,1.06,0,0,0-.8-.33,1,1,0,0,0-.8.34,1.42,1.42,0,0,0-.29,1v7a1.36,1.36,0,0,0,.31,1,1.35,1.35,0,0,0,1,.32h4.44a1.15,1.15,0,0,0,.8-.25.91.91,0,0,0,0-1.35,1.13,1.13,0,0,0-.8-.27H112.4V83.75Z" transform="translate(0 -0.23)"/><path class="cls-11" d="M125.43,84.21h-4.14v2.23h3.81a.9.9,0,0,1,.63.19.63.63,0,0,1,.21.5.66.66,0,0,1-.21.5.88.88,0,0,1-.63.19h-3.81V90.4h4.28a.94.94,0,0,1,.65.2.7.7,0,0,1,.22.54.66.66,0,0,1-.22.52.94.94,0,0,1-.65.2h-5a1.19,1.19,0,0,1-.86-.26,1.18,1.18,0,0,1-.27-.86V83.92a1.54,1.54,0,0,1,.12-.65.76.76,0,0,1,.37-.36,1.49,1.49,0,0,1,.64-.12h4.85a.94.94,0,0,1,.65.2.66.66,0,0,1,.21.51.69.69,0,0,1-.21.52A.94.94,0,0,1,125.43,84.21Z" transform="translate(0 -0.23)"/><path class="cls-11" d="M125.43,84.21V84h-4.32v2.59h4a.76.76,0,0,1,.51.14.45.45,0,0,1,.14.37.48.48,0,0,1-.14.37.76.76,0,0,1-.51.14h-4v2.94h4.46a.73.73,0,0,1,.53.16.48.48,0,0,1,.16.4.48.48,0,0,1-.16.39.78.78,0,0,1-.53.15h-5a1,1,0,0,1-.73-.21,1,1,0,0,1-.21-.73V83.92a1.24,1.24,0,0,1,.1-.57.57.57,0,0,1,.27-.28,1.48,1.48,0,0,1,.57-.09h4.85a.82.82,0,0,1,.53.14.49.49,0,0,1,.15.38.46.46,0,0,1-.15.38.76.76,0,0,1-.53.15v.36a1.11,1.11,0,0,0,.77-.24.83.83,0,0,0,.28-.65.85.85,0,0,0-.28-.64,1.07,1.07,0,0,0-.77-.25h-4.85a1.6,1.6,0,0,0-.72.14.86.86,0,0,0-.45.45,1.6,1.6,0,0,0-.14.72v6.82a1.32,1.32,0,0,0,.32,1,1.35,1.35,0,0,0,1,.32h5a1.11,1.11,0,0,0,.78-.25.83.83,0,0,0,.27-.65.87.87,0,0,0-.27-.67,1.11,1.11,0,0,0-.78-.25h-4.1V88h3.63a1.05,1.05,0,0,0,.76-.24.86.86,0,0,0,.26-.63.84.84,0,0,0-.27-.64,1.07,1.07,0,0,0-.75-.23h-3.63V84.39h4Z" transform="translate(0 -0.23)"/><path class="cls-11" d="M135.18,84.31h-2V90.9a1.19,1.19,0,0,1-.25.84.87.87,0,0,1-.65.28.88.88,0,0,1-.67-.28,1.22,1.22,0,0,1-.26-.84V84.31h-2a1,1,0,0,1-.7-.21.71.71,0,0,1-.23-.54.7.7,0,0,1,.24-.56,1,1,0,0,1,.69-.21h5.84a1,1,0,0,1,.71.22.72.72,0,0,1,.23.55.68.68,0,0,1-.24.54A1,1,0,0,1,135.18,84.31Z" transform="translate(0 -0.23)"/><path class="cls-11" d="M135.18,84.31v-.18H133V90.9a1.09,1.09,0,0,1-.2.72.73.73,0,0,1-.52.22.74.74,0,0,1-.54-.22,1.14,1.14,0,0,1-.21-.72V84.13h-2.18a.89.89,0,0,1-.58-.16.57.57,0,0,1-.17-.41.52.52,0,0,1,.18-.42.83.83,0,0,1,.57-.16h5.84a.87.87,0,0,1,.59.16.54.54,0,0,1,.17.42.51.51,0,0,1-.18.41.87.87,0,0,1-.58.16v.36a1.18,1.18,0,0,0,.82-.25.88.88,0,0,0,.3-.68.91.91,0,0,0-.29-.69,1.22,1.22,0,0,0-.83-.26h-5.84a1.24,1.24,0,0,0-.81.25.89.89,0,0,0-.3.7.91.91,0,0,0,.29.68,1.18,1.18,0,0,0,.82.25h1.82V90.9a1.34,1.34,0,0,0,.31,1,1.06,1.06,0,0,0,.8.34,1,1,0,0,0,.78-.34,1.34,1.34,0,0,0,.31-1V84.49h1.82Z" transform="translate(0 -0.23)"/><path class="cls-11" d="M144.57,84.21h-4.14v2.23h3.81a.9.9,0,0,1,.63.19.63.63,0,0,1,.21.5.66.66,0,0,1-.21.5.86.86,0,0,1-.63.19h-3.81V90.4h4.28a1,1,0,0,1,.66.2.73.73,0,0,1,.21.54.69.69,0,0,1-.21.52,1,1,0,0,1-.66.2h-5a1.19,1.19,0,0,1-.86-.26,1.18,1.18,0,0,1-.26-.86V83.92a1.55,1.55,0,0,1,.11-.65.76.76,0,0,1,.37-.36,1.49,1.49,0,0,1,.64-.12h4.85a.94.94,0,0,1,.65.2.64.64,0,0,1,.22.51.66.66,0,0,1-.22.52A.94.94,0,0,1,144.57,84.21Z" transform="translate(0 -0.23)"/><path class="cls-11" d="M144.57,84.21V84h-4.32v2.59h4a.76.76,0,0,1,.51.14.49.49,0,0,1,.15.37.52.52,0,0,1-.15.37.76.76,0,0,1-.51.14h-4v2.94h4.46a.71.71,0,0,1,.53.16.48.48,0,0,1,.16.4.48.48,0,0,1-.16.39.76.76,0,0,1-.53.15h-5a1,1,0,0,1-.73-.21,1,1,0,0,1-.21-.73V83.92a1.24,1.24,0,0,1,.1-.57.59.59,0,0,1,.28-.28,1.39,1.39,0,0,1,.56-.09h4.85a.8.8,0,0,1,.53.14.49.49,0,0,1,.15.38.46.46,0,0,1-.15.38.74.74,0,0,1-.53.15v.36a1.11,1.11,0,0,0,.77-.24.83.83,0,0,0,.28-.65.81.81,0,0,0-.28-.64,1.07,1.07,0,0,0-.77-.25h-4.85a1.55,1.55,0,0,0-.71.14.85.85,0,0,0-.46.45,1.92,1.92,0,0,0-.14.72v6.82a1.41,1.41,0,0,0,.32,1,1.35,1.35,0,0,0,1,.32h5a1.1,1.1,0,0,0,.78-.25.87.87,0,0,0,.28-.65.91.91,0,0,0-.28-.67,1.1,1.1,0,0,0-.78-.25h-4.1V88h3.63a1.05,1.05,0,0,0,.76-.24.86.86,0,0,0,.26-.63.84.84,0,0,0-.27-.64,1.06,1.06,0,0,0-.75-.23h-3.63V84.39h4Z" transform="translate(0 -0.23)"/><path class="cls-11" d="M158.88,84.31h-2V90.9a1.19,1.19,0,0,1-.26.84A.85.85,0,0,1,156,92a.9.9,0,0,1-.67-.28,1.22,1.22,0,0,1-.25-.84V84.31h-2a1,1,0,0,1-.7-.21.71.71,0,0,1-.23-.54.7.7,0,0,1,.24-.56,1,1,0,0,1,.69-.21h5.84a1,1,0,0,1,.71.22.76.76,0,0,1,0,1.09A1.06,1.06,0,0,1,158.88,84.31Z" transform="translate(0 -0.23)"/><path class="cls-11" d="M158.88,84.31v-.18H156.7V90.9a1,1,0,0,1-.21.72.74.74,0,0,1-1.05,0,1,1,0,0,1-.21-.72V84.13H153a.89.89,0,0,1-.58-.16.53.53,0,0,1-.16-.41.49.49,0,0,1,.17-.42A.84.84,0,0,1,153,83h5.84a.87.87,0,0,1,.59.16.54.54,0,0,1,.17.42.53.53,0,0,1-.17.41.87.87,0,0,1-.59.16v.36a1.23,1.23,0,0,0,.83-.25,1,1,0,0,0,0-1.37,1.22,1.22,0,0,0-.83-.26H153a1.26,1.26,0,0,0-.81.25.89.89,0,0,0-.3.7.91.91,0,0,0,.29.68,1.18,1.18,0,0,0,.82.25h1.83V90.9a1.34,1.34,0,0,0,.3,1,1.07,1.07,0,0,0,.8.34,1,1,0,0,0,.79-.34,1.38,1.38,0,0,0,.3-1V84.49h1.82Z" transform="translate(0 -0.23)"/><path class="cls-11" d="M162.31,88.11V83.75a1.18,1.18,0,0,1,.25-.83.84.84,0,0,1,.66-.28.87.87,0,0,1,.68.28,1.23,1.23,0,0,1,.25.83v4.46a3.86,3.86,0,0,0,.17,1.27,1.47,1.47,0,0,0,.6.8,2.28,2.28,0,0,0,1.21.28,1.8,1.8,0,0,0,1.52-.57,2.81,2.81,0,0,0,.45-1.74v-4.5a1.18,1.18,0,0,1,.25-.83.81.81,0,0,1,.66-.28.86.86,0,0,1,.67.28,1.18,1.18,0,0,1,.26.83v4.36a6.38,6.38,0,0,1-.21,1.78,2.81,2.81,0,0,1-.78,1.25,3.17,3.17,0,0,1-1.15.67,5.08,5.08,0,0,1-1.54.21,6.4,6.4,0,0,1-1.8-.23,2.86,2.86,0,0,1-1.23-.7,2.79,2.79,0,0,1-.7-1.21A6.11,6.11,0,0,1,162.31,88.11Z" transform="translate(0 -0.23)"/><path class="cls-11" d="M162.31,88.11h.18V83.75a1,1,0,0,1,.21-.71.63.63,0,0,1,.52-.22.69.69,0,0,1,.54.22,1,1,0,0,1,.21.71v4.46a4.3,4.3,0,0,0,.17,1.33,1.69,1.69,0,0,0,.68.89,2.42,2.42,0,0,0,1.31.31,2,2,0,0,0,1.67-.64,3,3,0,0,0,.48-1.85v-4.5a1,1,0,0,1,.2-.71.64.64,0,0,1,.53-.22.67.67,0,0,1,.54.22,1,1,0,0,1,.2.71v4.36a6,6,0,0,1-.2,1.73,2.44,2.44,0,0,1-.73,1.17,2.91,2.91,0,0,1-1.08.62,4.63,4.63,0,0,1-1.48.21,6.32,6.32,0,0,1-1.75-.22,2.64,2.64,0,0,1-1.15-.66,2.61,2.61,0,0,1-.65-1.13,5.71,5.71,0,0,1-.22-1.72h-.36a6.15,6.15,0,0,0,.23,1.82,2.94,2.94,0,0,0,.74,1.29,3,3,0,0,0,1.31.74,6.39,6.39,0,0,0,1.85.24,5.14,5.14,0,0,0,1.59-.22,3.32,3.32,0,0,0,1.22-.71,2.81,2.81,0,0,0,.83-1.33,6.41,6.41,0,0,0,.22-1.83V83.75a1.34,1.34,0,0,0-.31-1,1.06,1.06,0,0,0-.8-.33,1,1,0,0,0-.8.33,1.45,1.45,0,0,0-.29,1v4.5a2.63,2.63,0,0,1-.41,1.62,1.62,1.62,0,0,1-1.38.51,1.93,1.93,0,0,1-1.11-.26,1.23,1.23,0,0,1-.53-.69,3.8,3.8,0,0,1-.16-1.22V83.75a1.37,1.37,0,0,0-.3-1,1,1,0,0,0-.81-.34,1,1,0,0,0-.79.34,1.37,1.37,0,0,0-.3,1v4.36Z" transform="translate(0 -0.23)"/><path class="cls-11" d="M175.78,88h-.64V90.9a1.23,1.23,0,0,1-.26.85.87.87,0,0,1-.66.27.85.85,0,0,1-.68-.29,1.26,1.26,0,0,1-.24-.83v-7a1.21,1.21,0,0,1,.26-.86,1.18,1.18,0,0,1,.86-.27h3a8,8,0,0,1,1.06.06,2.42,2.42,0,0,1,.79.21,2.31,2.31,0,0,1,.76.51,2.45,2.45,0,0,1,.49.78,2.49,2.49,0,0,1,.17.94,2.29,2.29,0,0,1-.57,1.62,3.32,3.32,0,0,1-1.73.86,3.4,3.4,0,0,1,.93.77,7.64,7.64,0,0,1,.8,1.07,8.78,8.78,0,0,1,.54,1,2,2,0,0,1,.19.63.63.63,0,0,1-.11.36.93.93,0,0,1-.31.28,1.11,1.11,0,0,1-.46.1.86.86,0,0,1-.52-.15,1.41,1.41,0,0,1-.36-.37c-.1-.14-.24-.36-.41-.65l-.74-1.23a6,6,0,0,0-.71-1,1.8,1.8,0,0,0-.63-.49A2.33,2.33,0,0,0,175.78,88Zm1.05-3.81h-1.69v2.5h1.64a4.38,4.38,0,0,0,1.11-.12,1.2,1.2,0,0,0,.69-.39,1.09,1.09,0,0,0,.24-.75,1.15,1.15,0,0,0-.19-.67,1.19,1.19,0,0,0-.53-.43A3.86,3.86,0,0,0,176.83,84.17Z" transform="translate(0 -0.23)"/><path class="cls-11" d="M175.78,88V87.8H175v3.1a1,1,0,0,1-.2.72.74.74,0,0,1-.53.22.7.7,0,0,1-.54-.22,1.13,1.13,0,0,1-.2-.72v-7a1,1,0,0,1,.21-.73,1,1,0,0,1,.73-.21h3a7.76,7.76,0,0,1,1,0,2.44,2.44,0,0,1,.74.2h0a2.16,2.16,0,0,1,.7.47,2,2,0,0,1,.45.72,2.28,2.28,0,0,1,.16.87,2,2,0,0,1-.52,1.49,3.09,3.09,0,0,1-1.64.81l-.48.11.43.23a3.17,3.17,0,0,1,.88.72,8,8,0,0,1,.78,1.06,6.66,6.66,0,0,1,.53,1,1.71,1.71,0,0,1,.18.56.48.48,0,0,1-.08.26.58.58,0,0,1-.25.21.7.7,0,0,1-.37.09.68.68,0,0,1-.42-.12,1.18,1.18,0,0,1-.31-.32c-.1-.14-.23-.36-.41-.65l-.73-1.22-.16.09.16-.09a7.37,7.37,0,0,0-.73-1,1.89,1.89,0,0,0-.7-.53,2.35,2.35,0,0,0-.88-.15v.37a2.1,2.1,0,0,1,.74.11,1.75,1.75,0,0,1,.57.44,7.07,7.07,0,0,1,.68,1h0l.73,1.22c.18.29.31.51.42.67a1.6,1.6,0,0,0,.41.41,1.08,1.08,0,0,0,.62.18,1.19,1.19,0,0,0,.54-.12,1,1,0,0,0,.38-.34.9.9,0,0,0,.15-.46,2.25,2.25,0,0,0-.21-.7,8.57,8.57,0,0,0-.56-1.06,8,8,0,0,0-.81-1.1,3.34,3.34,0,0,0-1-.81l-.08.16,0,.17a3.41,3.41,0,0,0,1.83-.91,2.38,2.38,0,0,0,.62-1.74,2.77,2.77,0,0,0-.18-1,2.33,2.33,0,0,0-.54-.84,2.4,2.4,0,0,0-.81-.56l-.07.17.08-.16a2.88,2.88,0,0,0-.85-.23,8.32,8.32,0,0,0-1.08-.06h-3a1.36,1.36,0,0,0-1,.32,1.35,1.35,0,0,0-.32,1v7a1.43,1.43,0,0,0,.28.95,1.06,1.06,0,0,0,.82.35,1,1,0,0,0,.79-.33,1.35,1.35,0,0,0,.31-1V88.17h.46Zm1.05-3.81V84H175v2.86h1.83a4.87,4.87,0,0,0,1.16-.12,1.45,1.45,0,0,0,.78-.45,1.3,1.3,0,0,0,.28-.87,1.34,1.34,0,0,0-.22-.77,1.42,1.42,0,0,0-.61-.5h0a4.17,4.17,0,0,0-1.34-.15v.37a3.59,3.59,0,0,1,1.2.12h0a1,1,0,0,1,.61.93.93.93,0,0,1-.19.63,1.12,1.12,0,0,1-.6.34,4.51,4.51,0,0,1-1.07.11h-1.46V84.36h1.51Z" transform="translate(0 -0.23)"/><path class="cls-11" d="M186.2,83.74l3.53,5.34V83.69a1.2,1.2,0,0,1,.23-.79.77.77,0,0,1,.61-.26.79.79,0,0,1,.62.26,1.2,1.2,0,0,1,.23.79v7.13q0,1.2-1,1.2A1.57,1.57,0,0,1,190,92a1.33,1.33,0,0,1-.37-.23,2.27,2.27,0,0,1-.32-.36l-.3-.43-3.44-5.28V91a1.14,1.14,0,0,1-.24.78.86.86,0,0,1-1.25,0,1.19,1.19,0,0,1-.23-.78V84a1.89,1.89,0,0,1,.1-.7,1,1,0,0,1,.39-.45,1,1,0,0,1,.59-.18,1.08,1.08,0,0,1,.42.08,1,1,0,0,1,.31.22,2.13,2.13,0,0,1,.27.35Z" transform="translate(0 -0.23)"/><path class="cls-11" d="M186.2,83.74l-.15.1,3.86,5.85v-6a1,1,0,0,1,.18-.67.68.68,0,0,1,1,0,1,1,0,0,1,.19.67v7.13a1.17,1.17,0,0,1-.21.78.73.73,0,0,1-.6.24,1.32,1.32,0,0,1-.38-.06,1.18,1.18,0,0,1-.32-.19h0a1.9,1.9,0,0,1-.29-.33h0l-.3-.42-.15.1.16-.09L185.37,85V91a.94.94,0,0,1-.2.66.67.67,0,0,1-1,0A1,1,0,0,1,184,91V84a1.65,1.65,0,0,1,.09-.63l-.17-.07.17.07a.76.76,0,0,1,.32-.37.86.86,0,0,1,.49-.15.87.87,0,0,1,.35.07h0a.78.78,0,0,1,.26.17,2,2,0,0,1,.25.33l.29.45h0l.15-.1.15-.1-.29-.45a2,2,0,0,0-.29-.38,1.23,1.23,0,0,0-.36-.25h0a1.1,1.1,0,0,0-.49-.1,1.22,1.22,0,0,0-.69.21,1.13,1.13,0,0,0-.46.53h0a2.07,2.07,0,0,0-.11.76v7a1.33,1.33,0,0,0,.28.9,1,1,0,0,0,1.51,0,1.3,1.3,0,0,0,.29-.9V86.26L188.84,91h0l.29.42h0a3.46,3.46,0,0,0,.35.4h0a1.41,1.41,0,0,0,.43.27,1.7,1.7,0,0,0,.51.08,1.09,1.09,0,0,0,.88-.37,1.56,1.56,0,0,0,.29-1V83.69a1.39,1.39,0,0,0-.27-.91,1,1,0,0,0-.76-.32.94.94,0,0,0-.75.33,1.34,1.34,0,0,0-.27.9v4.79l-3.2-4.84-.15.1.15-.1Z" transform="translate(0 -0.23)"/><path class="cls-11" d="M205.17,90.84l-.43-1.14h-3.69l-.43,1.16a4.26,4.26,0,0,1-.43.92.69.69,0,0,1-.59.24.87.87,0,0,1-.61-.26.77.77,0,0,1-.27-.57,1.37,1.37,0,0,1,.06-.39c.05-.13.11-.31.21-.55l2.32-5.88c.06-.17.14-.38.24-.61a3,3,0,0,1,.29-.59,1.18,1.18,0,0,1,.42-.38,1.22,1.22,0,0,1,.63-.15,1.25,1.25,0,0,1,1.06.52,2.87,2.87,0,0,1,.26.49c.07.18.17.41.28.7l2.37,5.86a2.93,2.93,0,0,1,.27,1,.76.76,0,0,1-.26.57.85.85,0,0,1-.63.27.81.81,0,0,1-.37-.08.67.67,0,0,1-.26-.21,2.06,2.06,0,0,1-.23-.41Zm-3.63-2.52h2.71l-1.37-3.74Z" transform="translate(0 -0.23)"/><path class="cls-11" d="M205.17,90.84l.17-.07-.47-1.25h-3.94l-.48,1.28a3.75,3.75,0,0,1-.41.87h0a.52.52,0,0,1-.44.17.73.73,0,0,1-.49-.21.57.57,0,0,1-.21-.44,1,1,0,0,1,.06-.33h0c0-.12.1-.31.2-.54l2.32-5.89h0c.06-.17.14-.37.23-.61a3.09,3.09,0,0,1,.28-.55,1,1,0,0,1,.36-.33,1.14,1.14,0,0,1,.54-.12,1.21,1.21,0,0,1,.55.12,1.12,1.12,0,0,1,.36.32,2.51,2.51,0,0,1,.24.46c.08.17.17.41.28.7h0l2.37,5.85h0a2.72,2.72,0,0,1,.26.91.64.64,0,0,1-.21.45.71.71,0,0,1-.5.21.7.7,0,0,1-.29-.06l-.2-.16h0a1.49,1.49,0,0,1-.2-.37l-.21-.48-.17.07.17-.07-.17.07-.16.06c.05.15.12.31.2.49a2.5,2.5,0,0,0,.25.45h0a1,1,0,0,0,.78.36,1.05,1.05,0,0,0,.76-.32.94.94,0,0,0,.31-.7,2.89,2.89,0,0,0-.29-1l-.16.07.16-.07-2.37-5.85-.16.06.17-.06c-.12-.29-.21-.53-.28-.71a2.65,2.65,0,0,0-.29-.52,1.39,1.39,0,0,0-.47-.43,1.43,1.43,0,0,0-.73-.17,1.4,1.4,0,0,0-.72.17,1.27,1.27,0,0,0-.48.44,3,3,0,0,0-.31.62c-.1.24-.18.44-.24.61h0l-2.32,5.89h0c-.1.23-.16.42-.21.56h0a1.35,1.35,0,0,0-.07.44,1,1,0,0,0,.32.7,1.05,1.05,0,0,0,.74.31.89.89,0,0,0,.73-.31h0a4.21,4.21,0,0,0,.46-1l.39-1h3.44l.38,1h0Zm-3.63-2.52v.18h3L202.88,84l-1.6,4.46h.26v-.18l.17.06,1.17-3.27,1.11,3h-2.45v.18l.17.06Z" transform="translate(0 -0.23)"/><path class="cls-11" d="M213.74,91.86H211a1.14,1.14,0,0,1-.86-.27,1.2,1.2,0,0,1-.26-.85V83.92a1.19,1.19,0,0,1,.26-.86,1.17,1.17,0,0,1,.86-.27h2.93a6.15,6.15,0,0,1,1.13.09,2.32,2.32,0,0,1,.85.3,2.06,2.06,0,0,1,.57.49,2.13,2.13,0,0,1,.51,1.4,2.09,2.09,0,0,1-1.36,2,2.21,2.21,0,0,1,1.78,2.22,2.5,2.5,0,0,1-.38,1.37,2.45,2.45,0,0,1-1.06.9,4,4,0,0,1-.95.24A9.29,9.29,0,0,1,213.74,91.86Zm-2.05-7.69v2.35h1.68a3.27,3.27,0,0,0,1.06-.13,1,1,0,0,0,.57-.5,1,1,0,0,0,.16-.58.89.89,0,0,0-.49-.91,3.73,3.73,0,0,0-1.49-.23Zm1.91,3.67h-1.91v2.64h2c1.24,0,1.86-.44,1.86-1.34a1.08,1.08,0,0,0-.48-1A2.66,2.66,0,0,0,213.6,87.84Z" transform="translate(0 -0.23)"/><path class="cls-11" d="M213.74,91.86v-.18H211a.78.78,0,0,1-.94-.94V83.92a1,1,0,0,1,.21-.73A1,1,0,0,1,211,83h2.93a7,7,0,0,1,1.1.07,2.19,2.19,0,0,1,.79.29,2,2,0,0,1,.52.45,2,2,0,0,1,.35.59,2,2,0,0,1,.12.69,1.92,1.92,0,0,1-1.26,1.83l-.42.19.44.14a2.62,2.62,0,0,1,1.26.78,2,2,0,0,1,.4,1.27,2.32,2.32,0,0,1-.36,1.27,2.12,2.12,0,0,1-1,.83l.07.17-.07-.17a3.29,3.29,0,0,1-.9.23,8.88,8.88,0,0,1-1.23.07V92A9.77,9.77,0,0,0,215,92a3.59,3.59,0,0,0,1-.26h0a2.47,2.47,0,0,0,1.13-1,2.65,2.65,0,0,0,.42-1.46,2.29,2.29,0,0,0-.49-1.49,2.92,2.92,0,0,0-1.43-.9l-.05.17.07.17a2.27,2.27,0,0,0,1.47-2.16,2.46,2.46,0,0,0-.14-.81,2.53,2.53,0,0,0-.41-.71A2.38,2.38,0,0,0,216,83a2.31,2.31,0,0,0-.91-.33,6.59,6.59,0,0,0-1.16-.09H211a1.14,1.14,0,0,0-1.3,1.31v6.82a1.38,1.38,0,0,0,.31,1,1.32,1.32,0,0,0,1,.32h2.77Zm-2.05-7.69h-.18V86.7h1.86a3.43,3.43,0,0,0,1.12-.14,1.19,1.19,0,0,0,.67-.58l-.16-.09.16.1a1.3,1.3,0,0,0,.18-.68,1.08,1.08,0,0,0-.59-1.07,3.86,3.86,0,0,0-1.57-.25h-1.67v.18h.18v.19h1.49a3.47,3.47,0,0,1,1.41.2c.26.13.38.33.39.75a1,1,0,0,1-.13.49h0a.82.82,0,0,1-.47.41,3.41,3.41,0,0,1-1,.12h-1.5V84.17h-.18v0Zm1.91,3.67v-.19h-2.09v3h2.15a2.53,2.53,0,0,0,1.5-.37,1.31,1.31,0,0,0,.54-1.15,1.26,1.26,0,0,0-.56-1.15,3,3,0,0,0-1.54-.34V88a2.5,2.5,0,0,1,1.34.28.88.88,0,0,1,.4.84A1,1,0,0,1,215,90a2.22,2.22,0,0,1-1.29.3h-1.79V88h1.73Z" transform="translate(0 -0.23)"/><path class="cls-11" d="M224.35,82.64a4.84,4.84,0,0,1,2.42.57,3.77,3.77,0,0,1,1.53,1.63,5.49,5.49,0,0,1,.52,2.48,6.38,6.38,0,0,1-.28,1.91,4.16,4.16,0,0,1-.86,1.49,3.65,3.65,0,0,1-1.4,1,4.88,4.88,0,0,1-1.9.34,5,5,0,0,1-1.9-.35,3.8,3.8,0,0,1-1.4-1,4.06,4.06,0,0,1-.85-1.51,6.3,6.3,0,0,1,0-3.81,4.16,4.16,0,0,1,.87-1.49,3.66,3.66,0,0,1,1.38-.93A5,5,0,0,1,224.35,82.64ZM227,87.3a4.29,4.29,0,0,0-.32-1.72,2.43,2.43,0,0,0-.92-1.11,2.54,2.54,0,0,0-1.37-.37,2.45,2.45,0,0,0-1,.21,2.25,2.25,0,0,0-.8.6,2.76,2.76,0,0,0-.53,1,4.55,4.55,0,0,0-.2,1.38,4.64,4.64,0,0,0,.2,1.4,2.86,2.86,0,0,0,.55,1,2.17,2.17,0,0,0,.81.61,2.44,2.44,0,0,0,1,.21,2.56,2.56,0,0,0,1.3-.35,2.48,2.48,0,0,0,.94-1.09A4.28,4.28,0,0,0,227,87.3Z" transform="translate(0 -0.23)"/><path class="cls-11" d="M224.35,82.64v.18a4.7,4.7,0,0,1,2.33.55,3.53,3.53,0,0,1,1.46,1.55,5.38,5.38,0,0,1,.5,2.4,5.66,5.66,0,0,1-.28,1.85,4,4,0,0,1-.81,1.43,3.47,3.47,0,0,1-1.33.91,4.76,4.76,0,0,1-1.84.33,5,5,0,0,1-1.83-.33,3.59,3.59,0,0,1-1.34-.93,3.79,3.79,0,0,1-.81-1.43,5.79,5.79,0,0,1-.28-1.85,5.7,5.7,0,0,1,.29-1.85,3.84,3.84,0,0,1,.83-1.42,3.61,3.61,0,0,1,1.32-.9,4.93,4.93,0,0,1,1.79-.31v-.36a5.09,5.09,0,0,0-1.92.34,3.88,3.88,0,0,0-1.46,1,4.33,4.33,0,0,0-.9,1.55,5.94,5.94,0,0,0-.31,2,6.54,6.54,0,0,0,.29,2,4.4,4.4,0,0,0,.89,1.57,4.15,4.15,0,0,0,1.47,1,5.2,5.2,0,0,0,2,.36,5.28,5.28,0,0,0,2-.35,3.91,3.91,0,0,0,1.47-1,4.45,4.45,0,0,0,.89-1.56,6.4,6.4,0,0,0,.29-2,5.74,5.74,0,0,0-.54-2.56,4,4,0,0,0-1.6-1.71,5.14,5.14,0,0,0-2.51-.59ZM227,87.3h.18a4.33,4.33,0,0,0-.34-1.79,2.49,2.49,0,0,0-1-1.19,2.67,2.67,0,0,0-1.46-.4,2.62,2.62,0,0,0-1.09.22,2.43,2.43,0,0,0-.87.65,3.08,3.08,0,0,0-.57,1.08,4.94,4.94,0,0,0-.2,1.43,5.15,5.15,0,0,0,.2,1.46,3.13,3.13,0,0,0,.59,1.1,2.55,2.55,0,0,0,.88.66,2.58,2.58,0,0,0,1.08.22,2.69,2.69,0,0,0,1.39-.38,2.59,2.59,0,0,0,1-1.17,4.33,4.33,0,0,0,.37-1.89h-.36a4.18,4.18,0,0,1-.33,1.74,2.43,2.43,0,0,1-.87,1,2.32,2.32,0,0,1-1.21.33,2.43,2.43,0,0,1-.94-.19,2.14,2.14,0,0,1-.75-.57,2.55,2.55,0,0,1-.51-1A4.36,4.36,0,0,1,222,87.3a4.17,4.17,0,0,1,.19-1.32,2.65,2.65,0,0,1,.49-1,2.11,2.11,0,0,1,.74-.56,2.44,2.44,0,0,1,.95-.19,2.35,2.35,0,0,1,1.27.35,2.16,2.16,0,0,1,.85,1,4.12,4.12,0,0,1,.31,1.65Z" transform="translate(0 -0.23)"/><path class="cls-11" d="M231.79,88.11V83.75a1.18,1.18,0,0,1,.25-.83.83.83,0,0,1,.66-.28.87.87,0,0,1,.68.28,1.23,1.23,0,0,1,.25.83v4.46a3.86,3.86,0,0,0,.17,1.27,1.47,1.47,0,0,0,.6.8,2.28,2.28,0,0,0,1.21.28,1.8,1.8,0,0,0,1.52-.57,2.81,2.81,0,0,0,.45-1.74v-4.5a1.18,1.18,0,0,1,.25-.83.81.81,0,0,1,.66-.28.86.86,0,0,1,.67.28,1.18,1.18,0,0,1,.25.83v4.36a6.83,6.83,0,0,1-.2,1.78,2.75,2.75,0,0,1-.79,1.25,3.09,3.09,0,0,1-1.15.67,5,5,0,0,1-1.53.21,6.3,6.3,0,0,1-1.8-.23,2.86,2.86,0,0,1-1.23-.7,2.79,2.79,0,0,1-.7-1.21A6.11,6.11,0,0,1,231.79,88.11Z" transform="translate(0 -0.23)"/><path class="cls-11" d="M231.79,88.11H232V83.75a1.07,1.07,0,0,1,.2-.71.67.67,0,0,1,.53-.22.69.69,0,0,1,.54.22,1,1,0,0,1,.2.71v4.46a4.28,4.28,0,0,0,.18,1.33,1.69,1.69,0,0,0,.68.89,2.42,2.42,0,0,0,1.31.31,2,2,0,0,0,1.66-.64,2.93,2.93,0,0,0,.49-1.85v-4.5A1,1,0,0,1,238,83a.64.64,0,0,1,.53-.22A.69.69,0,0,1,239,83a1,1,0,0,1,.2.71v4.36a6.37,6.37,0,0,1-.2,1.73A2.6,2.6,0,0,1,238.3,91a2.91,2.91,0,0,1-1.08.62,4.68,4.68,0,0,1-1.48.21,6.32,6.32,0,0,1-1.75-.22,2.56,2.56,0,0,1-1.81-1.79,6.08,6.08,0,0,1-.21-1.72h-.36a6.15,6.15,0,0,0,.23,1.82,2.83,2.83,0,0,0,2,2,6.34,6.34,0,0,0,1.85.24,5.14,5.14,0,0,0,1.59-.22,3.32,3.32,0,0,0,1.22-.71,3,3,0,0,0,.83-1.33,6.41,6.41,0,0,0,.22-1.83V83.75a1.34,1.34,0,0,0-.31-1,1.06,1.06,0,0,0-.8-.33,1,1,0,0,0-.8.33,1.4,1.4,0,0,0-.29,1v4.5a2.63,2.63,0,0,1-.41,1.62,1.62,1.62,0,0,1-1.38.51,1.93,1.93,0,0,1-1.11-.26,1.23,1.23,0,0,1-.53-.69,3.8,3.8,0,0,1-.16-1.22V83.75a1.37,1.37,0,0,0-.3-1,1,1,0,0,0-.81-.34,1,1,0,0,0-.8.34,1.42,1.42,0,0,0-.29,1v4.36Z" transform="translate(0 -0.23)"/><path class="cls-11" d="M248.68,84.31h-2V90.9a1.19,1.19,0,0,1-.25.84.92.92,0,0,1-1.32,0,1.22,1.22,0,0,1-.26-.84V84.31h-2a1,1,0,0,1-.7-.21.71.71,0,0,1-.23-.54.7.7,0,0,1,.24-.56,1,1,0,0,1,.69-.21h5.84a1,1,0,0,1,.71.22.72.72,0,0,1,.23.55.68.68,0,0,1-.24.54A1,1,0,0,1,248.68,84.31Z" transform="translate(0 -0.23)"/><path class="cls-11" d="M248.68,84.31v-.18h-2.19V90.9a1.09,1.09,0,0,1-.2.72.75.75,0,0,1-1.06,0,1,1,0,0,1-.21-.72V84.13h-2.18a.89.89,0,0,1-.58-.16.53.53,0,0,1-.17-.41.49.49,0,0,1,.18-.42.83.83,0,0,1,.57-.16h5.84a.82.82,0,0,1,.58.16.52.52,0,0,1,.18.42.54.54,0,0,1-.18.41.84.84,0,0,1-.58.16v.36a1.18,1.18,0,0,0,.82-.25.88.88,0,0,0,.3-.68.91.91,0,0,0-.29-.69,1.23,1.23,0,0,0-.83-.26h-5.84a1.24,1.24,0,0,0-.81.25.89.89,0,0,0-.3.7.91.91,0,0,0,.29.68,1.18,1.18,0,0,0,.82.25h1.82V90.9a1.34,1.34,0,0,0,.31,1,1.09,1.09,0,0,0,1.58,0,1.39,1.39,0,0,0,.31-1V84.49h1.82Z" transform="translate(0 -0.23)"/></g></g></svg>