<svg xmlns="http://www.w3.org/2000/svg" xmlns:xlink="http://www.w3.org/1999/xlink" viewBox="0 0 252.06 127.94"><defs><style>.cls-1,.cls-11,.cls-9{fill:none;}.cls-2{fill:#ff993b;}.cls-3,.cls-6{isolation:isolate;}.cls-3{opacity:0.6;}.cls-4{clip-path:url(#clip-path);}.cls-5{fill:#f9943b;}.cls-6{opacity:0.4;}.cls-7{clip-path:url(#clip-path-2);}.cls-8,.cls-9{font-size:39.8px;}.cls-8{fill:#1d5888;}.cls-10,.cls-11,.cls-8,.cls-9{font-family:ArialRoundedMTBold, Arial Rounded MT Bold;}.cls-9{stroke:#1d5888;stroke-width:1.14px;}.cls-11,.cls-9{stroke-miterlimit:10;}.cls-10,.cls-11{font-size:12.67px;}.cls-10{fill:#0b66a0;}.cls-11{stroke:#0b66a0;stroke-width:0.36px;}</style><clipPath id="clip-path" transform="translate(0 -0.23)"><rect class="cls-1" x="82.02" width="128.4" height="128.4"/></clipPath><clipPath id="clip-path-2" transform="translate(0 -0.23)"><rect class="cls-1" x="108.18" width="128.4" height="128.4"/></clipPath></defs><g id="Layer_2" data-name="Layer 2"><g id="Layer_1-2" data-name="Layer 1"><g id="Org_Shape" data-name="Org Shape"><polygon class="cls-2" points="120.14 127.94 56.1 63.91 120.01 0 120.14 127.94"/><g class="cls-3"><g class="cls-4"><polygon class="cls-5" points="146.29 127.94 82.25 63.91 146.16 0 146.29 127.94"/></g></g><g class="cls-6"><g class="cls-7"><polygon class="cls-5" points="172.44 127.94 108.4 63.91 172.31 0 172.44 127.94"/></g></g></g><g id="Title"><text class="cls-8" transform="translate(0.57 78.72)">J</text><text class="cls-9" transform="translate(0.57 78.72)">J</text><text class="cls-8" transform="translate(23.38 78.72)">S</text><text class="cls-9" transform="translate(23.38 78.72)">S</text><text class="cls-8" transform="translate(60.68 78.72)">R</text><text class="cls-9" transform="translate(60.68 78.72)">R</text><text class="cls-8" transform="translate(89.29 78.72)">E</text><text class="cls-9" transform="translate(89.29 78.72)">E</text><text class="cls-8" transform="translate(115.84 78.72)">V</text><text class="cls-9" transform="translate(115.84 78.72)">V</text><text class="cls-8" transform="translate(143.23 78.72)">E</text><text class="cls-9" transform="translate(143.23 78.72)">E</text><text class="cls-8" transform="translate(169.78 78.72)">R</text><text class="cls-9" transform="translate(169.78 78.72)">R</text><text class="cls-8" transform="translate(198.39 78.72)">S</text><text class="cls-9" transform="translate(198.39 78.72)">S</text><text class="cls-8" transform="translate(224.94 78.72)">E</text><text class="cls-9" transform="translate(224.94 78.72)">E</text></g><g id="Tag_Line" data-name="Tag Line"><text class="cls-10" transform="translate(51.18 91.63)">A</text><text class="cls-11" transform="translate(51.18 91.63)">A</text><text class="cls-10" transform="translate(66.23 91.63)">C</text><text class="cls-11" transform="translate(66.23 91.63)">C</text><text class="cls-10" transform="translate(76.99 91.63)">O</text><text class="cls-11" transform="translate(76.99 91.63)">O</text><text class="cls-10" transform="translate(88.41 91.63)">M</text><text class="cls-11" transform="translate(88.41 91.63)">M</text><text class="cls-10" transform="translate(100.35 91.63)">P</text><text class="cls-11" transform="translate(100.35 91.63)">P</text><text class="cls-10" transform="translate(110.18 91.63)">L</text><text class="cls-11" transform="translate(110.18 91.63)">L</text><text class="cls-10" transform="translate(119.22 91.63)">E</text><text class="cls-11" transform="translate(119.22 91.63)">E</text><text class="cls-10" transform="translate(129.06 91.63)">T</text><text class="cls-11" transform="translate(129.06 91.63)">T</text><text class="cls-10" transform="translate(138.36 91.63)">E</text><text class="cls-11" transform="translate(138.36 91.63)">E</text><text class="cls-10" transform="translate(152.76 91.63)">T</text><text class="cls-11" transform="translate(152.76 91.63)">T</text><text class="cls-10" transform="translate(162.07 91.63)">U</text><text class="cls-11" transform="translate(162.07 91.63)">U</text><text class="cls-10" transform="translate(173.08 91.63)">R</text><text class="cls-11" transform="translate(173.08 91.63)">R</text><text class="cls-10" transform="translate(183.57 91.63)">N</text><text class="cls-11" transform="translate(183.57 91.63)">N</text><text class="cls-10" transform="translate(199.14 91.63)">A</text><text class="cls-11" transform="translate(199.14 91.63)">A</text><text class="cls-10" transform="translate(209.63 91.63)">B</text><text class="cls-11" transform="translate(209.63 91.63)">B</text><text class="cls-10" transform="translate(220.13 91.63)">O</text><text class="cls-11" transform="translate(220.13 91.63)">O</text><text class="cls-10" transform="translate(231.54 91.63)">U</text><text class="cls-11" transform="translate(231.54 91.63)">U</text><text class="cls-10" transform="translate(242.56 91.63)">T</text><text class="cls-11" transform="translate(242.56 91.63)">T</text></g></g></g></svg>