<svg id="Layer_1" data-name="Layer 1" xmlns="http://www.w3.org/2000/svg" xmlns:xlink="http://www.w3.org/1999/xlink" viewBox="0 0 249.83 127.94"><defs><style>.cls-1{fill:none;}.cls-2{fill:#ff993b;}.cls-3{clip-path:url(#clip-path);}.cls-4,.cls-7,.cls-8{fill:#f9943b;}.cls-4{opacity:0.6;}.cls-5{fill:#fb963b;}.cls-6{clip-path:url(#clip-path-2);}.cls-7{opacity:0.4;}.cls-8{opacity:0.76;}.cls-9{fill:#fa953b;}.cls-10{fill:#1d5888;}.cls-11{fill:#0b66a0;}</style><clipPath id="clip-path" transform="translate(-90.15 -90.6)"><polyline class="cls-1" points="171.41 90.37 299.81 90.37 299.81 218.77 171.41 218.77 171.41 90.37"/></clipPath><clipPath id="clip-path-2" transform="translate(-90.15 -90.6)"><polyline class="cls-1" points="197.57 90.37 325.97 90.37 325.97 218.77 197.57 218.77 197.57 90.37"/></clipPath></defs><polyline class="cls-2" points="119.25 0 55.34 63.91 119.38 127.94 119.35 101.77 81.5 63.91 119.28 26.12 119.25 0"/><g class="cls-3"><path class="cls-4" d="M209.47,166.19l0,26.17,26.17,26.18,0-26.18-26.18-26.17M235.55,90.6l-26.13,26.12,0,26.13,26.12-26.13,0-26.12" transform="translate(-90.15 -90.6)"/><polyline class="cls-5" points="119.28 26.12 81.5 63.91 119.35 101.77 119.33 75.59 107.64 63.91 119.3 52.25 119.28 26.12"/></g><g class="cls-6"><polyline class="cls-7" points="171.55 0 145.43 26.12 145.5 101.77 171.68 127.94 171.55 0"/><polyline class="cls-8" points="145.43 26.12 119.3 52.25 119.33 75.59 145.5 101.77 145.43 26.12"/><polyline class="cls-9" points="119.3 52.25 107.64 63.91 119.33 75.59 119.3 52.25"/></g><path class="cls-10" d="M109.62,143.84v14.92a28.25,28.25,0,0,1-.16,3.31,10.54,10.54,0,0,1-.75,2.76,7.47,7.47,0,0,1-3.21,3.66,10.61,10.61,0,0,1-5.44,1.31,11.28,11.28,0,0,1-4.83-.91,7.1,7.1,0,0,1-3.12-3,11,11,0,0,1-1-2.5,10.24,10.24,0,0,1-.39-2.7,2.75,2.75,0,0,1,.76-2.08,2.71,2.71,0,0,1,2-.72,2.2,2.2,0,0,1,1.73.66,4.72,4.72,0,0,1,.89,2.06A19,19,0,0,0,96.7,163a3.54,3.54,0,0,0,1.11,1.53,3.37,3.37,0,0,0,2.21.65c2.56,0,3.83-1.88,3.83-5.62V143.84a3.91,3.91,0,0,1,.77-2.63,2.64,2.64,0,0,1,2.09-.87,2.74,2.74,0,0,1,2.13.87A3.86,3.86,0,0,1,109.62,143.84Z" transform="translate(-90.15 -90.6)"/><path class="cls-10" d="M109.62,143.84h-.56v14.92a26.63,26.63,0,0,1-.17,3.24,9.76,9.76,0,0,1-.7,2.61h0a6.9,6.9,0,0,1-3,3.39,10.08,10.08,0,0,1-5.16,1.23,10.57,10.57,0,0,1-4.58-.86,6.59,6.59,0,0,1-2.88-2.72h0a10.1,10.1,0,0,1-1-2.37,9.64,9.64,0,0,1-.37-2.55,2.22,2.22,0,0,1,.58-1.67,2.14,2.14,0,0,1,1.56-.56,1.6,1.6,0,0,1,1.3.46,4.14,4.14,0,0,1,.76,1.81,19.89,19.89,0,0,0,.69,2.47A4.06,4.06,0,0,0,97.45,165a3.92,3.92,0,0,0,2.57.77,3.79,3.79,0,0,0,3.34-1.65,8,8,0,0,0,1.06-4.53V143.84a3.3,3.3,0,0,1,.63-2.25,2,2,0,0,1,1.66-.68,2.12,2.12,0,0,1,1.7.68,3.26,3.26,0,0,1,.65,2.25h1.13a4.4,4.4,0,0,0-.93-3,3.29,3.29,0,0,0-2.55-1.06,3.2,3.2,0,0,0-2.52,1.07,4.41,4.41,0,0,0-.91,3V159.6a6.93,6.93,0,0,1-.85,3.89,2.69,2.69,0,0,1-2.41,1.16,2.86,2.86,0,0,1-1.85-.51,3.1,3.1,0,0,1-.94-1.3,20.3,20.3,0,0,1-.64-2.31,5.14,5.14,0,0,0-1-2.32,2.72,2.72,0,0,0-2.15-.85,3.1,3.1,0,0,0-3.27,3.37,10.81,10.81,0,0,0,.4,2.85,11.66,11.66,0,0,0,1.07,2.64h0A7.7,7.7,0,0,0,95,169.4a11.76,11.76,0,0,0,5.07,1,11.08,11.08,0,0,0,5.73-1.39,8,8,0,0,0,3.45-3.94h0a11,11,0,0,0,.78-2.92,27.14,27.14,0,0,0,.17-3.37V143.84Z" transform="translate(-90.15 -90.6)"/><path class="cls-10" d="M137.52,160.76a8.34,8.34,0,0,1-1.33,4.65,8.89,8.89,0,0,1-3.89,3.23,14.77,14.77,0,0,1-6.09,1.16,13.73,13.73,0,0,1-7-1.59,9.41,9.41,0,0,1-3.15-3.06,7,7,0,0,1-1.22-3.72,2.53,2.53,0,0,1,2.59-2.55,2.17,2.17,0,0,1,1.54.58,4.67,4.67,0,0,1,1.08,1.73,11,11,0,0,0,1.18,2.28A4.69,4.69,0,0,0,123,165a6.55,6.55,0,0,0,3,.59,6.78,6.78,0,0,0,4.17-1.19,3.62,3.62,0,0,0,1.6-3,3.15,3.15,0,0,0-.87-2.31,5.52,5.52,0,0,0-2.23-1.35c-.91-.31-2.14-.64-3.66-1a27.07,27.07,0,0,1-5.15-1.68,8.34,8.34,0,0,1-3.28-2.62,6.82,6.82,0,0,1-1.21-4.13,7.06,7.06,0,0,1,1.28-4.18,8,8,0,0,1,3.71-2.81,15.27,15.27,0,0,1,5.71-1,14.23,14.23,0,0,1,4.54.65,9.46,9.46,0,0,1,3.18,1.73A7.29,7.29,0,0,1,135.7,145a5.2,5.2,0,0,1,.58,2.32,2.71,2.71,0,0,1-.73,1.85,2.34,2.34,0,0,1-1.82.83,2.07,2.07,0,0,1-1.5-.5,6.45,6.45,0,0,1-1.12-1.62,7.37,7.37,0,0,0-1.87-2.52,5.45,5.45,0,0,0-3.49-.9,6.1,6.1,0,0,0-3.61,1,2.85,2.85,0,0,0-1.37,2.36,2.42,2.42,0,0,0,.47,1.48,4,4,0,0,0,1.28,1.07,8.42,8.42,0,0,0,1.65.7c.56.17,1.48.41,2.76.74a42.29,42.29,0,0,1,4.36,1.24,13.1,13.1,0,0,1,3.33,1.65,7,7,0,0,1,2.14,2.46A7.9,7.9,0,0,1,137.52,160.76Z" transform="translate(-90.15 -90.6)"/><path class="cls-10" d="M137.52,160.76H137a7.76,7.76,0,0,1-1.24,4.34,8.25,8.25,0,0,1-3.65,3,14.13,14.13,0,0,1-5.85,1.11,13.22,13.22,0,0,1-6.67-1.51h0a8.59,8.59,0,0,1-3-2.88,6.35,6.35,0,0,1-1.13-3.41A2,2,0,0,1,116,160a1.9,1.9,0,0,1,1.45-.57,1.62,1.62,0,0,1,1.16.43,4.18,4.18,0,0,1,.93,1.52h0a12.64,12.64,0,0,0,1.24,2.39,5.39,5.39,0,0,0,2,1.69,7.16,7.16,0,0,0,3.28.65,7.43,7.43,0,0,0,4.51-1.3,4.18,4.18,0,0,0,1.83-3.44,3.73,3.73,0,0,0-1-2.7,6.18,6.18,0,0,0-2.46-1.5c-.94-.32-2.18-.65-3.72-1h0a26.23,26.23,0,0,1-5-1.65,7.64,7.64,0,0,1-3.06-2.44,6.28,6.28,0,0,1-1.11-3.79,6.65,6.65,0,0,1,1.18-3.86,7.55,7.55,0,0,1,3.46-2.6,14.68,14.68,0,0,1,5.5-.94,13.54,13.54,0,0,1,4.36.62,9,9,0,0,1,3,1.62,6.74,6.74,0,0,1,1.71,2.08,4.76,4.76,0,0,1,.52,2.07,2.14,2.14,0,0,1-.59,1.48,1.74,1.74,0,0,1-1.39.63,1.52,1.52,0,0,1-1.11-.34h0a6.48,6.48,0,0,1-1-1.48l-.5.27.51-.25a7.79,7.79,0,0,0-2-2.7,5.94,5.94,0,0,0-3.86-1,6.66,6.66,0,0,0-3.94,1.09,4.05,4.05,0,0,0-1.19,1.26,3,3,0,0,0-.42,1.56,3,3,0,0,0,.58,1.82,4.58,4.58,0,0,0,1.47,1.23,9.27,9.27,0,0,0,1.76.74h0c.57.18,1.49.42,2.78.75h0a41.28,41.28,0,0,1,4.31,1.23,12.74,12.74,0,0,1,3.18,1.58,6.16,6.16,0,0,1,2,2.25,7.31,7.31,0,0,1,.7,3.38h1.14a8.47,8.47,0,0,0-.83-3.9A7.4,7.4,0,0,0,135,154.2a13.88,13.88,0,0,0-3.47-1.73,44.18,44.18,0,0,0-4.42-1.26l-.13.56.14-.56c-1.28-.32-2.19-.56-2.73-.73h0a7.87,7.87,0,0,1-1.55-.65,3.52,3.52,0,0,1-1.1-.91,1.84,1.84,0,0,1-.35-1.14,2,2,0,0,1,.26-1,3.07,3.07,0,0,1,.87-.91,5.56,5.56,0,0,1,3.28-.87,4.9,4.9,0,0,1,3.13.77,6.8,6.8,0,0,1,1.72,2.33h0a7.29,7.29,0,0,0,1.22,1.76h0a2.63,2.63,0,0,0,1.9.66,3,3,0,0,0,2.25-1,3.36,3.36,0,0,0,.87-2.23,5.84,5.84,0,0,0-.64-2.57,7.71,7.71,0,0,0-2-2.44,10,10,0,0,0-3.36-1.84,14.74,14.74,0,0,0-4.73-.68,15.69,15.69,0,0,0-5.92,1,8.73,8.73,0,0,0-4,3,7.71,7.71,0,0,0-1.38,4.51,7.4,7.4,0,0,0,1.32,4.46,8.93,8.93,0,0,0,3.51,2.81,27,27,0,0,0,5.25,1.71h0a36.75,36.75,0,0,1,3.61,1,5.05,5.05,0,0,1,2,1.21,2.58,2.58,0,0,1,.7,1.91,3,3,0,0,1-1.37,2.52,6.22,6.22,0,0,1-3.83,1.09,6,6,0,0,1-2.75-.53,4.2,4.2,0,0,1-1.58-1.33,10.77,10.77,0,0,1-1.11-2.16h0a5.21,5.21,0,0,0-1.22-2,2.81,2.81,0,0,0-1.93-.73,3.05,3.05,0,0,0-2.27.92,3.09,3.09,0,0,0-.89,2.2,7.45,7.45,0,0,0,1.31,4A9.74,9.74,0,0,0,119,168.7h0a14.21,14.21,0,0,0,7.24,1.67,15.13,15.13,0,0,0,6.32-1.22,9.41,9.41,0,0,0,4.14-3.43,9,9,0,0,0,1.42-5Z" transform="translate(-90.15 -90.6)"/><path class="cls-10" d="M160.93,157.13h-2v9.15a3.82,3.82,0,0,1-.8,2.67,2.71,2.71,0,0,1-2.08.85,2.68,2.68,0,0,1-2.14-.89,4,4,0,0,1-.76-2.63V144.36a3,3,0,0,1,3.54-3.54h9.39a28.44,28.44,0,0,1,3.32.17,8.28,8.28,0,0,1,2.49.67,7.33,7.33,0,0,1,2.37,1.61,7,7,0,0,1,1.56,2.44,8.09,8.09,0,0,1,.54,2.95,7.11,7.11,0,0,1-1.8,5.09,10.3,10.3,0,0,1-5.45,2.7,10.52,10.52,0,0,1,2.93,2.41,23.51,23.51,0,0,1,2.5,3.39,25.43,25.43,0,0,1,1.71,3.25,6.31,6.31,0,0,1,.61,2,2.06,2.06,0,0,1-.36,1.12,2.37,2.37,0,0,1-1,.87,3.11,3.11,0,0,1-1.43.32,2.85,2.85,0,0,1-1.64-.45,4.31,4.31,0,0,1-1.13-1.16c-.32-.47-.75-1.15-1.3-2.06l-2.31-3.85a21.85,21.85,0,0,0-2.22-3.23,5.56,5.56,0,0,0-2-1.51A6.85,6.85,0,0,0,160.93,157.13Zm3.3-12h-5.32V153h5.17a14.4,14.4,0,0,0,3.49-.36,4.14,4.14,0,0,0,2.17-1.22,3.52,3.52,0,0,0,.75-2.38,3.69,3.69,0,0,0-.6-2.09,3.6,3.6,0,0,0-1.67-1.35A12,12,0,0,0,164.23,145.16Z" transform="translate(-90.15 -90.6)"/><path class="cls-10" d="M160.93,157.13v-.57h-2.59v9.72a3.29,3.29,0,0,1-.65,2.28,2.11,2.11,0,0,1-1.66.67,2,2,0,0,1-1.7-.69,3.39,3.39,0,0,1-.63-2.26V144.36a2.49,2.49,0,0,1,3-3h9.39a29.43,29.43,0,0,1,3.25.16,8,8,0,0,1,2.32.63h0a6.62,6.62,0,0,1,2.18,1.49,6.43,6.43,0,0,1,1.44,2.25,7.57,7.57,0,0,1,.5,2.74,6.54,6.54,0,0,1-1.64,4.7,9.73,9.73,0,0,1-5.16,2.53l-1.51.33,1.36.73a10.16,10.16,0,0,1,2.78,2.28,24.64,24.64,0,0,1,2.44,3.32,24.27,24.27,0,0,1,1.67,3.17c.2.47.34.86.44,1.17a2.8,2.8,0,0,1,.13.6,1.5,1.5,0,0,1-.27.81,2,2,0,0,1-.77.68,2.56,2.56,0,0,1-1.17.25,2.19,2.19,0,0,1-1.31-.35,4,4,0,0,1-1-1c-.31-.45-.74-1.13-1.28-2L168.18,162l-.49.29.49-.29a21.67,21.67,0,0,0-2.29-3.31,6,6,0,0,0-2.2-1.67,7.39,7.39,0,0,0-2.76-.45v1.14a6.2,6.2,0,0,1,2.33.37,4.8,4.8,0,0,1,1.78,1.36,20.53,20.53,0,0,1,2.16,3.14h0l2.32,3.85c.54.91,1,1.61,1.31,2.09a4.8,4.8,0,0,0,1.28,1.3,3.39,3.39,0,0,0,2,.56,3.65,3.65,0,0,0,1.69-.38,3.11,3.11,0,0,0,1.2-1.07,2.6,2.6,0,0,0,.45-1.43,3.54,3.54,0,0,0-.17-.94c-.12-.36-.27-.78-.48-1.27A26.55,26.55,0,0,0,175,162a24.72,24.72,0,0,0-2.56-3.48,11.18,11.18,0,0,0-3.09-2.53l-.27.5.12.56a10.87,10.87,0,0,0,5.74-2.87,7.69,7.69,0,0,0,2-5.48,8.75,8.75,0,0,0-.57-3.15,7.7,7.7,0,0,0-4.25-4.37l-.22.52.23-.52a9.06,9.06,0,0,0-2.65-.72,30.1,30.1,0,0,0-3.39-.16h-9.39a3.57,3.57,0,0,0-4.1,4.1v21.92a4.53,4.53,0,0,0,.89,3,3.22,3.22,0,0,0,2.57,1.09,3.25,3.25,0,0,0,2.49-1,4.28,4.28,0,0,0,.95-3.05V157.7h1.46Zm3.3-12v-.57h-5.89v9h5.74a14.76,14.76,0,0,0,3.63-.38,4.68,4.68,0,0,0,2.46-1.4,4.12,4.12,0,0,0,.89-2.75,4.26,4.26,0,0,0-.7-2.41,4.2,4.2,0,0,0-1.93-1.56h0a6.25,6.25,0,0,0-1.67-.36c-.69-.07-1.53-.11-2.54-.11v1.14a22.92,22.92,0,0,1,2.42.1,5,5,0,0,1,1.34.28h0a3,3,0,0,1,1.41,1.14,3.08,3.08,0,0,1,.51,1.78,2.9,2.9,0,0,1-.61,2,3.51,3.51,0,0,1-1.88,1.05,14.1,14.1,0,0,1-3.35.34h-4.61v-6.69h4.76Z" transform="translate(-90.15 -90.6)"/><path class="cls-10" d="M200.56,145.27h-13v7h12a2.88,2.88,0,0,1,2,.59,2,2,0,0,1,.65,1.57,2.07,2.07,0,0,1-.64,1.58,2.78,2.78,0,0,1-2,.61h-12v8.11H201a2.94,2.94,0,0,1,2.05.63,2.16,2.16,0,0,1,.69,1.68,2.11,2.11,0,0,1-.69,1.64,2.9,2.9,0,0,1-2.05.64H185.33a3.68,3.68,0,0,1-2.71-.84,3.74,3.74,0,0,1-.83-2.7V144.36a4.72,4.72,0,0,1,.37-2,2.32,2.32,0,0,1,1.16-1.15,4.82,4.82,0,0,1,2-.36h15.23a3,3,0,0,1,2.06.62,2.07,2.07,0,0,1,.67,1.6,2.12,2.12,0,0,1-.67,1.62A3,3,0,0,1,200.56,145.27Z" transform="translate(-90.15 -90.6)"/><path class="cls-10" d="M200.56,145.27v-.56H187v8.13h12.55a2.29,2.29,0,0,1,1.58.44,1.44,1.44,0,0,1,.47,1.15,1.53,1.53,0,0,1-.46,1.17,2.24,2.24,0,0,1-1.59.46H187v9.24h14a2.41,2.41,0,0,1,1.67.48h0a1.59,1.59,0,0,1,.5,1.26,1.55,1.55,0,0,1-.5,1.23,2.41,2.41,0,0,1-1.67.48H185.33a2.48,2.48,0,0,1-3-3V144.36a4.43,4.43,0,0,1,.31-1.79h0a1.68,1.68,0,0,1,.87-.87,4.41,4.41,0,0,1,1.78-.31h15.23a2.37,2.37,0,0,1,1.67.47,1.47,1.47,0,0,1,.49,1.18,1.5,1.5,0,0,1-.49,1.2,2.37,2.37,0,0,1-1.67.47v1.13a3.49,3.49,0,0,0,2.44-.76,2.64,2.64,0,0,0,.85-2,2.61,2.61,0,0,0-.85-2,3.49,3.49,0,0,0-2.44-.76H185.33a5.35,5.35,0,0,0-2.25.41,2.79,2.79,0,0,0-1.43,1.42h0a5.26,5.26,0,0,0-.43,2.27v21.42a4.29,4.29,0,0,0,1,3.1,4.24,4.24,0,0,0,3.12,1H201a3.48,3.48,0,0,0,2.44-.78,2.71,2.71,0,0,0,.87-2.06,2.75,2.75,0,0,0-.87-2.1h0a3.53,3.53,0,0,0-2.44-.78H188.13v-7h11.41a3.33,3.33,0,0,0,2.37-.77,2.69,2.69,0,0,0,.82-2,2.62,2.62,0,0,0-.84-2,3.44,3.44,0,0,0-2.35-.74H188.13v-5.86h12.43Z" transform="translate(-90.15 -90.6)"/><path class="cls-10" d="M212.56,144.13l6.45,19.1L225.48,144c.34-1,.59-1.71.76-2.11a2.89,2.89,0,0,1,.84-1.07,2.47,2.47,0,0,1,1.59-.47,2.75,2.75,0,0,1,2.36,1.35,2.42,2.42,0,0,1,.36,1.23,4,4,0,0,1-.12.93,6.74,6.74,0,0,1-.29,1c-.11.32-.23.64-.35,1l-6.9,18.62c-.24.71-.49,1.39-.74,2a8.6,8.6,0,0,1-.85,1.69,3.68,3.68,0,0,1-3.27,1.66,4,4,0,0,1-2-.45,3.78,3.78,0,0,1-1.3-1.21,9.33,9.33,0,0,1-.87-1.7c-.24-.64-.49-1.31-.73-2L207.21,146c-.11-.34-.23-.67-.36-1a8.73,8.73,0,0,1-.31-1.05,4.63,4.63,0,0,1-.12-.95,2.55,2.55,0,0,1,.79-1.81,2.69,2.69,0,0,1,2-.81,2.33,2.33,0,0,1,2.09.9A12,12,0,0,1,212.56,144.13Z" transform="translate(-90.15 -90.6)"/><path class="cls-10" d="M212.56,144.13l-.54.18,7,20.7,7-20.84h0c.33-1,.59-1.7.74-2.06a2.35,2.35,0,0,1,.67-.86,1.91,1.91,0,0,1,1.24-.34,2.18,2.18,0,0,1,1.87,1.07,1.78,1.78,0,0,1,.28.94,3.49,3.49,0,0,1-.1.8,7.15,7.15,0,0,1-.27.9h0l-.36,1,.54.19-.53-.2-6.9,18.63h0c-.25.71-.49,1.38-.74,2a8.21,8.21,0,0,1-.79,1.57,3.21,3.21,0,0,1-1.11,1,3.39,3.39,0,0,1-4.49-1,8.84,8.84,0,0,1-.81-1.6c-.24-.62-.48-1.29-.73-2h0l-6.78-18.47-.54.2.54-.19c-.12-.34-.24-.68-.37-1a7.47,7.47,0,0,1-.28-1A4,4,0,0,1,207,143a2,2,0,0,1,.64-1.41,2.09,2.09,0,0,1,1.59-.64,2.49,2.49,0,0,1,1,.18,1.24,1.24,0,0,1,.58.47A11.47,11.47,0,0,1,212,144.3h0l.54-.18.54-.18a12.3,12.3,0,0,0-1.33-3,2.43,2.43,0,0,0-1.07-.88,3.73,3.73,0,0,0-1.49-.27,3.22,3.22,0,0,0-2.4,1,3,3,0,0,0-1,2.2A5,5,0,0,0,206,144a9.32,9.32,0,0,0,.33,1.13c.12.31.24.64.36,1h0l6.78,18.46.54-.19-.54.18c.25.72.5,1.4.74,2a9.58,9.58,0,0,0,.92,1.81,4.26,4.26,0,0,0,1.5,1.39,4.54,4.54,0,0,0,2.25.53,4.45,4.45,0,0,0,2.26-.54,4.33,4.33,0,0,0,1.48-1.37,8.75,8.75,0,0,0,.91-1.81c.25-.64.5-1.33.75-2.05l-.54-.18.54.2,6.9-18.63h0c.12-.34.23-.66.35-1h0a9.43,9.43,0,0,0,.32-1,5,5,0,0,0,.13-1.06,3,3,0,0,0-.44-1.52,3.36,3.36,0,0,0-1.19-1.18,3.23,3.23,0,0,0-1.66-.45,3,3,0,0,0-1.95.6,3.42,3.42,0,0,0-1,1.29c-.18.43-.44,1.13-.78,2.15h0L219,161.45,213.1,144l-.54.18.54-.18Z" transform="translate(-90.15 -90.6)"/><path class="cls-10" d="M254.5,145.27h-13v7h12a2.86,2.86,0,0,1,2,.59,2,2,0,0,1,.65,1.57,2.07,2.07,0,0,1-.64,1.58,2.78,2.78,0,0,1-2,.61h-12v8.11H255a3,3,0,0,1,2.05.63,2.16,2.16,0,0,1,.69,1.68,2.11,2.11,0,0,1-.69,1.64,2.91,2.91,0,0,1-2.05.64H239.26a3.68,3.68,0,0,1-2.71-.84,3.74,3.74,0,0,1-.83-2.7V144.36a4.88,4.88,0,0,1,.37-2,2.36,2.36,0,0,1,1.16-1.15,4.89,4.89,0,0,1,2-.36H254.5a3,3,0,0,1,2.05.62,2,2,0,0,1,.67,1.6,2.08,2.08,0,0,1-.67,1.62A3,3,0,0,1,254.5,145.27Z" transform="translate(-90.15 -90.6)"/><path class="cls-10" d="M254.5,145.27v-.56H240.93v8.13h12.54a2.32,2.32,0,0,1,1.59.44,1.44,1.44,0,0,1,.46,1.15,1.49,1.49,0,0,1-.46,1.17,2.24,2.24,0,0,1-1.59.46H240.93v9.24h14a2.38,2.38,0,0,1,1.66.48,1.6,1.6,0,0,1,.51,1.26,1.55,1.55,0,0,1-.51,1.22,2.33,2.33,0,0,1-1.66.49H239.26a3.14,3.14,0,0,1-2.3-.67,3.17,3.17,0,0,1-.67-2.3V144.36a4.24,4.24,0,0,1,.32-1.79,1.74,1.74,0,0,1,.88-.87,4.36,4.36,0,0,1,1.77-.31H254.5a2.41,2.41,0,0,1,1.67.47,1.5,1.5,0,0,1,.48,1.18,1.53,1.53,0,0,1-.48,1.2,2.41,2.41,0,0,1-1.67.47v1.13a3.46,3.46,0,0,0,2.43-.76,2.65,2.65,0,0,0,.86-2,2.62,2.62,0,0,0-.86-2,3.46,3.46,0,0,0-2.43-.76H239.26a5.35,5.35,0,0,0-2.25.41,2.83,2.83,0,0,0-1.43,1.42,5.26,5.26,0,0,0-.42,2.27v21.42a4.25,4.25,0,0,0,1,3.1,4.2,4.2,0,0,0,3.11,1H255a3.41,3.41,0,0,0,2.43-.78,2.72,2.72,0,0,0,.88-2.06,2.79,2.79,0,0,0-.88-2.1,3.5,3.5,0,0,0-2.43-.78H242.07v-7h11.4a3.33,3.33,0,0,0,2.37-.77,2.62,2.62,0,0,0,.82-2,2.59,2.59,0,0,0-.84-2,3.42,3.42,0,0,0-2.35-.74h-11.4v-5.86H254.5Z" transform="translate(-90.15 -90.6)"/><path class="cls-10" d="M270,157.13h-2v9.15a3.82,3.82,0,0,1-.8,2.67,3,3,0,0,1-4.22,0,4,4,0,0,1-.76-2.63V144.36a3,3,0,0,1,3.54-3.54h9.39a28.44,28.44,0,0,1,3.32.17,8.28,8.28,0,0,1,2.49.67,7.33,7.33,0,0,1,2.37,1.61,7.15,7.15,0,0,1,1.57,2.44,8.3,8.3,0,0,1,.53,2.95,7.11,7.11,0,0,1-1.8,5.09,10.3,10.3,0,0,1-5.45,2.7,10.69,10.69,0,0,1,2.94,2.41,24.21,24.21,0,0,1,2.49,3.39,25.43,25.43,0,0,1,1.71,3.25,6.42,6.42,0,0,1,.62,2,2.06,2.06,0,0,1-.36,1.12,2.47,2.47,0,0,1-1,.87,3.11,3.11,0,0,1-1.43.32,2.85,2.85,0,0,1-1.64-.45,4.31,4.31,0,0,1-1.13-1.16c-.32-.47-.75-1.15-1.3-2.06l-2.31-3.85a21.85,21.85,0,0,0-2.22-3.23,5.56,5.56,0,0,0-2-1.51A6.85,6.85,0,0,0,270,157.13Zm3.3-12H268V153h5.17a14.4,14.4,0,0,0,3.49-.36,4.14,4.14,0,0,0,2.17-1.22,3.52,3.52,0,0,0,.75-2.38,3.69,3.69,0,0,0-.6-2.09,3.55,3.55,0,0,0-1.67-1.35A12,12,0,0,0,273.33,145.16Z" transform="translate(-90.15 -90.6)"/><path class="cls-10" d="M270,157.13v-.57h-2.59v9.72a3.24,3.24,0,0,1-.65,2.28,2.11,2.11,0,0,1-1.66.67,2,2,0,0,1-1.7-.69,3.39,3.39,0,0,1-.63-2.26V144.36a2.49,2.49,0,0,1,3-3h9.39a29.3,29.3,0,0,1,3.25.16,7.88,7.88,0,0,1,2.32.63h0a6.51,6.51,0,0,1,2.18,1.49,6.6,6.6,0,0,1,1.45,2.25h0a7.57,7.57,0,0,1,.49,2.74,6.54,6.54,0,0,1-1.64,4.7,9.7,9.7,0,0,1-5.16,2.53l-1.51.33,1.36.73a9.89,9.89,0,0,1,2.78,2.29,23.93,23.93,0,0,1,2.44,3.31,24.27,24.27,0,0,1,1.67,3.17,11,11,0,0,1,.44,1.17,2.8,2.8,0,0,1,.13.6,1.5,1.5,0,0,1-.27.81h0a2,2,0,0,1-.77.68,2.56,2.56,0,0,1-1.17.25,2.21,2.21,0,0,1-1.31-.35,4,4,0,0,1-1-1c-.31-.45-.74-1.13-1.28-2L277.28,162h0a21,21,0,0,0-2.29-3.31,6,6,0,0,0-2.2-1.67,7.39,7.39,0,0,0-2.76-.45v1.14a6.2,6.2,0,0,1,2.33.37,4.8,4.8,0,0,1,1.78,1.36,20.53,20.53,0,0,1,2.16,3.14h0l2.32,3.85c.54.91,1,1.61,1.31,2.09a4.8,4.8,0,0,0,1.28,1.3,3.39,3.39,0,0,0,2,.56,3.65,3.65,0,0,0,1.69-.38,3.11,3.11,0,0,0,1.2-1.07h0a2.62,2.62,0,0,0,.45-1.43,3.18,3.18,0,0,0-.17-.94,12.83,12.83,0,0,0-.48-1.27,26.55,26.55,0,0,0-1.75-3.32,24.72,24.72,0,0,0-2.56-3.48,11.18,11.18,0,0,0-3.09-2.53l-.27.5.12.56a10.94,10.94,0,0,0,5.75-2.87,7.73,7.73,0,0,0,1.95-5.48,8.71,8.71,0,0,0-.57-3.15h0a7.7,7.7,0,0,0-4.25-4.37l-.22.52.24-.52a9.21,9.21,0,0,0-2.66-.72,30.1,30.1,0,0,0-3.39-.16h-9.39a3.57,3.57,0,0,0-4.1,4.1v21.92a4.49,4.49,0,0,0,.89,3,3.22,3.22,0,0,0,2.57,1.09,3.29,3.29,0,0,0,2.5-1,4.38,4.38,0,0,0,.95-3.05V157.7H270Zm3.3-12v-.57h-5.89v9h5.74a14.71,14.71,0,0,0,3.63-.38,4.68,4.68,0,0,0,2.46-1.4,4.12,4.12,0,0,0,.89-2.75,4.18,4.18,0,0,0-2.62-4h0a6.26,6.26,0,0,0-1.66-.36c-.7-.07-1.54-.11-2.55-.11v1.14a22.92,22.92,0,0,1,2.42.1,5,5,0,0,1,1.34.28h0a3.1,3.1,0,0,1,1.42,1.14A3.15,3.15,0,0,1,279,149a2.9,2.9,0,0,1-.61,2,3.51,3.51,0,0,1-1.87,1.05,14.25,14.25,0,0,1-3.36.34h-4.6v-6.69h4.75Z" transform="translate(-90.15 -90.6)"/><path class="cls-10" d="M312.54,160.76a8.34,8.34,0,0,1-1.33,4.65,8.92,8.92,0,0,1-3.9,3.23,14.69,14.69,0,0,1-6.08,1.16,13.73,13.73,0,0,1-7-1.59,9.31,9.31,0,0,1-3.15-3.06,7,7,0,0,1-1.22-3.72,2.53,2.53,0,0,1,2.59-2.55,2.19,2.19,0,0,1,1.54.58,4.67,4.67,0,0,1,1.08,1.73,11,11,0,0,0,1.18,2.28,4.69,4.69,0,0,0,1.77,1.5,6.55,6.55,0,0,0,3,.59,6.73,6.73,0,0,0,4.16-1.19,3.6,3.6,0,0,0,1.61-3,3.15,3.15,0,0,0-.87-2.31,5.52,5.52,0,0,0-2.23-1.35c-.92-.31-2.14-.64-3.67-1a27.19,27.19,0,0,1-5.14-1.68,8.34,8.34,0,0,1-3.28-2.62,6.82,6.82,0,0,1-1.21-4.13,7.06,7.06,0,0,1,1.28-4.18,8,8,0,0,1,3.71-2.81,15.27,15.27,0,0,1,5.71-1,14.23,14.23,0,0,1,4.54.65,9.46,9.46,0,0,1,3.18,1.73,7.29,7.29,0,0,1,1.85,2.26,5.34,5.34,0,0,1,.58,2.32,2.71,2.71,0,0,1-.73,1.85,2.34,2.34,0,0,1-1.82.83,2.07,2.07,0,0,1-1.5-.5,6.45,6.45,0,0,1-1.12-1.62,7.37,7.37,0,0,0-1.87-2.52,5.46,5.46,0,0,0-3.5-.9,6.06,6.06,0,0,0-3.6,1,2.85,2.85,0,0,0-1.37,2.36,2.42,2.42,0,0,0,.47,1.48,3.93,3.93,0,0,0,1.28,1.07,8.42,8.42,0,0,0,1.65.7c.56.17,1.48.41,2.76.74a42.29,42.29,0,0,1,4.36,1.24,13.1,13.1,0,0,1,3.33,1.65,6.82,6.82,0,0,1,2.13,2.46A7.77,7.77,0,0,1,312.54,160.76Z" transform="translate(-90.15 -90.6)"/><path class="cls-10" d="M312.54,160.76H312a7.76,7.76,0,0,1-1.24,4.34,8.25,8.25,0,0,1-3.65,3,14.17,14.17,0,0,1-5.85,1.11,13.2,13.2,0,0,1-6.67-1.51h0a8.59,8.59,0,0,1-3-2.88,6.35,6.35,0,0,1-1.13-3.41,1.95,1.95,0,0,1,2-2,1.59,1.59,0,0,1,1.15.43,4.06,4.06,0,0,1,.94,1.52h0a12.64,12.64,0,0,0,1.24,2.39,5.39,5.39,0,0,0,2,1.69,7.16,7.16,0,0,0,3.28.65,7.38,7.38,0,0,0,4.5-1.3,4.17,4.17,0,0,0,1.84-3.44,3.73,3.73,0,0,0-1-2.7,6.18,6.18,0,0,0-2.46-1.5c-.94-.32-2.18-.65-3.72-1h0a26.23,26.23,0,0,1-5-1.65,7.64,7.64,0,0,1-3.06-2.44,6.28,6.28,0,0,1-1.11-3.79,6.65,6.65,0,0,1,1.18-3.86,7.55,7.55,0,0,1,3.46-2.6,14.68,14.68,0,0,1,5.5-.94,13.54,13.54,0,0,1,4.36.62,9,9,0,0,1,3,1.62,6.74,6.74,0,0,1,1.71,2.08,4.76,4.76,0,0,1,.52,2.07,2.14,2.14,0,0,1-.59,1.48,1.75,1.75,0,0,1-1.39.63,1.52,1.52,0,0,1-1.11-.34,6.17,6.17,0,0,1-1-1.48l-.5.27.51-.25a7.79,7.79,0,0,0-2-2.7,6,6,0,0,0-3.87-1,6.61,6.61,0,0,0-3.93,1.09,4.05,4.05,0,0,0-1.19,1.26,3,3,0,0,0-.42,1.56,3,3,0,0,0,.58,1.82,4.47,4.47,0,0,0,1.47,1.23,9.27,9.27,0,0,0,1.76.74c.57.18,1.49.42,2.78.75h0a41.28,41.28,0,0,1,4.31,1.23,12.74,12.74,0,0,1,3.18,1.58,6.16,6.16,0,0,1,2,2.25,7.31,7.31,0,0,1,.7,3.38h1.14a8.47,8.47,0,0,0-.83-3.9A7.4,7.4,0,0,0,310,154.2a13.88,13.88,0,0,0-3.47-1.73,44.18,44.18,0,0,0-4.42-1.26l-.13.56.14-.56c-1.28-.32-2.2-.56-2.73-.73a7.63,7.63,0,0,1-1.55-.65,3.3,3.3,0,0,1-1.1-.91,1.84,1.84,0,0,1-.35-1.14,1.9,1.9,0,0,1,.26-1,3,3,0,0,1,.87-.91,5.53,5.53,0,0,1,3.27-.87,4.91,4.91,0,0,1,3.14.77,6.93,6.93,0,0,1,1.72,2.33h0a7.29,7.29,0,0,0,1.22,1.76,2.63,2.63,0,0,0,1.9.66,3,3,0,0,0,2.25-1,3.36,3.36,0,0,0,.87-2.23,5.84,5.84,0,0,0-.64-2.57,7.85,7.85,0,0,0-2-2.44,10.09,10.09,0,0,0-3.37-1.84,14.64,14.64,0,0,0-4.72-.68,15.89,15.89,0,0,0-5.92,1,8.73,8.73,0,0,0-4,3,7.64,7.64,0,0,0-1.38,4.51,7.4,7.4,0,0,0,1.32,4.46,9,9,0,0,0,3.5,2.81,27.31,27.31,0,0,0,5.26,1.71h0a36.44,36.44,0,0,1,3.6,1,5,5,0,0,1,2,1.21,2.62,2.62,0,0,1,.7,1.91,3,3,0,0,1-1.38,2.52,6.17,6.17,0,0,1-3.82,1.09,6.06,6.06,0,0,1-2.76-.53,4.17,4.17,0,0,1-1.57-1.33,10.77,10.77,0,0,1-1.11-2.16h0a5.34,5.34,0,0,0-1.22-2,2.83,2.83,0,0,0-1.93-.73,3.05,3.05,0,0,0-2.27.92,3.09,3.09,0,0,0-.89,2.2,7.45,7.45,0,0,0,1.31,4A9.8,9.8,0,0,0,294,168.7h0a14.21,14.21,0,0,0,7.24,1.67,15.13,15.13,0,0,0,6.32-1.22,9.41,9.41,0,0,0,4.14-3.43,9,9,0,0,0,1.42-5Z" transform="translate(-90.15 -90.6)"/><path class="cls-10" d="M336.21,145.27h-13v7h12a2.89,2.89,0,0,1,2,.59,2,2,0,0,1,.65,1.57,2.11,2.11,0,0,1-.64,1.58,2.79,2.79,0,0,1-2,.61h-12v8.11h13.45a2.94,2.94,0,0,1,2,.63,2.16,2.16,0,0,1,.69,1.68,2.11,2.11,0,0,1-.69,1.64,2.9,2.9,0,0,1-2,.64H321a3.68,3.68,0,0,1-2.71-.84,3.74,3.74,0,0,1-.83-2.7V144.36a4.72,4.72,0,0,1,.37-2,2.32,2.32,0,0,1,1.16-1.15,4.82,4.82,0,0,1,2-.36h15.23a3,3,0,0,1,2.06.62,2.07,2.07,0,0,1,.67,1.6,2.12,2.12,0,0,1-.67,1.62A3,3,0,0,1,336.21,145.27Z" transform="translate(-90.15 -90.6)"/><path class="cls-10" d="M336.21,145.27v-.56H322.64v8.13h12.54a2.3,2.3,0,0,1,1.59.44,1.44,1.44,0,0,1,.47,1.15,1.5,1.5,0,0,1-.47,1.17,2.21,2.21,0,0,1-1.59.46H322.64v9.24h14a2.41,2.41,0,0,1,1.67.48,1.56,1.56,0,0,1,.5,1.26,1.51,1.51,0,0,1-.5,1.22,2.35,2.35,0,0,1-1.67.49H321a2.48,2.48,0,0,1-3-3V144.36a4.43,4.43,0,0,1,.31-1.79,1.74,1.74,0,0,1,.88-.87,4.41,4.41,0,0,1,1.78-.31h15.23a2.37,2.37,0,0,1,1.67.47,1.47,1.47,0,0,1,.49,1.18,1.5,1.5,0,0,1-.49,1.2,2.37,2.37,0,0,1-1.67.47v1.13a3.49,3.49,0,0,0,2.44-.76,2.64,2.64,0,0,0,.85-2,2.61,2.61,0,0,0-.85-2,3.49,3.49,0,0,0-2.44-.76H321a5.35,5.35,0,0,0-2.25.41,2.85,2.85,0,0,0-1.44,1.42,5.41,5.41,0,0,0-.42,2.27v21.42a4.29,4.29,0,0,0,1,3.1,4.24,4.24,0,0,0,3.12,1h15.68a3.44,3.44,0,0,0,2.44-.78A2.71,2.71,0,0,0,340,167a2.75,2.75,0,0,0-.87-2.1,3.53,3.53,0,0,0-2.44-.78H323.78v-7h11.4a3.34,3.34,0,0,0,2.38-.77,2.69,2.69,0,0,0,.82-2,2.62,2.62,0,0,0-.84-2,3.45,3.45,0,0,0-2.36-.74h-11.4v-5.86h12.43Z" transform="translate(-90.15 -90.6)"/><path class="cls-11" d="M147.36,181.2l-.43-1.14h-3.69l-.43,1.17a4.16,4.16,0,0,1-.44.92.67.67,0,0,1-.58.23.88.88,0,0,1-.62-.25.79.79,0,0,1-.26-.57,1.32,1.32,0,0,1,.06-.39c0-.13.11-.31.2-.55l2.32-5.89c.07-.17.15-.37.24-.61a3,3,0,0,1,.3-.59,1.25,1.25,0,0,1,.41-.38,1.53,1.53,0,0,1,1.28,0,1.15,1.15,0,0,1,.41.38,2.12,2.12,0,0,1,.27.49c.07.17.16.41.27.7l2.37,5.85a2.88,2.88,0,0,1,.28,1,.82.82,0,0,1-.26.58.86.86,0,0,1-.64.26.87.87,0,0,1-.37-.07.75.75,0,0,1-.26-.21,2.11,2.11,0,0,1-.22-.41Zm-3.64-2.51h2.71l-1.37-3.75Z" transform="translate(-90.15 -90.6)"/><path class="cls-11" d="M147.36,181.2l.17-.06-.48-1.26h-3.94l-.47,1.28a4.13,4.13,0,0,1-.41.88.5.5,0,0,1-.44.16.67.67,0,0,1-.49-.2.57.57,0,0,1-.21-.44,1.26,1.26,0,0,1,0-.33c0-.13.11-.31.2-.54h0l2.32-5.89c.07-.17.15-.37.24-.61a2.91,2.91,0,0,1,.28-.56,1.1,1.1,0,0,1,1.8,0,2.25,2.25,0,0,1,.25.46c.07.17.16.4.27.7h0l2.37,5.85h0a2.79,2.79,0,0,1,.27.9.61.61,0,0,1-.21.45.66.66,0,0,1-.51.21.79.79,0,0,1-.29,0l-.2-.17a2,2,0,0,1-.2-.36c-.08-.19-.15-.35-.2-.49l-.17.07.17-.06-.17.06-.17.07.21.49a2.26,2.26,0,0,0,.25.45,1,1,0,0,0,.77.36,1.07,1.07,0,0,0,.77-.32,1,1,0,0,0,.31-.71,3,3,0,0,0-.29-1l-.17.07.17-.07-2.37-5.85-.17.07.17-.06c-.11-.3-.2-.53-.27-.71a2.9,2.9,0,0,0-.29-.52,1.29,1.29,0,0,0-.47-.43,1.65,1.65,0,0,0-1.46,0,1.39,1.39,0,0,0-.47.43,3.08,3.08,0,0,0-.32.63c-.09.24-.17.44-.24.61L141,180.56h0a5.55,5.55,0,0,0-.21.57,1.35,1.35,0,0,0-.07.44.94.94,0,0,0,.32.7,1,1,0,0,0,.74.31.87.87,0,0,0,.73-.32,4.54,4.54,0,0,0,.46-1l.39-1h3.43l.39,1h0Zm-3.64-2.51v.18h3l-1.63-4.46-1.59,4.46h.25v-.18l.17.06,1.18-3.27,1.1,3h-2.45v.18l.17.06Z" transform="translate(-90.15 -90.6)"/><path class="cls-11" d="M164.33,179.37a2.43,2.43,0,0,1-.21.93,3.15,3.15,0,0,1-.67,1,3.22,3.22,0,0,1-1.17.79,4.24,4.24,0,0,1-1.66.3,5.84,5.84,0,0,1-1.3-.13,3.48,3.48,0,0,1-1.07-.43,3.62,3.62,0,0,1-.88-.75,4.83,4.83,0,0,1-1-2.09,6.2,6.2,0,0,1,.19-3.23,4.19,4.19,0,0,1,.91-1.48,4,4,0,0,1,1.39-.94,4.63,4.63,0,0,1,1.7-.32,4.2,4.2,0,0,1,2,.44,3.48,3.48,0,0,1,1.31,1.08,2.12,2.12,0,0,1,.46,1.22.79.79,0,0,1-.22.56.71.71,0,0,1-.54.24.75.75,0,0,1-.53-.16,2.39,2.39,0,0,1-.39-.58,2.71,2.71,0,0,0-.85-1,2.06,2.06,0,0,0-1.19-.33,2.16,2.16,0,0,0-1.81.86,3.94,3.94,0,0,0-.67,2.44,4.49,4.49,0,0,0,.3,1.76,2.24,2.24,0,0,0,.84,1.05,2.33,2.33,0,0,0,1.27.35,2.24,2.24,0,0,0,1.34-.4,2.34,2.34,0,0,0,.83-1.15,1.91,1.91,0,0,1,.29-.59.66.66,0,0,1,.56-.22.79.79,0,0,1,.56.23A.74.74,0,0,1,164.33,179.37Z" transform="translate(-90.15 -90.6)"/><path class="cls-11" d="M164.33,179.37h-.18a2.16,2.16,0,0,1-.2.86,3.23,3.23,0,0,1-.63.94,3.39,3.39,0,0,1-1.11.75,4,4,0,0,1-1.59.28,5.48,5.48,0,0,1-1.26-.13,3.23,3.23,0,0,1-1-.4,3.32,3.32,0,0,1-.84-.72h0a4.13,4.13,0,0,1-.59-.92,4.9,4.9,0,0,1-.36-1.08,5.48,5.48,0,0,1-.13-1.24,5.56,5.56,0,0,1,.31-1.9,3.94,3.94,0,0,1,.87-1.42,3.75,3.75,0,0,1,1.33-.89,4.22,4.22,0,0,1,1.63-.31,4,4,0,0,1,1.88.42,3.18,3.18,0,0,1,1.25,1,1.91,1.91,0,0,1,.43,1.11.6.6,0,0,1-.18.44.5.5,0,0,1-.4.18.59.59,0,0,1-.41-.12,2.13,2.13,0,0,1-.35-.52,3.06,3.06,0,0,0-.9-1.08,2.3,2.3,0,0,0-1.3-.36,2.33,2.33,0,0,0-2,.93,4,4,0,0,0-.71,2.55,4.73,4.73,0,0,0,.31,1.83,2.41,2.41,0,0,0,.91,1.13,2.54,2.54,0,0,0,1.37.38,2.41,2.41,0,0,0,1.45-.43,2.62,2.62,0,0,0,.89-1.24h0a2,2,0,0,1,.26-.53.5.5,0,0,1,.42-.15.58.58,0,0,1,.43.18.54.54,0,0,1,.18.44h.37a1,1,0,0,0-1-1,.85.85,0,0,0-.7.29,2.26,2.26,0,0,0-.32.64l.17.06-.17-.06a2.16,2.16,0,0,1-.76,1.06,2,2,0,0,1-1.24.36,2.13,2.13,0,0,1-1.17-.31,2,2,0,0,1-.77-1,4.28,4.28,0,0,1-.29-1.69,3.68,3.68,0,0,1,.64-2.33,2,2,0,0,1,1.66-.79,1.87,1.87,0,0,1,1.09.3,2.57,2.57,0,0,1,.79,1,2.36,2.36,0,0,0,.43.62.93.93,0,0,0,.65.21.84.84,0,0,0,.67-.3,1,1,0,0,0,.27-.68,2.3,2.3,0,0,0-.49-1.32,3.66,3.66,0,0,0-1.38-1.14,4.42,4.42,0,0,0-2.05-.46,4.71,4.71,0,0,0-1.76.33,4.18,4.18,0,0,0-1.46,1,4.49,4.49,0,0,0-.95,1.54,5.92,5.92,0,0,0-.33,2,6.13,6.13,0,0,0,.13,1.31,5.21,5.21,0,0,0,.4,1.17,4.18,4.18,0,0,0,.63,1h0a3.67,3.67,0,0,0,.93.8,3.79,3.79,0,0,0,1.12.44,5.61,5.61,0,0,0,1.34.15,4.45,4.45,0,0,0,1.73-.32,3.62,3.62,0,0,0,1.94-1.88,2.58,2.58,0,0,0,.23-1Z" transform="translate(-90.15 -90.6)"/><path class="cls-11" d="M171.36,173a4.84,4.84,0,0,1,2.42.57,3.71,3.71,0,0,1,1.53,1.63,5.48,5.48,0,0,1,.52,2.47,6.1,6.1,0,0,1-.28,1.92,4.16,4.16,0,0,1-.86,1.49,3.65,3.65,0,0,1-1.4,1,5.06,5.06,0,0,1-1.89.33,5,5,0,0,1-1.91-.34,3.71,3.71,0,0,1-1.4-1,3.94,3.94,0,0,1-.85-1.5,5.86,5.86,0,0,1-.29-1.9,5.94,5.94,0,0,1,.3-1.92,4.11,4.11,0,0,1,.87-1.48,3.81,3.81,0,0,1,1.38-.94A5.18,5.18,0,0,1,171.36,173Zm2.61,4.66a4.29,4.29,0,0,0-.32-1.72,2.43,2.43,0,0,0-.92-1.11,2.54,2.54,0,0,0-1.37-.37,2.45,2.45,0,0,0-1,.21,2,2,0,0,0-.8.6,2.76,2.76,0,0,0-.53,1,4.55,4.55,0,0,0-.2,1.38,4.69,4.69,0,0,0,.2,1.4,2.73,2.73,0,0,0,.55,1,2.2,2.2,0,0,0,.81.62,2.44,2.44,0,0,0,3.25-1.24A4.23,4.23,0,0,0,174,177.67Z" transform="translate(-90.15 -90.6)"/><path class="cls-11" d="M171.36,173v.18a4.59,4.59,0,0,1,2.33.55,3.43,3.43,0,0,1,1.46,1.55,5.37,5.37,0,0,1,.5,2.39,5.68,5.68,0,0,1-.28,1.86,3.9,3.9,0,0,1-.81,1.42,3.49,3.49,0,0,1-1.33.92,4.94,4.94,0,0,1-1.83.32,4.83,4.83,0,0,1-1.84-.33,3.56,3.56,0,0,1-1.34-.92,3.75,3.75,0,0,1-.81-1.44,5.68,5.68,0,0,1-.28-1.84,5.76,5.76,0,0,1,.29-1.86,3.92,3.92,0,0,1,.83-1.42,3.71,3.71,0,0,1,1.32-.89,4.73,4.73,0,0,1,1.79-.31v-.36a5.3,5.3,0,0,0-1.92.33,3.9,3.9,0,0,0-1.45,1,4.06,4.06,0,0,0-.91,1.55,5.94,5.94,0,0,0-.31,2,6.54,6.54,0,0,0,.29,2,4.36,4.36,0,0,0,.89,1.56,4,4,0,0,0,1.47,1,5.21,5.21,0,0,0,2,.36,5.27,5.27,0,0,0,2-.35,3.91,3.91,0,0,0,1.47-1,4.45,4.45,0,0,0,.89-1.56,6.42,6.42,0,0,0,.29-2,5.7,5.7,0,0,0-.54-2.55,3.89,3.89,0,0,0-1.6-1.71,5,5,0,0,0-2.51-.59Zm2.61,4.66h.18a4.41,4.41,0,0,0-.34-1.8,2.55,2.55,0,0,0-1-1.18,2.73,2.73,0,0,0-1.47-.4,2.62,2.62,0,0,0-1.09.22,2.43,2.43,0,0,0-.87.65,3.3,3.3,0,0,0-.57,1.07,5.32,5.32,0,0,0,0,2.89,3,3,0,0,0,.59,1.1,2.46,2.46,0,0,0,.88.67,2.74,2.74,0,0,0,1.08.22,2.69,2.69,0,0,0,1.39-.38,2.59,2.59,0,0,0,1-1.17,4.33,4.33,0,0,0,.37-1.89h-.36a4.18,4.18,0,0,1-.33,1.74,2.36,2.36,0,0,1-.87,1,2.31,2.31,0,0,1-1.21.32,2.34,2.34,0,0,1-.93-.18,2.21,2.21,0,0,1-.76-.57,2.63,2.63,0,0,1-.51-1,4.36,4.36,0,0,1-.19-1.35,4.23,4.23,0,0,1,.19-1.33,2.54,2.54,0,0,1,.5-.94,2,2,0,0,1,.73-.56,2.27,2.27,0,0,1,1-.19,2.32,2.32,0,0,1,1.27.34,2.19,2.19,0,0,1,.85,1,4.12,4.12,0,0,1,.31,1.65Z" transform="translate(-90.15 -90.6)"/><path class="cls-11" d="M181.85,180.86l-1.45-5.77v6.26a1.09,1.09,0,0,1-.24.77.75.75,0,0,1-.61.26.79.79,0,0,1-.61-.25,1.1,1.1,0,0,1-.23-.78v-7.18a.89.89,0,0,1,.31-.8,1.44,1.44,0,0,1,.83-.21h.57a2,2,0,0,1,.75.1.64.64,0,0,1,.34.33,5.16,5.16,0,0,1,.25.78l1.32,5,1.32-5a5.16,5.16,0,0,1,.25-.78.61.61,0,0,1,.34-.33,2,2,0,0,1,.75-.1h.57a1.44,1.44,0,0,1,.83.21.89.89,0,0,1,.31.8v7.18a1.09,1.09,0,0,1-.23.77.85.85,0,0,1-1.22,0,1.09,1.09,0,0,1-.24-.77v-6.26l-1.45,5.77c-.09.38-.17.65-.23.83a1.22,1.22,0,0,1-.33.48,1,1,0,0,1-.67.21,1,1,0,0,1-.54-.13,1.09,1.09,0,0,1-.35-.36,2.1,2.1,0,0,1-.2-.48C182,181.23,181.9,181.05,181.85,180.86Z" transform="translate(-90.15 -90.6)"/><path class="cls-11" d="M181.85,180.86l.17,0-1.81-7.19v7.72a1,1,0,0,1-.18.65.68.68,0,0,1-.95,0,.94.94,0,0,1-.19-.66v-7.18c0-.37.09-.56.23-.65a1.28,1.28,0,0,1,.73-.18h.57a2.27,2.27,0,0,1,.68.08.45.45,0,0,1,.24.25,4.86,4.86,0,0,1,.25.75l1.49,5.63,1.49-5.63a6.83,6.83,0,0,1,.24-.75.47.47,0,0,1,.25-.25,2.27,2.27,0,0,1,.68-.08h.57a1.28,1.28,0,0,1,.73.18c.14.09.23.28.23.65v7.18a1,1,0,0,1-.18.65h0a.57.57,0,0,1-.48.2.59.59,0,0,1-.47-.2,1,1,0,0,1-.19-.65v-7.72l-1.81,7.19c-.09.37-.17.64-.22.81a1,1,0,0,1-.28.4.79.79,0,0,1-.55.17.86.86,0,0,1-.45-.11.78.78,0,0,1-.28-.29,1.57,1.57,0,0,1-.18-.44q-.07-.26-.15-.54h0l-.17,0-.18,0,.15.55a2.18,2.18,0,0,0,.21.52,1.27,1.27,0,0,0,.41.42,1.22,1.22,0,0,0,.64.17,1.17,1.17,0,0,0,.79-.27,1.27,1.27,0,0,0,.38-.55c.06-.19.14-.46.24-.84l1.09-4.36v4.8a1.35,1.35,0,0,0,.28.9,1,1,0,0,0,1.5,0h0a1.3,1.3,0,0,0,.28-.9v-7.18a1.07,1.07,0,0,0-.39-.95,1.59,1.59,0,0,0-.93-.24h-.57a2.15,2.15,0,0,0-.81.11.79.79,0,0,0-.44.42,4.86,4.86,0,0,0-.27.82l-1.14,4.31-1.14-4.31a4.86,4.86,0,0,0-.27-.82.79.79,0,0,0-.44-.42,2.19,2.19,0,0,0-.81-.11h-.57a1.65,1.65,0,0,0-.94.24,1.07,1.07,0,0,0-.38.95v7.18a1.3,1.3,0,0,0,.28.9,1,1,0,0,0,1.49,0,1.32,1.32,0,0,0,.28-.89v-4.8l1.09,4.36h0Z" transform="translate(-90.15 -90.6)"/><path class="cls-11" d="M194.24,178.7h-1.68v2.57a1.21,1.21,0,0,1-.26.83.92.92,0,0,1-1.32,0,1.17,1.17,0,0,1-.26-.82v-7a1.18,1.18,0,0,1,.28-.87,1.3,1.3,0,0,1,.89-.26h2.35a6.49,6.49,0,0,1,1.61.16,2.48,2.48,0,0,1,1,.52,2.31,2.31,0,0,1,.62.88,3,3,0,0,1,.21,1.16,2.57,2.57,0,0,1-.86,2.1A3.83,3.83,0,0,1,194.24,178.7Zm-.44-4.16h-1.24v2.77h1.24a3.71,3.71,0,0,0,1.08-.13,1.29,1.29,0,0,0,.67-.45,1.34,1.34,0,0,0,.23-.81,1.36,1.36,0,0,0-.36-1A2.37,2.37,0,0,0,193.8,174.54Z" transform="translate(-90.15 -90.6)"/><path class="cls-11" d="M194.24,178.7v-.18h-1.86v2.75a1,1,0,0,1-.21.71.69.69,0,0,1-.53.22.67.67,0,0,1-.53-.22,1,1,0,0,1-.21-.7v-7a1,1,0,0,1,.23-.74,1.13,1.13,0,0,1,.76-.21h2.35a6,6,0,0,1,1.56.16h0a2.14,2.14,0,0,1,1.46,1.28,3,3,0,0,1,.2,1.1,2.45,2.45,0,0,1-.79,2,3.77,3.77,0,0,1-2.43.67v.36a4,4,0,0,0,2.66-.76,2.76,2.76,0,0,0,.92-2.24,3.24,3.24,0,0,0-.22-1.23,2.52,2.52,0,0,0-1.7-1.5h0a6.07,6.07,0,0,0-1.66-.17h-2.35a1.42,1.42,0,0,0-1,.31,1.32,1.32,0,0,0-.34,1v7a1.35,1.35,0,0,0,.3.94,1,1,0,0,0,.8.35,1,1,0,0,0,.79-.35,1.33,1.33,0,0,0,.31-.95v-2.39h1.5Zm-.44-4.16v-.18h-1.42v3.13h1.42a3.86,3.86,0,0,0,1.14-.14,1.45,1.45,0,0,0,.75-.51h0a1.54,1.54,0,0,0,.27-.92,1.57,1.57,0,0,0-.4-1.1h0a2.4,2.4,0,0,0-1.75-.46v.36a2.24,2.24,0,0,1,1.49.35l.13-.13-.13.13a1.23,1.23,0,0,1,.31.85,1.14,1.14,0,0,1-.2.7h0a1,1,0,0,1-.57.38,3.31,3.31,0,0,1-1,.13h-1.06v-2.41h1.06Z" transform="translate(-90.15 -90.6)"/><path class="cls-11" d="M202.36,174.12v6.6h3.72a1,1,0,0,1,.69.22.75.75,0,0,1,0,1.08,1,1,0,0,1-.69.21h-4.43a1,1,0,0,1-1.13-1.13v-7a1.23,1.23,0,0,1,.25-.83.84.84,0,0,1,.66-.28.87.87,0,0,1,.67.27A1.22,1.22,0,0,1,202.36,174.12Z" transform="translate(-90.15 -90.6)"/><path class="cls-11" d="M202.36,174.12h-.18v6.78h3.9a.81.81,0,0,1,.56.17.57.57,0,0,1,0,.82.83.83,0,0,1-.57.16h-4.43a.79.79,0,0,1-1-1v-7a1,1,0,0,1,.21-.71.63.63,0,0,1,.52-.22.67.67,0,0,1,.54.22,1,1,0,0,1,.21.71h.36a1.38,1.38,0,0,0-.3-1,1.09,1.09,0,0,0-.81-.33,1,1,0,0,0-.79.34,1.37,1.37,0,0,0-.3,1v7a1.35,1.35,0,0,0,.32,1,1.32,1.32,0,0,0,1,.32h4.43a1.17,1.17,0,0,0,.81-.25.9.9,0,0,0,.3-.68.93.93,0,0,0-.3-.68,1.18,1.18,0,0,0-.81-.26h-3.54v-6.42Z" transform="translate(-90.15 -90.6)"/><path class="cls-11" d="M215.57,174.58h-4.13v2.23h3.81a.9.9,0,0,1,.62.18.66.66,0,0,1,.21.5.69.69,0,0,1-.2.51.9.9,0,0,1-.63.19h-3.81v2.58h4.28a1,1,0,0,1,.65.2.71.71,0,0,1,.22.54.69.69,0,0,1-.22.52,1,1,0,0,1-.65.2h-5a1.18,1.18,0,0,1-.86-.27,1.19,1.19,0,0,1-.26-.86v-6.81a1.51,1.51,0,0,1,.12-.65.7.7,0,0,1,.36-.36,1.49,1.49,0,0,1,.64-.12h4.85a1,1,0,0,1,.66.2.72.72,0,0,1,0,1A1,1,0,0,1,215.57,174.58Z" transform="translate(-90.15 -90.6)"/><path class="cls-11" d="M215.57,174.58v-.18h-4.31V177h4a.69.69,0,0,1,.5.14.45.45,0,0,1,.15.36.49.49,0,0,1-.15.38.71.71,0,0,1-.5.14h-4V181h4.46a.78.78,0,0,1,.53.15.57.57,0,0,1,.16.41.58.58,0,0,1-.16.39.78.78,0,0,1-.53.15h-5a1,1,0,0,1-.73-.21,1,1,0,0,1-.21-.74v-6.81a1.39,1.39,0,0,1,.1-.57.55.55,0,0,1,.28-.28,1.37,1.37,0,0,1,.56-.1h4.85a.74.74,0,0,1,.53.15.53.53,0,0,1,0,.76.74.74,0,0,1-.53.15v.36a1.14,1.14,0,0,0,.78-.24.92.92,0,0,0,0-1.3,1.14,1.14,0,0,0-.78-.24h-4.85a1.73,1.73,0,0,0-.71.13.94.94,0,0,0-.46.46,1.75,1.75,0,0,0-.13.72v6.81a1.39,1.39,0,0,0,.31,1,1.35,1.35,0,0,0,1,.32h5a1.09,1.09,0,0,0,.77-.25.92.92,0,0,0,0-1.32,1.09,1.09,0,0,0-.77-.25h-4.1v-2.22h3.63a1.06,1.06,0,0,0,.75-.24.91.91,0,0,0,0-1.27,1.09,1.09,0,0,0-.75-.23h-3.63v-1.87h3.95Z" transform="translate(-90.15 -90.6)"/><path class="cls-11" d="M225.32,174.68h-2v6.59a1.21,1.21,0,0,1-.25.84.94.94,0,0,1-1.32,0,1.22,1.22,0,0,1-.26-.84v-6.59h-2a1,1,0,0,1-.7-.21.76.76,0,0,1,0-1.1,1,1,0,0,1,.69-.21h5.83a1,1,0,0,1,.71.21.7.7,0,0,1,.23.55.68.68,0,0,1-.23.55A1,1,0,0,1,225.32,174.68Z" transform="translate(-90.15 -90.6)"/><path class="cls-11" d="M225.32,174.68v-.18h-2.18v6.77a1,1,0,0,1-.21.72.66.66,0,0,1-.52.21.67.67,0,0,1-.53-.22,1,1,0,0,1-.21-.71V174.5h-2.18a.87.87,0,0,1-.58-.16.51.51,0,0,1-.17-.42.54.54,0,0,1,.17-.42.93.93,0,0,1,.58-.16h5.83a.84.84,0,0,1,.59.17.5.5,0,0,1,.17.41.48.48,0,0,1-.17.41.86.86,0,0,1-.59.17v.36a1.21,1.21,0,0,0,.83-.25.93.93,0,0,0,0-1.37,1.2,1.2,0,0,0-.83-.26h-5.83a1.23,1.23,0,0,0-.81.25,1,1,0,0,0,0,1.38,1.18,1.18,0,0,0,.82.25h1.82v6.41a1.38,1.38,0,0,0,.3,1,1.09,1.09,0,0,0,.8.34,1,1,0,0,0,.79-.34,1.38,1.38,0,0,0,.3-1v-6.41h1.82Z" transform="translate(-90.15 -90.6)"/><path class="cls-11" d="M234.72,174.58h-4.14v2.23h3.81a1,1,0,0,1,.63.18.69.69,0,0,1,.2.5.69.69,0,0,1-.2.51.9.9,0,0,1-.63.19h-3.81v2.58h4.28a1,1,0,0,1,.65.2.67.67,0,0,1,.22.54.66.66,0,0,1-.22.52,1,1,0,0,1-.65.2h-5a1,1,0,0,1-1.13-1.13v-6.81a1.51,1.51,0,0,1,.12-.65.72.72,0,0,1,.37-.36,1.46,1.46,0,0,1,.64-.12h4.85a.94.94,0,0,1,.65.2.72.72,0,0,1,0,1A.94.94,0,0,1,234.72,174.58Z" transform="translate(-90.15 -90.6)"/><path class="cls-11" d="M234.72,174.58v-.18H230.4V177h4a.69.69,0,0,1,.5.14.45.45,0,0,1,.15.36.49.49,0,0,1-.15.38.71.71,0,0,1-.5.14h-4V181h4.46a.78.78,0,0,1,.53.15.53.53,0,0,1,.16.41.5.5,0,0,1-.16.39.78.78,0,0,1-.53.15h-5a1,1,0,0,1-.74-.21,1.07,1.07,0,0,1-.21-.74v-6.81a1.39,1.39,0,0,1,.1-.57.55.55,0,0,1,.28-.28,1.42,1.42,0,0,1,.57-.1h4.85a.78.78,0,0,1,.53.15.56.56,0,0,1,0,.76.78.78,0,0,1-.53.15v.36a1.13,1.13,0,0,0,.77-.24.92.92,0,0,0,0-1.3,1.13,1.13,0,0,0-.77-.24h-4.85a1.75,1.75,0,0,0-.72.13.94.94,0,0,0-.46.46,1.75,1.75,0,0,0-.13.72v6.81a1.35,1.35,0,0,0,.32,1,1.32,1.32,0,0,0,1,.32h5a1.09,1.09,0,0,0,.77-.25.83.83,0,0,0,.28-.65.86.86,0,0,0-.28-.67,1.09,1.09,0,0,0-.77-.25h-4.1v-2.22h3.63a1.06,1.06,0,0,0,.75-.24.8.8,0,0,0,.26-.64.82.82,0,0,0-.26-.63,1.09,1.09,0,0,0-.75-.23h-3.63v-1.87h4Z" transform="translate(-90.15 -90.6)"/><path class="cls-11" d="M249,174.68h-2v6.59a1.21,1.21,0,0,1-.25.84.94.94,0,0,1-1.32,0,1.22,1.22,0,0,1-.26-.84v-6.59h-2a1,1,0,0,1-.7-.21.72.72,0,0,1-.23-.55.68.68,0,0,1,.24-.55,1,1,0,0,1,.69-.21H249a1,1,0,0,1,.7.21.71.71,0,0,1,.24.55.69.69,0,0,1-.24.55A1,1,0,0,1,249,174.68Z" transform="translate(-90.15 -90.6)"/><path class="cls-11" d="M249,174.68v-.18h-2.19v6.77a1.09,1.09,0,0,1-.2.72.69.69,0,0,1-.53.21.67.67,0,0,1-.53-.22,1,1,0,0,1-.21-.71V174.5h-2.18a.87.87,0,0,1-.58-.16.54.54,0,0,1-.17-.42.52.52,0,0,1,.18-.42.88.88,0,0,1,.57-.16H249a.82.82,0,0,1,.58.17.54.54,0,0,1,.18.41.55.55,0,0,1-.18.42.89.89,0,0,1-.58.16v.36a1.2,1.2,0,0,0,.82-.25.89.89,0,0,0,.3-.69.91.91,0,0,0-.29-.68A1.23,1.23,0,0,0,249,173h-5.84a1.23,1.23,0,0,0-.81.25.94.94,0,0,0,0,1.37,1.14,1.14,0,0,0,.82.26H245v6.41a1.34,1.34,0,0,0,.31,1,1.09,1.09,0,0,0,1.58,0,1.38,1.38,0,0,0,.3-1v-6.41H249Z" transform="translate(-90.15 -90.6)"/><path class="cls-11" d="M252.46,178.48v-4.36a1.18,1.18,0,0,1,.25-.83.81.81,0,0,1,.65-.28.84.84,0,0,1,.68.28,1.18,1.18,0,0,1,.25.83v4.46a4.15,4.15,0,0,0,.17,1.27,1.47,1.47,0,0,0,.61.79,2.16,2.16,0,0,0,1.21.29,1.82,1.82,0,0,0,1.52-.58,2.78,2.78,0,0,0,.44-1.73v-4.5a1.28,1.28,0,0,1,.25-.84,1,1,0,0,1,1.33,0,1.18,1.18,0,0,1,.26.84v4.36a6.43,6.43,0,0,1-.21,1.78,2.65,2.65,0,0,1-.78,1.25,3.06,3.06,0,0,1-1.15.66,5.05,5.05,0,0,1-1.53.21,6.33,6.33,0,0,1-1.8-.22,2.69,2.69,0,0,1-1.93-1.91A6.11,6.11,0,0,1,252.46,178.48Z" transform="translate(-90.15 -90.6)"/><path class="cls-11" d="M252.46,178.48h.18v-4.36a1,1,0,0,1,.2-.71.65.65,0,0,1,.52-.22.68.68,0,0,1,.55.22,1.07,1.07,0,0,1,.2.71v4.46a4.32,4.32,0,0,0,.18,1.33,1.58,1.58,0,0,0,.68.88,2.33,2.33,0,0,0,1.31.32,2,2,0,0,0,1.66-.65,3,3,0,0,0,.49-1.84v-4.5a1,1,0,0,1,.2-.72.66.66,0,0,1,.52-.21.67.67,0,0,1,.54.22,1,1,0,0,1,.21.71v4.36a6.37,6.37,0,0,1-.2,1.73,2.52,2.52,0,0,1-.73,1.16,2.8,2.8,0,0,1-1.08.63,5,5,0,0,1-1.48.2,6.3,6.3,0,0,1-1.75-.21,2.85,2.85,0,0,1-1.16-.66,2.67,2.67,0,0,1-.65-1.13,6.13,6.13,0,0,1-.21-1.72h-.37a6.5,6.5,0,0,0,.23,1.82,2.86,2.86,0,0,0,2.06,2,6.34,6.34,0,0,0,1.85.24,5.45,5.45,0,0,0,1.59-.22,3.2,3.2,0,0,0,1.21-.71,3,3,0,0,0,.84-1.33,6.87,6.87,0,0,0,.21-1.83v-4.36a1.38,1.38,0,0,0-.3-1,1.09,1.09,0,0,0-.81-.33,1,1,0,0,0-.79.33,1.38,1.38,0,0,0-.3,1v4.5a2.63,2.63,0,0,1-.4,1.62,1.64,1.64,0,0,1-1.38.5,2.09,2.09,0,0,1-1.12-.25,1.35,1.35,0,0,1-.53-.7,4,4,0,0,1-.16-1.21v-4.46a1.37,1.37,0,0,0-.29-1,1.05,1.05,0,0,0-.82-.34,1,1,0,0,0-.79.34,1.37,1.37,0,0,0-.3,1v4.36Z" transform="translate(-90.15 -90.6)"/><path class="cls-11" d="M265.92,178.35h-.64v2.92a1.19,1.19,0,0,1-.25.84.87.87,0,0,1-.66.27.83.83,0,0,1-.68-.28,1.21,1.21,0,0,1-.25-.83v-7a1,1,0,0,1,1.13-1.13h3a7.83,7.83,0,0,1,1.05.06,2.48,2.48,0,0,1,.8.21,2.38,2.38,0,0,1,.75.51,2.13,2.13,0,0,1,.5.78,2.64,2.64,0,0,1,.17.93,2.3,2.3,0,0,1-.57,1.63,3.32,3.32,0,0,1-1.74.86,3.24,3.24,0,0,1,.94.76,8.3,8.3,0,0,1,.79,1.08,7.44,7.44,0,0,1,.54,1,2.1,2.1,0,0,1,.2.64.66.66,0,0,1-.11.35.8.8,0,0,1-.32.28.93.93,0,0,1-.45.1.86.86,0,0,1-.52-.14,1.62,1.62,0,0,1-.37-.37l-.41-.65-.73-1.23a7.37,7.37,0,0,0-.71-1,1.82,1.82,0,0,0-.64-.48A2.29,2.29,0,0,0,265.92,178.35Zm1.06-3.81h-1.7V177h1.65a4.42,4.42,0,0,0,1.11-.11,1.37,1.37,0,0,0,.69-.39,1.12,1.12,0,0,0,.24-.76,1.22,1.22,0,0,0-.19-.66,1.16,1.16,0,0,0-.54-.43A3.74,3.74,0,0,0,267,174.54Z" transform="translate(-90.15 -90.6)"/><path class="cls-11" d="M265.92,178.35v-.18h-.82v3.1a1,1,0,0,1-.21.72.77.77,0,0,1-1.07,0,1.08,1.08,0,0,1-.19-.71v-7a.8.8,0,0,1,.94-.95h3a7.52,7.52,0,0,1,1,.06,2.29,2.29,0,0,1,.74.19h0a2,2,0,0,1,.69.47,2,2,0,0,1,.46.71,2.35,2.35,0,0,1,.16.87,2.1,2.1,0,0,1-.52,1.5,3.16,3.16,0,0,1-1.65.81l-.48.1.44.23a3.59,3.59,0,0,1,.88.73,7.42,7.42,0,0,1,.78,1.06,8.35,8.35,0,0,1,.53,1,2.06,2.06,0,0,1,.18.57.51.51,0,0,1-.09.26.55.55,0,0,1-.24.21.81.81,0,0,1-.37.08.72.72,0,0,1-.42-.11,1.22,1.22,0,0,1-.32-.32c-.09-.14-.23-.36-.4-.65l-.74-1.22-.15.09.15-.09a7,7,0,0,0-.73-1.06,1.89,1.89,0,0,0-.7-.53,2.5,2.5,0,0,0-.88-.14v.36a2,2,0,0,1,.75.12,1.48,1.48,0,0,1,.56.43,6.94,6.94,0,0,1,.69,1h0l.74,1.23c.17.29.31.51.41.66a1.64,1.64,0,0,0,.41.42,1.11,1.11,0,0,0,.63.18,1.13,1.13,0,0,0,.54-.13,1,1,0,0,0,.38-.34.82.82,0,0,0,.14-.45,2.1,2.1,0,0,0-.21-.71,8.32,8.32,0,0,0-.55-1.05,7.94,7.94,0,0,0-.82-1.11,3.42,3.42,0,0,0-1-.8l-.09.16,0,.17a3.44,3.44,0,0,0,1.83-.91,2.45,2.45,0,0,0,.62-1.75,2.81,2.81,0,0,0-.18-1,2.29,2.29,0,0,0-.54-.83,2.51,2.51,0,0,0-.81-.56l-.07.17.07-.17a2.81,2.81,0,0,0-.84-.22,8.54,8.54,0,0,0-1.08-.06h-3a1.14,1.14,0,0,0-1.31,1.31v7a1.44,1.44,0,0,0,.29.95,1,1,0,0,0,.82.35,1.08,1.08,0,0,0,.79-.33,1.41,1.41,0,0,0,.3-1v-2.74h.46Zm1.06-3.81v-.18H265.1v2.86h1.83a4.78,4.78,0,0,0,1.15-.12,1.54,1.54,0,0,0,.79-.45,1.35,1.35,0,0,0,.28-.88,1.32,1.32,0,0,0-.84-1.26h0a3.8,3.8,0,0,0-1.33-.15v.36a3.81,3.81,0,0,1,1.19.12h0a.91.91,0,0,1,.45.36,1,1,0,0,1,.17.56.89.89,0,0,1-.2.64,1.11,1.11,0,0,1-.6.33,4,4,0,0,1-1.06.11h-1.47v-2.13H267Z" transform="translate(-90.15 -90.6)"/><path class="cls-11" d="M276.34,174.11l3.54,5.34v-5.39a1.2,1.2,0,0,1,.22-.79.79.79,0,0,1,.61-.26.83.83,0,0,1,.63.26,1.2,1.2,0,0,1,.22.79v7.13c0,.8-.33,1.19-1,1.19a1.25,1.25,0,0,1-.45-.07,1,1,0,0,1-.37-.22,2.74,2.74,0,0,1-.32-.36l-.3-.43L275.69,176v5.31a1.15,1.15,0,0,1-.24.79.77.77,0,0,1-.62.26.79.79,0,0,1-.62-.26,1.15,1.15,0,0,1-.23-.79v-7a2.16,2.16,0,0,1,.09-.7,1,1,0,0,1,.39-.46,1.15,1.15,0,0,1,.59-.17,1.1,1.1,0,0,1,.43.08.81.81,0,0,1,.3.22,2.24,2.24,0,0,1,.28.35C276.15,173.8,276.25,174,276.34,174.11Z" transform="translate(-90.15 -90.6)"/><path class="cls-11" d="M276.34,174.11l-.15.1,3.87,5.84v-6a1,1,0,0,1,.18-.67.56.56,0,0,1,.47-.2.6.6,0,0,1,.49.2,1,1,0,0,1,.18.67v7.13a1.24,1.24,0,0,1-.2.78.73.73,0,0,1-.6.23,1.14,1.14,0,0,1-.39-.06.93.93,0,0,1-.31-.19h0a1.94,1.94,0,0,1-.3-.33h0l-.29-.42-.15.1.15-.1-3.78-5.79v5.92a1,1,0,0,1-.19.67.61.61,0,0,1-.49.2.58.58,0,0,1-.48-.2,1,1,0,0,1-.19-.67v-7a1.88,1.88,0,0,1,.08-.63l-.17-.07.17.07a.91.91,0,0,1,.81-.52.85.85,0,0,1,.35.06h0a.94.94,0,0,1,.25.18,1.57,1.57,0,0,1,.25.33c.1.14.19.29.29.45h0l.15-.1.16-.1-.29-.45a2.52,2.52,0,0,0-.3-.38,1.19,1.19,0,0,0-.36-.26h0a1.31,1.31,0,0,0-.5-.09,1.26,1.26,0,0,0-.68.2,1.2,1.2,0,0,0-.46.54h0a2.39,2.39,0,0,0-.12.77v7a1.35,1.35,0,0,0,.28.9,1,1,0,0,0,.76.34,1,1,0,0,0,.76-.33,1.31,1.31,0,0,0,.29-.91v-4.7L279,181.4h0l.3.43h0a2.21,2.21,0,0,0,.35.39h0a1.13,1.13,0,0,0,.43.26,1.36,1.36,0,0,0,.51.09,1.11,1.11,0,0,0,.88-.37,1.58,1.58,0,0,0,.29-1v-7.13a1.32,1.32,0,0,0-.28-.91,1.05,1.05,0,0,0-1.51,0,1.43,1.43,0,0,0-.27.91v4.79l-3.2-4.84-.15.1.16-.1Z" transform="translate(-90.15 -90.6)"/><path class="cls-11" d="M295.32,181.2l-.43-1.14H291.2l-.43,1.17a4.16,4.16,0,0,1-.44.92.67.67,0,0,1-.58.23.86.86,0,0,1-.62-.25.79.79,0,0,1-.26-.57,1.32,1.32,0,0,1,.06-.39c0-.13.11-.31.2-.55l2.32-5.89c.07-.17.15-.37.24-.61a3,3,0,0,1,.3-.59,1.25,1.25,0,0,1,.41-.38A1.38,1.38,0,0,1,293,173a1.41,1.41,0,0,1,.64.14,1.15,1.15,0,0,1,.41.38,2.57,2.57,0,0,1,.27.49c.07.17.16.41.27.7l2.37,5.85a2.88,2.88,0,0,1,.28,1,.82.82,0,0,1-.26.58.86.86,0,0,1-.64.26.84.84,0,0,1-.37-.07.75.75,0,0,1-.26-.21,2.11,2.11,0,0,1-.22-.41Zm-3.64-2.51h2.71L293,174.94Z" transform="translate(-90.15 -90.6)"/><path class="cls-11" d="M295.32,181.2l.17-.06-.48-1.26h-3.94l-.47,1.28a4.13,4.13,0,0,1-.41.88h0a.5.5,0,0,1-.44.16.67.67,0,0,1-.49-.2.57.57,0,0,1-.21-.44,1.26,1.26,0,0,1,.05-.33h0c0-.13.11-.31.2-.54l2.32-5.89h0c.07-.17.15-.37.24-.61a2.91,2.91,0,0,1,.28-.56,1.1,1.1,0,0,1,1.8,0,2.25,2.25,0,0,1,.25.46c.07.17.16.4.27.7h0l2.37,5.85h0a2.79,2.79,0,0,1,.27.9.61.61,0,0,1-.21.45.66.66,0,0,1-.51.21.76.76,0,0,1-.29,0l-.2-.16h0a2,2,0,0,1-.2-.36c-.08-.19-.15-.35-.2-.49l-.17.07.17-.06-.17.06-.17.07.21.49a1.85,1.85,0,0,0,.25.45h0a1,1,0,0,0,.32.26,1,1,0,0,0,.45.1,1,1,0,0,0,.76-.32,1,1,0,0,0,.32-.71,3,3,0,0,0-.29-1l-.17.07.17-.07-2.37-5.85-.17.07.17-.06c-.11-.3-.2-.53-.28-.71a2.69,2.69,0,0,0-.28-.53,1.39,1.39,0,0,0-1.2-.59,1.43,1.43,0,0,0-.73.17,1.39,1.39,0,0,0-.47.43,3.08,3.08,0,0,0-.32.63c-.09.24-.17.44-.24.61h0L289,180.56h0a5.55,5.55,0,0,0-.21.57h0a1.35,1.35,0,0,0-.07.44.9.9,0,0,0,.32.7,1,1,0,0,0,.74.31.87.87,0,0,0,.73-.32h0a5,5,0,0,0,.46-1l.38-1h3.44l.39,1h0Zm-3.64-2.51v.18h3L293,174.41l-1.6,4.46h.26v-.18l.17.06,1.17-3.27,1.11,3h-2.45v.18l.17.06Z" transform="translate(-90.15 -90.6)"/><path class="cls-11" d="M303.88,182.23h-2.77a1.15,1.15,0,0,1-.86-.27,1.21,1.21,0,0,1-.25-.86v-6.81a1,1,0,0,1,1.11-1.13h2.94a7.16,7.16,0,0,1,1.12.08,2.59,2.59,0,0,1,.86.31,2.39,2.39,0,0,1,.57.49,2,2,0,0,1,.37.65,2.15,2.15,0,0,1-1.23,2.74,2.22,2.22,0,0,1,1.79,2.22,2.46,2.46,0,0,1-.39,1.36,2.3,2.3,0,0,1-1.05.9,3.66,3.66,0,0,1-.95.25A9.35,9.35,0,0,1,303.88,182.23Zm-2.05-7.69v2.35h1.69a3.62,3.62,0,0,0,1.06-.13,1,1,0,0,0,.57-.5,1.14,1.14,0,0,0,.15-.58.89.89,0,0,0-.49-.91,3.7,3.7,0,0,0-1.49-.23Zm1.92,3.66h-1.92v2.65h2c1.24,0,1.86-.45,1.86-1.34a1.11,1.11,0,0,0-.48-1A2.8,2.8,0,0,0,303.75,178.2Z" transform="translate(-90.15 -90.6)"/><path class="cls-11" d="M303.88,182.23v-.18h-2.77a1,1,0,0,1-.72-.21,1,1,0,0,1-.21-.74v-6.81a1,1,0,0,1,.21-.74,1,1,0,0,1,.72-.21h2.94a6.76,6.76,0,0,1,1.09.08,2.19,2.19,0,0,1,.79.29,2,2,0,0,1,.53.44,2,2,0,0,1,.46,1.29,1.89,1.89,0,0,1-1.25,1.83l-.42.19.44.14a2.64,2.64,0,0,1,1.25.78,2,2,0,0,1,.41,1.27,2.32,2.32,0,0,1-.36,1.27,2.18,2.18,0,0,1-1,.83l.07.16-.07-.16a3.66,3.66,0,0,1-.91.23,8.88,8.88,0,0,1-1.23.07v.36a9.66,9.66,0,0,0,1.28-.07,4.18,4.18,0,0,0,1-.26h0a2.48,2.48,0,0,0,1.13-1,2.65,2.65,0,0,0,.42-1.46,2.31,2.31,0,0,0-.49-1.5,2.83,2.83,0,0,0-1.42-.89l-.06.17.08.16a2.26,2.26,0,0,0,1.46-2.15,2.28,2.28,0,0,0-.14-.82,2.44,2.44,0,0,0-.4-.7,2.62,2.62,0,0,0-1.54-.86,7.68,7.68,0,0,0-1.15-.08h-2.94a1.32,1.32,0,0,0-1,.32,1.39,1.39,0,0,0-.31,1v6.81a1.38,1.38,0,0,0,.3,1,1.35,1.35,0,0,0,1,.32h2.77Zm-2.05-7.69h-.18v2.53h1.87a3.78,3.78,0,0,0,1.12-.14,1.19,1.19,0,0,0,.67-.58l-.16-.09.15.09a1.21,1.21,0,0,0,.18-.67,1.08,1.08,0,0,0-.59-1.08,3.85,3.85,0,0,0-1.57-.24h-1.67v.18h.18v.18h1.49a3.64,3.64,0,0,1,1.42.21c.25.12.38.33.38.75a.92.92,0,0,1-.13.49h0a.87.87,0,0,1-.47.42,3.47,3.47,0,0,1-1,.12H302v-2.17h-.18v0Zm1.92,3.66V178h-2.1v3h2.16a2.53,2.53,0,0,0,1.5-.37,1.34,1.34,0,0,0,.54-1.15,1.29,1.29,0,0,0-.57-1.15,2.8,2.8,0,0,0-1.53-.34v.36a2.51,2.51,0,0,1,1.34.29.92.92,0,0,1,.4.84,1,1,0,0,1-.39.86,2.22,2.22,0,0,1-1.29.3H302v-2.29h1.74Z" transform="translate(-90.15 -90.6)"/><path class="cls-11" d="M314.49,173a4.91,4.91,0,0,1,2.43.57,3.71,3.71,0,0,1,1.53,1.63,5.62,5.62,0,0,1,.52,2.47,6.09,6.09,0,0,1-.29,1.92,4.14,4.14,0,0,1-.85,1.49,3.73,3.73,0,0,1-1.4,1,5.11,5.11,0,0,1-1.9.33,5,5,0,0,1-1.9-.34,3.74,3.74,0,0,1-1.41-1,4.08,4.08,0,0,1-.85-1.5,6.15,6.15,0,0,1-.29-1.9,5.94,5.94,0,0,1,.3-1.92,4.11,4.11,0,0,1,.87-1.48,3.76,3.76,0,0,1,1.39-.94A5.09,5.09,0,0,1,314.49,173Zm2.61,4.66a4.13,4.13,0,0,0-.32-1.72,2.37,2.37,0,0,0-.92-1.11,2.49,2.49,0,0,0-1.37-.37,2.44,2.44,0,0,0-1,.21,2.14,2.14,0,0,0-.81.6,2.92,2.92,0,0,0-.53,1,4.56,4.56,0,0,0-.19,1.38,4.69,4.69,0,0,0,.19,1.4,2.73,2.73,0,0,0,.55,1,2.32,2.32,0,0,0,.82.62,2.37,2.37,0,0,0,1,.21,2.41,2.41,0,0,0,1.29-.36,2.36,2.36,0,0,0,.94-1.09A4.09,4.09,0,0,0,317.1,177.67Z" transform="translate(-90.15 -90.6)"/><path class="cls-11" d="M314.49,173v.18a4.63,4.63,0,0,1,2.34.55,3.46,3.46,0,0,1,1.45,1.55,5.23,5.23,0,0,1,.5,2.39,6,6,0,0,1-.27,1.86,3.79,3.79,0,0,1-.82,1.42,3.49,3.49,0,0,1-1.33.92,4.9,4.9,0,0,1-1.83.32,4.83,4.83,0,0,1-1.84-.33,3.53,3.53,0,0,1-1.33-.92,3.91,3.91,0,0,1-.82-1.44,6.28,6.28,0,0,1-.28-1.84,5.76,5.76,0,0,1,.29-1.86,3.94,3.94,0,0,1,.84-1.42,3.67,3.67,0,0,1,1.31-.89,4.76,4.76,0,0,1,1.79-.31v-.36a5.3,5.3,0,0,0-1.92.33,4,4,0,0,0-1.45,1,4.19,4.19,0,0,0-.91,1.55,6.48,6.48,0,0,0,0,3.93,4.21,4.21,0,0,0,.89,1.56,3.88,3.88,0,0,0,1.47,1,5.12,5.12,0,0,0,2,.36,5.32,5.32,0,0,0,2-.35,4,4,0,0,0,1.46-1,4.16,4.16,0,0,0,.89-1.56,6.12,6.12,0,0,0,.3-2,5.7,5.7,0,0,0-.54-2.55,3.86,3.86,0,0,0-1.61-1.71,5,5,0,0,0-2.51-.59Zm2.61,4.66h.18a4.59,4.59,0,0,0-.33-1.8,2.63,2.63,0,0,0-1-1.18,2.7,2.7,0,0,0-1.47-.4,2.66,2.66,0,0,0-1.09.22,2.61,2.61,0,0,0-.87.65,3.11,3.11,0,0,0-.56,1.07,5.08,5.08,0,0,0,0,2.89,3,3,0,0,0,.58,1.1,2.55,2.55,0,0,0,.88.67,2.83,2.83,0,0,0,1.09.22,2.69,2.69,0,0,0,1.39-.38,2.65,2.65,0,0,0,1-1.17,4.34,4.34,0,0,0,.36-1.89h-.36a4,4,0,0,1-.33,1.74,2.3,2.3,0,0,1-.87,1,2.27,2.27,0,0,1-1.2.32,2.35,2.35,0,0,1-.94-.18,2.27,2.27,0,0,1-.75-.57,2.79,2.79,0,0,1-.52-1,4.69,4.69,0,0,1-.18-1.35,4.55,4.55,0,0,1,.18-1.33,2.69,2.69,0,0,1,.5-.94,2,2,0,0,1,.74-.56,2.26,2.26,0,0,1,.94-.19,2.36,2.36,0,0,1,1.28.34,2.31,2.31,0,0,1,.85,1,4.12,4.12,0,0,1,.3,1.65Z" transform="translate(-90.15 -90.6)"/><path class="cls-11" d="M321.93,178.48v-4.36a1.23,1.23,0,0,1,.25-.83.84.84,0,0,1,.66-.28.85.85,0,0,1,.68.28,1.18,1.18,0,0,1,.25.83v4.46a4.15,4.15,0,0,0,.17,1.27,1.41,1.41,0,0,0,.6.79,2.22,2.22,0,0,0,1.22.29,1.83,1.83,0,0,0,1.52-.58,2.84,2.84,0,0,0,.44-1.73v-4.5a1.28,1.28,0,0,1,.25-.84.85.85,0,0,1,.66-.27.87.87,0,0,1,.67.27,1.22,1.22,0,0,1,.26.84v4.36a6.43,6.43,0,0,1-.21,1.78,2.81,2.81,0,0,1-.78,1.25,3.06,3.06,0,0,1-1.15.66,5.05,5.05,0,0,1-1.53.21,6.33,6.33,0,0,1-1.8-.22,2.84,2.84,0,0,1-1.23-.7,2.75,2.75,0,0,1-.7-1.21A6.08,6.08,0,0,1,321.93,178.48Z" transform="translate(-90.15 -90.6)"/><path class="cls-11" d="M321.93,178.48h.18v-4.36a1,1,0,0,1,.21-.71.63.63,0,0,1,.52-.22.68.68,0,0,1,.55.22,1.07,1.07,0,0,1,.2.71v4.46a4.32,4.32,0,0,0,.18,1.33,1.58,1.58,0,0,0,.68.88,2.33,2.33,0,0,0,1.31.32,2,2,0,0,0,1.66-.65,3,3,0,0,0,.48-1.84v-4.5a1,1,0,0,1,.21-.72.64.64,0,0,1,.52-.21.67.67,0,0,1,.54.22,1,1,0,0,1,.21.71v4.36a6.37,6.37,0,0,1-.2,1.73,2.52,2.52,0,0,1-.73,1.16,2.77,2.77,0,0,1-1.09.63,4.88,4.88,0,0,1-1.47.2,6.3,6.3,0,0,1-1.75-.21,2.85,2.85,0,0,1-1.16-.66,2.67,2.67,0,0,1-.65-1.13,6.1,6.1,0,0,1-.22-1.72h-.36a6.5,6.5,0,0,0,.23,1.82,2.87,2.87,0,0,0,2,2,6.46,6.46,0,0,0,1.86.24,5.33,5.33,0,0,0,1.58-.22,3.24,3.24,0,0,0,1.22-.71,3,3,0,0,0,.84-1.33,6.87,6.87,0,0,0,.21-1.83v-4.36a1.34,1.34,0,0,0-.31-1,1,1,0,0,0-.8-.33,1,1,0,0,0-.79.33,1.38,1.38,0,0,0-.3,1v4.5a2.63,2.63,0,0,1-.41,1.62,1.62,1.62,0,0,1-1.37.5,2.09,2.09,0,0,1-1.12-.25,1.3,1.3,0,0,1-.53-.7,4,4,0,0,1-.16-1.21v-4.46a1.42,1.42,0,0,0-.29-1,1.06,1.06,0,0,0-.82-.34,1,1,0,0,0-.79.34,1.37,1.37,0,0,0-.3,1v4.36Z" transform="translate(-90.15 -90.6)"/><path class="cls-11" d="M338.82,174.68h-2v6.59a1.26,1.26,0,0,1-.25.84.94.94,0,0,1-1.32,0,1.18,1.18,0,0,1-.26-.84v-6.59h-2a1,1,0,0,1-.69-.21.68.68,0,0,1-.23-.55.7.7,0,0,1,.23-.55,1,1,0,0,1,.69-.21h5.84a1,1,0,0,1,.71.21.7.7,0,0,1,.23.55.72.72,0,0,1-.23.55A1,1,0,0,1,338.82,174.68Z" transform="translate(-90.15 -90.6)"/><path class="cls-11" d="M338.82,174.68v-.18h-2.18v6.77a1,1,0,0,1-.21.72.75.75,0,0,1-1.05,0,1,1,0,0,1-.21-.71V174.5H333a.86.86,0,0,1-.57-.16.51.51,0,0,1-.17-.42.54.54,0,0,1,.17-.42.92.92,0,0,1,.57-.16h5.84a.84.84,0,0,1,.59.17.5.5,0,0,1,.17.41.51.51,0,0,1-.17.42.93.93,0,0,1-.59.16v.36a1.23,1.23,0,0,0,.83-.25.88.88,0,0,0,.29-.69.84.84,0,0,0-.29-.68,1.2,1.2,0,0,0-.83-.26H333a1.22,1.22,0,0,0-.8.25,1,1,0,0,0,0,1.37,1.17,1.17,0,0,0,.82.26h1.83v6.41a1.38,1.38,0,0,0,.3,1,1.07,1.07,0,0,0,.8.34,1,1,0,0,0,.79-.34,1.38,1.38,0,0,0,.3-1v-6.41h1.82Z" transform="translate(-90.15 -90.6)"/></svg>